<svg xmlns="http://www.w3.org/2000/svg" width="339" height="250" viewBox="0 0 339 250">
    <defs>
        <linearGradient id="a" x1="50%" x2="50%" y1="100%" y2="0%">
            <stop offset="0%" stop-color="gray" stop-opacity=".25"/>
            <stop offset="54%" stop-color="gray" stop-opacity=".12"/>
            <stop offset="100%" stop-color="gray" stop-opacity=".1"/>
        </linearGradient>
        <linearGradient id="b" x1="102882%" x2="102882%" y1="81541%" y2="40741%">
            <stop offset="0%" stop-color="gray" stop-opacity=".25"/>
            <stop offset="54%" stop-color="gray" stop-opacity=".12"/>
            <stop offset="100%" stop-color="gray" stop-opacity=".1"/>
        </linearGradient>
        <linearGradient id="c" x1="79921%" x2="79921%" y1="58903%" y2="34083%">
            <stop offset="0%" stop-color="gray" stop-opacity=".25"/>
            <stop offset="54%" stop-color="gray" stop-opacity=".12"/>
            <stop offset="100%" stop-color="gray" stop-opacity=".1"/>
        </linearGradient>
        <linearGradient id="d" x1="222535%" x2="222535%" y1="81755%" y2="42313%">
            <stop offset="0%" stop-color="gray" stop-opacity=".25"/>
            <stop offset="54%" stop-color="gray" stop-opacity=".12"/>
            <stop offset="100%" stop-color="gray" stop-opacity=".1"/>
        </linearGradient>
    </defs>
    <g fill="none" fill-rule="evenodd">
        <path fill="#DF5050" fill-rule="nonzero" d="M9.367 156.932c-4.064.66-9.16 2.547-9.113 6.935.024 2.226 1.504 4.124 2.943 5.75a109.35 109.35 0 0 0 20.77 18.326c3.664 2.48 7.603 4.851 10.038 8.684 2.435 3.833 3.048 8.711 3.241 13.353a102.527 102.527 0 0 1-3.84 32.56c11.93 2.27 25.237 4.26 35.18-2.909 5.953-4.293 9.98-11.485 16.614-14.462 4.43-1.989 9.446-1.813 14.275-1.56a747.887 747.887 0 0 1 68.41 6.767c9.526 1.387 19.236 2.956 28.66 1.163 9.425-1.793 18.698-7.642 22.173-17.124.535-1.462 1.016-3.092 2.214-3.972 1.084-.785 2.503-.768 3.82-.72l79.613 2.733c4.362.149 8.876.27 12.87-1.522 3.87-1.736 6.847-5.075 9.712-8.346 6.553-7.463 13.6-16.644 11.674-26.773-1.541-8.119-8.43-13.792-15.26-17.764-6.831-3.971-14.366-7.222-19.385-13.572-7.637-9.665-7.336-23.498-7.81-36.039a199.987 199.987 0 0 0-4.182-33.772c-2.07-9.773-4.952-19.56-10.34-27.814-5.388-8.255-13.627-14.865-22.947-16.076-12.172-1.583-24.408 6.001-36.315 2.78-10.058-2.705-16.98-12.323-25.315-18.988C182.264 2.73 162.839.25 144.473.024 125-.223 105.013 1.746 87.656 10.88c-3.976 2.09-7.864 4.62-10.617 8.315-4.22 5.666-5.243 13.278-8.003 19.902C57.911 65.767 21.73 71.519 9.984 97.906c-4.17 9.36-4.129 20.277-1.09 30.108 3.267 10.579 12.465 16.421 16.113 25.643-3.925 2.524-10.881 2.5-15.64 3.275z" opacity=".05"/>
        <g opacity=".2">
            <path stroke="#535461" stroke-width=".677" d="M299.902 125.48s1.625-21.573 13.83-33.295a32.77 32.77 0 0 0 9.764-18.298c.533-3.325.76-6.691.677-10.058"/>
            <path fill="#DF5050" fill-rule="nonzero" d="M331.834 56.397c-.9 2.368-7.823 7.649-7.823 7.649s-1.693-8.528-.8-10.907a4.612 4.612 0 0 1 5.944-2.679 4.604 4.604 0 0 1 2.682 5.937h-.003zM333.974 72.267c-2.049 1.508-10.729 2.171-10.729 2.171s3.214-8.081 5.263-9.59a4.614 4.614 0 0 1 4.581-.51 4.602 4.602 0 1 1 .885 7.926v.003zM325.139 94.668c-2.534.268-10.36-3.535-10.36-3.535s6.858-5.355 9.388-5.626a4.61 4.61 0 0 1 5.071 4.096 4.607 4.607 0 0 1-4.1 5.065zM314.633 110.115c-2.452.677-10.81-1.735-10.81-1.735s5.852-6.428 8.304-7.128a4.614 4.614 0 0 1 4.469 1.132 4.602 4.602 0 0 1-1.963 7.731zM314.017 71.482c1.08 2.304 8.389 7.026 8.389 7.026s1.04-8.633-.041-10.937a4.612 4.612 0 0 0-7.956-.678 4.601 4.601 0 0 0-.392 4.589zM301.957 89.702c1.72 1.874 10.11 4.199 10.11 4.199s-1.596-8.55-3.316-10.423a4.614 4.614 0 0 0-6.514-.283 4.602 4.602 0 0 0-.283 6.507h.003zM292.671 109.016c1.378 2.138 9.256 5.842 9.256 5.842s-.126-8.694-1.504-10.826a4.614 4.614 0 0 0-6.374-1.376 4.603 4.603 0 0 0-1.378 6.366v-.006z"/>
        </g>
        <path fill="url(#a)" fill-rule="nonzero" d="M55.588 29.712v155.954h250.88V29.712z"/>
        <path fill="#F6F7F9" fill-rule="nonzero" d="M58.24 31.36h245.58v11.911H58.24z"/>
        <path fill="#DF5050" fill-rule="nonzero" d="M58.24 31.36h245.58v11.911H58.24z" opacity=".2"/>
        <path fill="#F6F7F9" fill-rule="nonzero" d="M58.24 43.271h245.58v140.748H58.24z"/>
        <ellipse cx="64.129" cy="37.243" fill="#F6F7F9" fill-rule="nonzero" rx="2.652" ry="2.649"/>
        <ellipse cx="71.193" cy="37.243" fill="#F6F7F9" fill-rule="nonzero" rx="2.652" ry="2.649"/>
        <ellipse cx="78.261" cy="37.243" fill="#F6F7F9" fill-rule="nonzero" rx="2.652" ry="2.649"/>
        <path fill="#DF5050" fill-rule="nonzero" d="M66.777 60.775h126.324v9.117H66.777zM225.49 60.775h66.253v9.117H225.49z" opacity=".2"/>
        <g fill="#DF5050" fill-rule="nonzero" opacity=".2">
            <path d="M91.364 146.958h8.832v29.12h-8.832zM108.443 126.072h8.832v50.003h-8.832zM125.522 105.19h8.832v70.885h-8.832zM142.6 111.955h8.832v64.124H142.6zM159.679 131.955h8.832v44.12h-8.832z"/>
        </g>
        <path fill="#DF5050" fill-rule="nonzero" d="M225.345 89.895h66.252v81.33h-66.252z" opacity=".2"/>
        <path fill="url(#b)" fill-rule="nonzero" d="M337.933 147.767c-.423-2.151-1.236-4.255-1.256-6.448-.03-3.559 1.866-7.692-.627-10.321-.569-.599-1.33-1.045-1.754-1.746a3.84 3.84 0 0 1-.44-1.969c-.04-4.15 2.248-8.366.877-12.3a4.181 4.181 0 0 0-1.572-2.189c-.792-.514-1.693-.612-2.665-.595-.877 0-1.801.098-2.71.115a5.861 5.861 0 0 1-1.52-.2c-1.05-.297-1.94-.984-2.98-1.322a4.875 4.875 0 0 0-1.693-.234c-2.276-.074-4.355 1.438-5.974 2.903-.807.678-1.662 1.3-2.557 1.857.135-.095-3.16 2.165-1.92 2.189a4.318 4.318 0 0 1 2.452.852 6.611 6.611 0 0 0 .338 7.673 238.955 238.955 0 0 0-1.744-1.692c-1.815-1.782-4.352-4.174-5.544-4.827-1.96-1.052-4.761-3.34-4.761-3.34s-3.64 2.03-2.52 4.849c.535.165 1.057.37 1.561.612 0 .374.073.745.214 1.093 1.151.363 2.241.896 3.234 1.583.112.156.216.317.311.484.485.845 1.992 2.385 3.834 4.096 1.294 1.296 2.997 2.845 4.694 4.337-.511 1.015-1.05 2.03-1.145 3.045a3.758 3.758 0 0 1-.382-.176c-2.52-1.353-8.4-1.211-8.4-1.211s-4.9-2.558-5.878-8.346c0 0-.98-3.501-.701-4.442h-.017l.125-.027 1.175-2.128a.94.94 0 0 0-.772-1.38c-5.73-.514-6.001 4.736-6.001 4.736h.05l-.016.044c.7 3.366 1.26 3.096 1.12 5.789l2.24 5.923s.138 2.03 4.199 4.713c4.06 2.682 8.68 6.867 8.68 6.867s-2.449 1.279-1.541 7.135c1.11 7.158-.56 17.368-.56 17.368v6.596l.312-.084c-.04.22-.077.453-.118.707a37.105 37.105 0 0 0-.193 10.017c.84 7.003 4.2 16.576 4.2 16.576s1.26 3.366 1.54 6.06a5.58 5.58 0 0 0 .36 1.555c.63 1.478.964 3.066.981 4.672a32.864 32.864 0 0 0 2.158 11.81c1.419 3.6 1.947 5.71 2.103 6.942-1.016 1.312-2.324 2.743-3.363 2.885-1.961.271-5.74.538-3.22 3.77.086.11.184.213.29.307-1.913.304-4.016.974-1.97 3.596 2.519 3.23 17.356 1.749 17.356 1.749s.095-1.796 0-3.769c1.04-.07 1.693-.135 1.693-.135s.42-7.808-1.399-8.752a3.932 3.932 0 0 0-.982.237c-.196-1.079-.338-2.422-.44-3.413l.721-.054v-.054h.044v-11.766s-.84-7.27-3.918-10.488a6.536 6.536 0 0 1-1.016-1.353l-.04-.084c.02-.92.02-2.162 0-3.586l.043-.078a2.947 2.947 0 0 1 .39-.507l.044-.058s1.693-2.03 7.42-14.81c3.498-7.802 2.574-12.18 1.32-14.436-.263-1.014-.815-3.288-1.506-7.182a28.127 28.127 0 0 1-.403-5.003c.868.217 1.76.317 2.655.298a9.023 9.023 0 0 0 4.064-.866c-.915-1.333-1.87-2.896-1.41-4.429.522-1.745 2.588-2.547 3.78-3.954 1.436-1.702 1.474-4.13 1.05-6.286z"/>
        <path fill="#797C9C" fill-rule="nonzero" d="M302.462 117.612s-3.475 2.002-2.405 4.807c0 0 3.61 1.069 5.08 3.738 1.47 2.67 12.832 12.283 12.832 12.283l8.297-4.137s-2.882-3.843-11.998-6.529c0 0-5.375-5.751-7.248-6.823-1.873-1.073-4.558-3.34-4.558-3.34z"/>
        <path fill="#000" fill-rule="nonzero" d="M304.155 119.303s-3.475 2.003-2.404 4.807c0 0 3.61 1.07 5.08 3.738 1.47 2.67 12.831 12.284 12.831 12.284l8.298-4.137s-2.882-3.843-12-6.53c0 0-5.374-5.75-7.246-6.823-1.873-1.072-4.559-3.339-4.559-3.339z" opacity=".05"/>
        <path fill="#DF5050" fill-rule="nonzero" d="M5.29 217.801s-19.527 11.77 16.469 29.888c0 0 7.931-14.709-.837-26.701a11.83 11.83 0 0 0-15.337-3.356l-.295.17z"/>
        <path stroke="#535461" stroke-width=".5" d="M5.513 217.55s16.713 12.771 16.256 30.136"/>
        <path stroke="#535461" stroke-width=".677" d="M22.704 247.903s-6.12-20.768 1.138-36.029a32.749 32.749 0 0 0 2.655-20.565c-.675-3.3-1.651-6.53-2.916-9.651"/>
        <path fill="#DF5050" fill-rule="nonzero" d="M28.112 171.993c0 2.544-4.609 9.918-4.609 9.918s-4.61-7.374-4.61-9.918a4.608 4.608 0 0 1 4.612-4.606 4.608 4.608 0 0 1 4.61 4.606h-.003zM35.732 186.093c-1.385 2.134-9.266 5.822-9.266 5.822s.143-8.694 1.528-10.826a4.611 4.611 0 0 1 7.974.408 4.6 4.6 0 0 1-.236 4.6v-.004zM35.4 210.166c-2.272 1.147-10.942.338-10.942.338s4.518-7.442 6.79-8.58a4.613 4.613 0 0 1 6.193 2.04 4.603 4.603 0 0 1-2.04 6.185v.017zM31.042 228.325c-2.032 1.513-10.726 2.196-10.726 2.196s3.194-8.089 5.243-9.6a4.614 4.614 0 0 1 4.58-.521 4.603 4.603 0 1 1 .902 7.926zM16.787 192.409c1.826 1.772 10.336 3.61 10.336 3.61s-2.082-8.458-3.911-10.217a4.617 4.617 0 0 0-7.69 2.172 4.606 4.606 0 0 0 1.255 4.435h.01zM11.958 213.711c2.273 1.147 10.942.338 10.942.338s-4.517-7.442-6.79-8.579a4.613 4.613 0 0 0-6.192 2.038 4.603 4.603 0 0 0 2.04 6.186v.017zM10.112 235.058c2.032 1.512 10.726 2.195 10.726 2.195s-3.194-8.089-5.243-9.6a4.614 4.614 0 0 0-6.448.963 4.602 4.602 0 0 0 .965 6.442z"/>
        <path fill="#000" fill-rule="nonzero" d="M28.112 171.993c0 2.544-4.609 9.918-4.609 9.918s-4.61-7.374-4.61-9.918a4.608 4.608 0 0 1 4.612-4.606 4.608 4.608 0 0 1 4.61 4.606h-.003zM35.732 186.093c-1.385 2.134-9.266 5.822-9.266 5.822s.143-8.694 1.528-10.826a4.611 4.611 0 0 1 7.974.408 4.6 4.6 0 0 1-.236 4.6v-.004zM35.4 210.166c-2.272 1.147-10.942.338-10.942.338s4.518-7.442 6.79-8.58a4.613 4.613 0 0 1 6.193 2.04 4.603 4.603 0 0 1-2.04 6.185v.017zM31.042 228.325c-2.032 1.513-10.726 2.196-10.726 2.196s3.194-8.089 5.243-9.6a4.614 4.614 0 0 1 4.58-.521 4.603 4.603 0 1 1 .902 7.926zM16.787 192.409c1.826 1.772 10.336 3.61 10.336 3.61s-2.082-8.458-3.911-10.217a4.617 4.617 0 0 0-7.69 2.172 4.606 4.606 0 0 0 1.255 4.435h.01zM11.958 213.711c2.273 1.147 10.942.338 10.942.338s-4.517-7.442-6.79-8.579a4.613 4.613 0 0 0-6.192 2.038 4.603 4.603 0 0 0 2.04 6.186v.017zM10.112 235.058c2.032 1.512 10.726 2.195 10.726 2.195s-3.194-8.089-5.243-9.6a4.614 4.614 0 0 0-6.448.963 4.602 4.602 0 0 0 .965 6.442z" opacity=".25"/>
        <path stroke="#535461" stroke-width=".677" d="M36.863 248.298s-6.12-20.754 1.148-36.028a32.749 32.749 0 0 0 2.655-20.565c-.674-3.3-1.65-6.53-2.915-9.652"/>
        <path fill="#DF5050" fill-rule="nonzero" d="M42.272 172.399c0 2.543-4.61 9.918-4.61 9.918s-4.609-7.375-4.609-9.918a4.608 4.608 0 0 1 4.611-4.606 4.608 4.608 0 0 1 4.611 4.606h-.003zM49.895 186.485c-1.385 2.135-9.266 5.822-9.266 5.822s.142-8.694 1.528-10.825a4.613 4.613 0 0 1 6.375-1.362 4.602 4.602 0 0 1 1.363 6.368v-.003zM49.56 210.558c-2.273 1.147-10.942.338-10.942.338s4.517-7.442 6.79-8.579a4.622 4.622 0 0 1 4.61.265 4.611 4.611 0 0 1-.458 7.976zM45.201 228.721c-2.032 1.512-10.725 2.196-10.725 2.196s3.193-8.089 5.242-9.601a4.614 4.614 0 0 1 4.581-.52 4.603 4.603 0 1 1 .902 7.926zM30.954 192.801c1.825 1.773 10.336 3.61 10.336 3.61s-2.083-8.458-3.912-10.217a4.617 4.617 0 0 0-7.69 2.172 4.606 4.606 0 0 0 1.255 4.435h.01zM26.118 214.104c2.272 1.146 10.942.338 10.942.338s-4.518-7.443-6.79-8.58a4.613 4.613 0 0 0-6.193 2.039 4.603 4.603 0 0 0 2.04 6.186v.017zM24.272 235.453c2.032 1.512 10.725 2.196 10.725 2.196s-3.193-8.089-5.242-9.601a4.614 4.614 0 0 0-6.448.964 4.602 4.602 0 0 0 .965 6.441zM8.311 247.574h322.744v2.368H8.311z"/>
        <path fill="url(#c)" fill-rule="nonzero" d="M236.464 115.301h68.399v83.965h-68.399z"/>
        <path fill="#DF5050" fill-rule="nonzero" d="M237.537 116.62h66.252v81.329h-66.252z"/>
        <path fill="#E8EAF1" fill-rule="nonzero" d="M241.987 123.758h13.546v13.532h-13.546zM248.76 145.409h48.09v2.706h-48.09zM248.76 151.16h48.09v2.706h-48.09zM248.76 156.911h48.09v2.706h-48.09zM248.76 162.662h48.09v2.706h-48.09zM248.76 168.413h48.09v2.706h-48.09zM248.76 174.164h48.09v2.706h-48.09zM248.76 179.915h48.09v2.706h-48.09z"/>
        <path fill="#FFB9B9" fill-rule="nonzero" d="M324.116 231.495s.4 5.873 1.07 6.543c.67.67-6.015 1.069-6.015 1.069l.935-7.612h4.01z"/>
        <path fill="#000" fill-rule="nonzero" d="M324.116 231.495s.4 5.873 1.07 6.543c.67.67-6.015 1.069-6.015 1.069l.935-7.612h4.01z" opacity=".05"/>
        <path fill="#E4E2F3" fill-rule="nonzero" d="M325.589 236.035s-.935 0-4.277 1.736c0 0-2.273-.4-3.207-3.607 0 0-2.808 4.808-4.677 5.075-1.87.267-5.48.534-3.075 3.738 2.404 3.204 16.574 1.735 16.574 1.735s.396-7.743-1.338-8.677z"/>
        <path fill="#000" fill-rule="nonzero" d="M325.589 236.035s-.935 0-4.277 1.736c0 0-2.273-.4-3.207-3.607 0 0-2.808 4.808-4.677 5.075-1.87.267-5.48.534-3.075 3.738 2.404 3.204 16.574 1.735 16.574 1.735s.396-7.743-1.338-8.677z" opacity=".05"/>
        <path fill="#FFB9B9" fill-rule="nonzero" d="M323.58 240.575l-.934 2.537-6.147-1.735.339-2.517.085-.609.233-1.691s5.212-1.337 5.212-.677c.07.55.183 1.095.339 1.627.213.822.48 1.756.677 2.368.115.43.197.697.197.697z"/>
        <path fill="#4C4C78" fill-rule="nonzero" d="M320.225 205.754a3.647 3.647 0 0 0 0 3.722c.262.482.586.929.961 1.33 2.94 3.203 3.743 10.412 3.743 10.412v11.614l-2.005.152-3.207.247-4.813-19.76s-2.807-14.418-1.47-16.955c1.338-2.538 2.54-18.424 2.54-18.424l1.111-1.147 2.632-2.723h7.62a5.12 5.12 0 0 1 1.483 1.654c1.28 2.115 2.428 6.512-1.08 14.631-5.48 12.683-7.085 14.686-7.085 14.686-.165.17-.31.358-.43.561z"/>
        <path fill="#000" fill-rule="nonzero" d="M320.269 205.697a3.647 3.647 0 0 0 0 3.721c.262.482.586.929.961 1.33 2.94 3.203 3.743 10.412 3.743 10.412v11.614l-2.005.152-3.207.247-4.813-19.76s-2.807-14.418-1.47-16.955c1.338-2.537 2.54-18.423 2.54-18.423l1.111-1.147 2.632-2.724h7.62a5.12 5.12 0 0 1 1.483 1.655c1.28 2.114 2.428 6.512-1.08 14.63-5.48 12.684-7.085 14.686-7.085 14.686-.165.17-.31.359-.43.562z" opacity=".05"/>
        <path fill="#000" fill-rule="nonzero" d="M322.72 237.527l-5.787.724.234-1.691s5.212-1.337 5.212-.677c.069.556.183 1.106.342 1.644z" opacity=".1"/>
        <path fill="#4C4C78" fill-rule="nonzero" d="M319.832 188.64s.338 10.51.386 17.114v3.722c.007.49-.029.98-.109 1.464-.4 1.201.4 3.87.4 3.87a38.497 38.497 0 0 1 2.405 16.557v5.873l-6.415.801s1.07-.801-1.872-8.545a33.716 33.716 0 0 1-2.063-11.712 12.522 12.522 0 0 0-.938-4.634 5.712 5.712 0 0 1-.339-1.543c-.267-2.67-1.47-6.008-1.47-6.008s-3.207-9.472-4.01-16.421a38.186 38.186 0 0 1 .187-9.932c.118-.836.278-1.665.481-2.483 0 0 13.066-8.214 18-2.538a6.426 6.426 0 0 1 1.114 1.871c.27.674.482 1.37.63 2.08 1.534 7.528-6.387 10.464-6.387 10.464z"/>
        <ellipse cx="319.436" cy="123.356" fill="#FFB9B9" fill-rule="nonzero" rx="6.817" ry="6.81"/>
        <path fill="#FFB9B9" fill-rule="nonzero" d="M315.693 127.625s2.808 7.876 0 12.016c-2.807 4.141 8.955 2.805 8.955 2.805l4.544-5.474s-5.347 0-5.615-9.347c-.267-9.347-7.884 0-7.884 0z"/>
        <path fill="#000" fill-rule="nonzero" d="M329.192 177.426c-.968.334-1.964.583-2.976.744-1.663.257-3.628.267-4.776-.744-.677-.6-2.37-.677-4.372-.48-4.243.405-9.983 1.985-11.08 2.296.117-.835.278-1.664.48-2.483 0 0 13.066-8.214 18-2.537h2.852a5.12 5.12 0 0 1 1.483 1.654c.247 1.062.39 1.55.39 1.55zM323.58 240.575l-.934 2.537-6.147-1.735.339-2.517c1.057 2.334 2.858 2.652 2.858 2.652a21.812 21.812 0 0 1 3.678-1.61l.207.673z" opacity=".1"/>
        <path fill="#E4E2F3" fill-rule="nonzero" d="M323.98 239.909s-.934 0-4.277 1.735c0 0-2.272-.4-3.207-3.606 0 0-2.808 4.807-4.677 5.074-1.87.268-5.48.535-3.075 3.738 2.404 3.204 16.574 1.736 16.574 1.736s.4-7.744-1.338-8.677z"/>
        <path fill="#FFB9B9" fill-rule="nonzero" d="M292.272 124.658s.26-5.2 5.73-4.692a.935.935 0 0 1 .738 1.353l-1.121 2.108-5.347 1.231z"/>
        <path fill="#797C9C" fill-rule="nonzero" d="M323.848 138.572s-6.55-1.069-8.287-2.401c0 0-1.337 2.537-3.742 1.2-2.404-1.336-8.02-1.2-8.02-1.2a12.107 12.107 0 0 1-5.614-8.279s-.935-3.47-.678-4.397c0 0-3.474-3.607-5.212 1.2.678 3.34 1.202 3.072 1.07 5.752l2.137 5.872s.132 2.003 4.01 4.672c3.878 2.67 8.287 6.81 8.287 6.81s-2.34 1.269-1.47 7.077c1.064 7.104-.535 17.223-.535 17.223v6.542s13.367-3.87 15.636-1.87c2.27 1.999 7.752 0 7.752 0s-.677-2.27-1.605-7.744c-.928-5.474.132-10.825.132-10.825s3.475-9.212 5.08-12.95c1.605-3.738-1.202-8.796-4.01-10.68-2.807-1.885-3.85-.748-3.85-.748s4.934 3.545-1.08 4.746z"/>
        <path fill="#000" fill-rule="nonzero" d="M306.675 157.859s1.067-.258 6.41-1.06c5.345-.801 14.702 1.07 14.702 1.07" opacity=".05"/>
        <path fill="#000" fill-rule="nonzero" d="M311.294 118.945c3.048.064 5.304 3.819 3.952 6.529-.592 1.19-1.74 2.24-1.622 3.562.054.602.376 1.147.515 1.735.64 2.707-2.601 5.24-1.86 7.913a5.713 5.713 0 0 0 1.159 1.938l5.628 7.084c.342.39.625.828.84 1.3.215.67.298 1.377.244 2.08-.027 3.383.193 7.013 2.191 9.756 2.401 3.295 7.295 4.48 10.936 2.642-.874-1.322-1.785-2.872-1.355-4.397.498-1.73 2.469-2.527 3.607-3.921 1.375-1.692 1.409-4.094 1.016-6.228-.393-2.135-1.182-4.222-1.2-6.394-.026-3.528 1.782-7.629-.599-10.233-.545-.596-1.27-1.036-1.676-1.733a3.93 3.93 0 0 1-.42-1.955c-.037-4.114 2.147-8.298.837-12.199a4.144 4.144 0 0 0-1.5-2.172c-1.857-1.248-4.43-.037-6.577-.676-1.016-.295-1.853-.978-2.845-1.313-2.676-.903-5.151.91-7 2.649a21.334 21.334 0 0 1-2.442 1.84c.132-.07-3.014 2.169-1.829 2.193z" opacity=".1"/>
        <path fill="#B36362" fill-rule="nonzero" d="M311.633 118.945c3.048.064 5.303 3.819 3.952 6.529-.593 1.19-1.74 2.24-1.622 3.562.054.602.376 1.147.515 1.735.64 2.707-2.601 5.24-1.86 7.913a5.713 5.713 0 0 0 1.159 1.938l5.628 7.084c.342.39.625.828.84 1.3.214.67.297 1.377.244 2.08-.027 3.383.193 7.013 2.19 9.756 2.402 3.295 7.296 4.48 10.936 2.642-.873-1.322-1.784-2.872-1.354-4.397.497-1.73 2.468-2.527 3.606-3.921 1.375-1.692 1.41-4.094 1.016-6.228-.392-2.135-1.182-4.222-1.198-6.394-.028-3.528 1.78-7.629-.6-10.233-.545-.596-1.27-1.036-1.676-1.733a3.93 3.93 0 0 1-.42-1.955c-.037-4.114 2.147-8.298.836-12.199a4.144 4.144 0 0 0-1.5-2.172c-1.856-1.248-4.43-.037-6.577-.676-1.016-.295-1.852-.978-2.845-1.313-2.675-.903-5.15.91-7 2.649a21.334 21.334 0 0 1-2.441 1.84c.132-.07-3.015 2.169-1.83 2.193z"/>
        <path fill="url(#d)" fill-rule="nonzero" d="M209.32 183.339a11.735 11.735 0 0 1-2.002-2.453c-1.171-1.84-3.132-2.831-4.477-3.325v-.599h.081l-.037-.555h.037l-.094-1.468-.478-7.334s-1.727-4.916 1.32-9.415c3.049-4.5.19-8.816-2.674-10.504 0 0-1.355-7.128-.19-8.816a49.218 49.218 0 0 0-4.81-2.446 7.84 7.84 0 0 1-.07-.27c-.03-.677-.071-1.33-.109-1.993a7.28 7.28 0 0 1 .19-1.015c.037-.139.078-.28.122-.426a7.318 7.318 0 0 0 4.677-6.786c0-.86-.153-1.712-.454-2.517.149-.25.263-.518.339-.799a3.255 3.255 0 0 0-.454-2.34c-.759-1.692-2.672-3.238-4.064-3.803-1.988-.812-4.982-.62-7.051-.372-1.162.139-2.49.531-2.91 1.603-.11.407-.199.819-.263 1.235-.434 1.637-2.313 2.402-3.475 3.654-1.016 1.106-1.476 2.601-1.808 4.06a37.44 37.44 0 0 0-.678 12.743c.119.98.275 1.955.44 2.93-.697.98-1.327 2.706-1.04 5.75l-2.292 10.88-.955 6.377a5.572 5.572 0 0 0 1.72 4.878c1.464 1.434 3.238 3.86 4.332 5.433a12.924 12.924 0 0 0-.698 4.324c.024.676.061 1.316.109 1.931.098 1.298.343 2.58.731 3.823.268 2.618.8 5.967 1.836 8.119l.382 11.441s-.572 10.504-1.72 12.568c-1.148 2.063 2.486 19.51 2.486 19.51v2.438l-.613 1.787-.153-.115c-2.868 3.565 0 4.878 0 4.878s.78.037 2.032.084a2.303 2.303 0 0 0 1.223 2.541s16.256.751 19.12 0c2.866-.751 2.104-3.383.573-3.19a7 7 0 0 1-2.29-.301c.895-1.046.18-2.463-.958-2.324-1.53.186-4.971-1.174-4.971-1.174v.023a2.586 2.586 0 0 0-.339-.101 38.382 38.382 0 0 1-3.783-1.066c-.738-1.58-2.438-5.828-1.219-9.134.552-1.488.732-3.47.732-5.392a61.535 61.535 0 0 1 2.516-17.111l2.293-7.872s3.25-9.567 3.44-12.179l-.027-3.83c2.69 1.73 4.823 1.205 6.188.403a1.471 1.471 0 0 0 .237-2.388zm-25.518-19.899c.064-.274.118-.575.166-.89h1.354a6.962 6.962 0 0 1 .678 3.692c-1.037-.339-2.588-1.144-2.198-2.802z"/>
        <path fill="#DB8B8B" fill-rule="nonzero" d="M185.62 238.924l-.735 2.206 2.391 2.388 7.911 1.837 5.704-.551-.37-2.03a2.44 2.44 0 0 0-1.811-1.78c-2.344-.55-6.814-1.803-7.756-3.548l-5.334 1.478z"/>
        <path fill="#000" fill-rule="nonzero" d="M185.62 238.924l-.735 2.206 2.391 2.388 7.911 1.837 5.704-.551-.37-2.03a2.44 2.44 0 0 0-1.811-1.78c-2.344-.55-6.814-1.803-7.756-3.548l-5.334 1.478z" opacity=".1"/>
        <path fill="#474463" fill-rule="nonzero" d="M199.052 244.256l-1.104-1.472 1.104-1.691s3.312 1.336 4.781 1.15c1.47-.186 2.209 2.388-.552 3.126-2.76.737-18.399 0-18.399 0s-2.76-1.286 0-4.777l2.39 1.837s4.065 2.206 6.073 1.837l5.707-.01z"/>
        <path fill="#DB8B8B" fill-rule="nonzero" d="M204.01 247.378l-5.703.552-7.905-1.85-2.39-2.369.196-.585.274-.819.268-.802 5.333-1.471c.27.44.64.81 1.08 1.082 1.735 1.184 4.847 2.03 6.672 2.467.077.017.153.04.227.067a2.43 2.43 0 0 1 1.585 1.712l.363 2.016z"/>
        <path fill="#000" fill-rule="nonzero" d="M204.01 247.378l-5.703.552-7.905-1.85-2.39-2.369.196-.585 2.198 1.691s4.064 2.206 6.072 1.837h5.703l-1.104-1.471.992-1.53a2.43 2.43 0 0 1 1.585 1.712l.356 2.013z" opacity=".1"/>
        <path fill="#474463" fill-rule="nonzero" d="M202.177 246.827l-1.104-1.472 1.104-1.691s3.313 1.336 4.782 1.15c1.47-.186 2.208 2.388-.552 3.126-2.76.737-18.4 0-18.4 0s-2.76-1.286 0-4.777L190.4 245s4.064 2.206 6.072 1.837l5.706-.01z"/>
        <path fill="#DB8B8B" fill-rule="nonzero" d="M197.575 140.233s-8.832.92-7.542-2.757a6.61 6.61 0 0 0 .271-3.244 8.99 8.99 0 0 0-1.561-3.738l8.28 1.285a10.353 10.353 0 0 0-1.121 2.656c-.985 3.9 1.673 5.798 1.673 5.798z"/>
        <path fill="#474463" fill-rule="nonzero" d="M182.491 182.141s.183 7.903 2.032 11.763l.37 11.211s-.553 10.291-1.657 12.314c-1.104 2.023 2.391 19.114 2.391 19.114v2.94s5.88 2.198 7.545-.373l-1.656-21.87.735-30.325-9.76-4.774z"/>
        <path fill="#000" fill-rule="nonzero" d="M182.491 182.141s.183 7.903 2.032 11.763l.37 11.211s-.553 10.291-1.657 12.314c-1.104 2.023 2.391 19.114 2.391 19.114v2.94s5.88 2.198 7.545-.373l-1.656-21.87.735-30.325-9.76-4.774z" opacity=".1"/>
        <path fill="#CBCDDA" fill-rule="nonzero" d="M178.813 156.77l-1.104 2.94-.921 6.247a5.524 5.524 0 0 0 1.656 4.777c2.208 2.206 5.151 6.8 5.151 6.8l3.495-10.487s-3.495-.552-2.943-2.94.37-6.8.37-6.8l-5.704-.538z"/>
        <path fill="#000" fill-rule="nonzero" d="M178.813 156.431l-1.104 2.94-.921 6.248a5.524 5.524 0 0 0 1.656 4.777c2.208 2.205 5.151 6.8 5.151 6.8l3.495-10.488s-3.495-.551-2.943-2.94c.552-2.388.37-6.8.37-6.8l-5.704-.537z" opacity=".05"/>
        <path fill="#000" fill-rule="nonzero" d="M195.164 241.11c-2.37 3.72-6.032 1.607-6.685 1.187l.267-.802 5.334-1.471c.271.442.642.814 1.084 1.086z" opacity=".1"/>
        <path fill="#474463" fill-rule="nonzero" d="M202.547 189.303c-.183 2.575-3.313 11.945-3.313 11.945l-2.204 7.713a61.308 61.308 0 0 0-2.425 16.78c0 1.88-.173 3.823-.704 5.28-1.474 4.06 1.473 9.557 1.473 9.557-2.577 4.595-6.99 1.472-6.99 1.472v-2.94s-3.495-15.988-2.577-19.113c.917-3.126 1.286-11.58 1.286-11.58v-15.254a17.302 17.302 0 0 1-5.049-10.974 51.523 51.523 0 0 1-.102-1.891c-.149-4.148 2.69-9.01 3.797-10.741.267-.42.433-.653.433-.653l16.256 6.428h.037v2.019l.082 11.952z"/>
        <path fill="#000" fill-rule="nonzero" d="M197.026 131.78a10.353 10.353 0 0 0-1.12 2.655 7.207 7.207 0 0 1-5.599-.203 8.99 8.99 0 0 0-1.56-3.738l8.28 1.285z" opacity=".1"/>
        <ellipse cx="193.345" cy="127.368" fill="#DB8B8B" fill-rule="nonzero" rx="7.176" ry="7.168"/>
        <path fill="#000" fill-rule="nonzero" d="M202.547 177.358h-.078c-7.715 1.583-17.4-6.448-17.4-6.448.26-.432.487-.885.677-1.353.267-.42.433-.653.433-.653l16.256 6.428.04.642.072 1.384z" opacity=".1"/>
        <path fill="#CBCDDA" fill-rule="nonzero" d="M200.521 140.047s-10.302-6.248-13.614-3.677l-4.599 5.88s-2.943.92-2.39 6.8l-2.209 10.66 6.624 1.653s3.864 3.678.735 9.006c0 0 9.75 8.085 17.479 6.427l-.57-8.63s-1.655-4.776 1.288-9.188c2.943-4.411.182-8.636-2.578-10.29.02 0-1.27-6.986-.166-8.64z"/>
        <path fill="#DB8B8B" fill-rule="nonzero" d="M201.073 177.54s3.865.735 5.703 3.678c.532.883 1.18 1.691 1.927 2.402a1.457 1.457 0 0 1-.226 2.324c-1.46.876-3.84 1.417-6.848-1.052-5.155-4.226-.556-7.351-.556-7.351z"/>
        <path fill="#000" fill-rule="nonzero" d="M195.37 143.542s-3.68-.369-4.599 9.188c-.917 9.557-2.39 11.763-2.39 11.763s-.922 4.962 1.286 7.902c2.208 2.94 6.435 9.188 6.435 9.188s4.599 1.286 5.52-3.308l-5.703-10.66s-.921-3.677 1.287-6.248 3.867-19.665-1.836-17.825z" opacity=".1"/>
        <path fill="#CBCDDA" fill-rule="nonzero" d="M195.74 142.99s-3.682-.368-4.6 9.189c-.917 9.556-2.39 11.762-2.39 11.762s-.922 4.963 1.286 7.903c2.208 2.94 6.435 9.188 6.435 9.188s4.599 1.285 5.52-3.309l-5.703-10.66s-.918-3.673 1.287-6.234 3.868-19.679-1.836-17.838z"/>
        <path fill="#000" fill-rule="nonzero" d="M198.774 149.882s.369 5.696-1.287 8.822c-1.656 3.126-1.656 7.169 0 9.374M199.695 142.9s-1.473-1.472-5.703-1.655c-4.23-.183-6.072-1.472-6.072-1.472" opacity=".1"/>
        <path fill="#000" fill-rule="nonzero" d="M189.447 118.106c-1.117.138-2.394.52-2.797 1.57-.107.398-.192.802-.254 1.21-.417 1.607-2.225 2.368-3.343 3.58-.985 1.082-1.419 2.547-1.74 3.978a37.335 37.335 0 0 0-.647 12.486c.359 3.045 1.094 6.049 1.297 9.11.203 3.062-.17 6.283-1.846 8.854-.721 1.106-1.67 2.077-2.18 3.295 1.056.856 2.509.977 3.87 1.015 1.58.054 3.16.054 4.741 0 .83-.027 1.694-.082 2.415-.501.53-.337.965-.803 1.266-1.353.905-1.536 1.135-3.383 1.094-5.16-.04-1.775-.321-3.548-.338-5.33-.017-.972.057-2 .616-2.795.403-.575 1.016-.96 1.54-1.424 1.972-1.742 2.646-4.54 2.71-7.169.065-2.628-.369-5.26-.145-7.879.088-1.015.47-2.256 1.48-2.456.323-.013.645-.054.961-.121.81-.312.732-1.452.962-2.287.26-.937 1.06-1.661 1.287-2.609.528-2.222-2.303-4.878-4.159-5.652-1.906-.795-4.785-.603-6.79-.362z" opacity=".1"/>
        <path fill="#472727" fill-rule="nonzero" d="M189.278 117.737c-1.118.139-2.395.52-2.798 1.57-.107.398-.192.802-.254 1.21-.416 1.607-2.225 2.369-3.342 3.58-.986 1.082-1.42 2.547-1.74 3.978a37.335 37.335 0 0 0-.648 12.487c.36 3.044 1.094 6.048 1.297 9.11.204 3.061-.169 6.282-1.845 8.853-.722 1.106-1.67 2.077-2.181 3.295 1.056.856 2.51.978 3.87 1.015 1.581.054 3.161.054 4.742 0 .83-.027 1.693-.081 2.415-.5.53-.338.965-.803 1.266-1.354.904-1.536 1.135-3.383 1.094-5.159-.04-1.776-.322-3.549-.339-5.331-.017-.971.058-2 .617-2.795.403-.575 1.016-.96 1.54-1.424 1.972-1.742 2.646-4.54 2.71-7.168.064-2.629-.37-5.261-.146-7.88.088-1.014.471-2.256 1.48-2.455.324-.014.645-.054.962-.122.81-.311.732-1.451.962-2.287.26-.937 1.06-1.661 1.287-2.608.528-2.223-2.303-4.879-4.159-5.653-1.92-.795-4.799-.606-6.79-.362z"/>
    </g>
</svg>
