<svg xmlns="http://www.w3.org/2000/svg" width="298" height="250" viewBox="0 0 298 250">
    <defs>
        <linearGradient id="a" x1="50.001%" x2="50.001%" y1="100%" y2="0%">
            <stop offset="0%" stop-color="gray" stop-opacity=".25"/>
            <stop offset="54%" stop-color="gray" stop-opacity=".12"/>
            <stop offset="100%" stop-color="gray" stop-opacity=".1"/>
        </linearGradient>
        <linearGradient id="b" x1="91116%" x2="91116%" y1="83152%" y2="36639%">
            <stop offset="0%" stop-color="gray" stop-opacity=".25"/>
            <stop offset="54%" stop-color="gray" stop-opacity=".12"/>
            <stop offset="100%" stop-color="gray" stop-opacity=".1"/>
        </linearGradient>
        <linearGradient id="c" x1="57184%" x2="57184%" y1="83311%" y2="62890%">
            <stop offset="0%" stop-color="gray" stop-opacity=".25"/>
            <stop offset="54%" stop-color="gray" stop-opacity=".12"/>
            <stop offset="100%" stop-color="gray" stop-opacity=".1"/>
        </linearGradient>
    </defs>
    <g fill="none" fill-rule="evenodd">
        <path fill="#DF5050" fill-rule="nonzero" d="M217.882.33c-13.951-.674-28.143-.562-41.616 2.76-13.472 3.323-26.285 10.161-33.952 20.648-4.39 6.004-7.01 13.035-12.122 18.557-8.869 9.576-23.364 12.865-36.741 16.167-31.415 7.72-63.006 18.875-85.793 39.771-3.271 2.996-6.46 6.414-7.2 10.556-1.136 6.368 3.866 12.327 9.416 16.404 5.55 4.077 12.116 7.31 16.223 12.598 5.238 6.743 5.532 15.653 4.045 23.753s-4.547 15.98-5.353 24.169c-.2 2.019-.247 4.124.63 5.991 1.163 2.477 3.748 4.157 6.281 5.57a102.412 102.412 0 0 0 28.754 10.829c17.36 3.714 35.462 3.016 53.235 4.542 17.773 1.527 36.284 5.796 48.775 17.24 7.66 7.015 14.572 17.25 25.496 16.902 6.12-.193 11.528-3.928 17.633-4.343 6.873-.47 13.086 3.266 19.567 5.394 9.204 3.029 19.863 2.735 28.494-1.44 8.63-4.174 14.897-12.351 15.403-21.14.493-8.61-4.182-16.665-6.882-24.94-8.857-27.111 3.601-55.76 15.988-81.734 12.387-25.974 25.17-54.41 16.928-81.678C285.524 5.28 248.464 1.808 217.882.33z" opacity=".05"/>
        <path stroke="#535461" stroke-width=".594" d="M70.729 160.003s-10.308-5.641-13.363-14.302a17.789 17.789 0 0 0-6.858-8.928 29.98 29.98 0 0 0-4.82-2.601"/>
        <path fill="#DF5050" fill-rule="nonzero" d="M43.719 128.73c.975.979 2.025 5.578 2.025 5.578s-4.601-1.078-5.576-2.054a2.497 2.497 0 0 1 .047-3.498 2.507 2.507 0 0 1 3.504-.027zM52.064 131.238c.297 1.351-1.339 5.781-1.339 5.781s-3.271-3.4-3.568-4.75a2.497 2.497 0 0 1 .74-2.436 2.507 2.507 0 0 1 4.158 1.405h.009zM61.158 140.63c-.437 1.309-4.077 4.317-4.077 4.317s-1.11-4.588-.672-5.897a2.508 2.508 0 0 1 3.17-1.586 2.502 2.502 0 0 1 1.588 3.165h-.009zM66.44 149.281c-.208 1.363-3.289 4.944-3.289 4.944s-1.868-4.332-1.66-5.698a2.504 2.504 0 0 1 2.842-2.021 2.5 2.5 0 0 1 2.107 2.775zM47.186 140.909c1.383-.015 5.354-2.56 5.354-2.56s-4.036-2.452-5.42-2.437a2.502 2.502 0 0 0-2.393 2.525 2.502 2.502 0 0 0 2.45 2.472h.01zM53.491 150.95c1.315-.427 4.348-4.044 4.348-4.044s-4.586-1.134-5.9-.706a2.499 2.499 0 0 0-1.522 3.123c.418 1.281 1.778 2 3.074 1.627zM60.968 159.872c1.368-.199 4.97-3.266 4.97-3.266s-4.33-1.891-5.699-1.692a2.502 2.502 0 1 0-1.604 4.034 2.512 2.512 0 0 0 2.333.924z"/>
        <path stroke="#535461" stroke-width=".594" d="M78.833 135.736s-7.138-9.332-6.415-18.48a17.762 17.762 0 0 0-2.647-10.935 29.92 29.92 0 0 0-3.351-4.326"/>
        <path fill="#DF5050" fill-rule="nonzero" d="M66.836 96.223c.494 1.289-.41 5.92-.41 5.92s-3.772-2.844-4.265-4.132a2.497 2.497 0 0 1 .337-2.536 2.506 2.506 0 0 1 4.338.754v-.006zM73.438 101.888c-.297 1.351-3.569 4.751-3.569 4.751s-1.615-4.433-1.329-5.784a2.507 2.507 0 0 1 4.143-1.369c.669.608.958 1.528.755 2.408v-.006zM77.944 114.154c-.93 1.021-5.481 2.298-5.481 2.298s.847-4.64 1.784-5.662a2.507 2.507 0 0 1 4.29.893 2.497 2.497 0 0 1-.587 2.47h-.006zM79.261 124.201c-.743 1.164-5.01 3.19-5.01 3.19s.05-4.719.793-5.883a2.507 2.507 0 0 1 3.405-.68 2.498 2.498 0 0 1 .812 3.37v.003zM65.057 108.759c1.27.543 5.948-.172 5.948-.172s-2.697-3.875-3.967-4.418a2.506 2.506 0 0 0-3.231 1.335 2.498 2.498 0 0 0 1.256 3.258l-.006-.003zM66.747 120.481c1.374.14 5.618-1.939 5.618-1.939s-3.736-2.892-5.11-3.031a2.5 2.5 0 0 0-.509 4.97zM69.956 131.666c1.332.37 5.864-.965 5.864-.965s-3.19-3.48-4.523-3.86a2.507 2.507 0 0 0-2.467.594 2.497 2.497 0 0 0 1.126 4.222v.009z"/>
        <path stroke="#535461" stroke-width=".594" d="M210.497 147.948s-1.442-11.65 3.801-19.186a17.764 17.764 0 0 0 3.239-10.775 29.867 29.867 0 0 0-.708-5.425"/>
        <path fill="#DF5050" fill-rule="nonzero" d="M220.104 107.791c-.226 1.363-3.346 4.905-3.346 4.905s-1.817-4.356-1.591-5.716a2.504 2.504 0 0 1 4.94.814l-.003-.003zM222.94 116.004c-.93 1.02-5.477 2.3-5.477 2.3s.844-4.64 1.784-5.661c.943-.957 2.475-1 3.47-.097a2.497 2.497 0 0 1 .233 3.458h-.01zM220.633 128.866c-1.32.413-5.892-.775-5.892-.775s3.079-3.58 4.396-3.994a2.499 2.499 0 1 1 1.487 4.768h.009zM216.692 138.204c-1.23.63-5.948.228-5.948.228s2.427-4.05 3.658-4.679a2.509 2.509 0 0 1 2.502.127 2.5 2.5 0 0 1-.22 4.327l.008-.003zM212.234 117.717c.821 1.11 5.217 2.844 5.217 2.844s-.369-4.703-1.19-5.813a2.507 2.507 0 0 0-3.456-.467 2.497 2.497 0 0 0-.57 3.436zM207.764 128.694c1.116.813 5.83 1.155 5.83 1.155s-1.764-4.377-2.88-5.19a2.507 2.507 0 0 0-3.441.586 2.497 2.497 0 0 0 .491 3.452v-.003zM204.885 139.961c.964.992 5.55 2.12 5.55 2.12s-.996-4.61-1.96-5.602a2.507 2.507 0 0 0-4.27 1.024c-.24.88.02 1.821.677 2.455l.003.003z"/>
        <path fill="url(#a)" fill-rule="nonzero" d="M140.625 53.147L59.08 129v111.693h163.088V128.999z"/>
        <path fill="#E8EAF1" fill-rule="nonzero" d="M220.422 238.685H60.825V129.382l79.8-74.228 79.797 74.228z"/>
        <path fill="#000" fill-rule="nonzero" d="M60.935 129.451h158.874v109.077H60.935z" opacity=".1"/>
        <rect width="23.554" height="23.515" x="168.691" y="18.839" fill="#DF5050" fill-rule="nonzero" rx="3.518" transform="rotate(-180 180.468 30.597)"/>
        <rect width="23.554" height="23.515" x="143.709" y="47.936" fill="#DF5050" fill-rule="nonzero" rx="3.518" transform="rotate(-180 155.486 59.694)"/>
        <rect width="23.554" height="23.515" x="207.949" y="6.963" fill="#DF5050" fill-rule="nonzero" rx="3.518" transform="rotate(-180 219.726 18.72)"/>
        <path fill="#DF5050" fill-rule="nonzero" d="M118.055 157.22h-5.496v-4.987a3.521 3.521 0 0 0-3.524-3.519H92.529a3.521 3.521 0 0 0-3.525 3.519v16.478a3.521 3.521 0 0 0 3.525 3.519h5.496v4.988a3.521 3.521 0 0 0 3.524 3.518h16.506a3.521 3.521 0 0 0 3.524-3.518v-16.479a3.521 3.521 0 0 0-3.524-3.518zM188.721 146.211h-16.506c-.934 0-1.83.371-2.492 1.03a3.515 3.515 0 0 0-1.032 2.489v7.737h-8.253a3.521 3.521 0 0 0-3.524 3.519v7.99h-7.753a3.521 3.521 0 0 0-3.525 3.518v16.479a3.521 3.521 0 0 0 3.525 3.518h16.494a3.521 3.521 0 0 0 3.524-3.518v-7.987h7.777a3.521 3.521 0 0 0 3.524-3.519v-7.737h8.253a3.521 3.521 0 0 0 3.513-3.525v-16.478a3.521 3.521 0 0 0-3.525-3.516z" opacity=".5"/>
        <path fill="url(#b)" fill-rule="nonzero" d="M105.65 122.245a3.415 3.415 0 0 0 2.017 1.876c.398.128.82.172 1.228.276 1.942.481 3.316 2.156 5.083 3.082a.98.98 0 0 0 .47.146h.059a.578.578 0 0 0 .11 0 .94.94 0 0 0 .497-.208l.08-.06c.192.786.221 1.602.086 2.4-.702 0-5.26.279-4.636 5.64.675 5.82 7.435 13.956 7.435 13.956s4.729 4.822 3.209 21.28l-.17 7.98s1.817-.273 4.134-.546c.054.107.108.212.164.315a12.427 12.427 0 0 0 2.495 3.079l3.84 9.139s.33.594.817 1.532c.045 1.933-1.157 3.622-1.157 3.622-7.435 2.162-10.471 9.973-10.471 9.973s-4.194 2.51-5.1 5.312c-1.785 1.431-1.651 5.345-1.651 5.345s6.245 3.325 10.81 5.154c.53.212 1.081.364 1.645.451l-1.014 2.079c-1.059.38-1.136 5.602-1.136 5.602s11.147 7.981 14.525 8.48c3.379.499 6.246-1.829 2.703-3.491-2.858-1.34-6.043-6.452-7.173-8.391 1.416-1.936 5.877-8.21 6.16-10.728.338-2.992 4.559-5.487 4.559-5.487 6.082-6.484 2.028-14.13 1.52-18.111 0-.077-.022-.16-.036-.247a43.59 43.59 0 0 0-1.43-5.11c.662-4.183 1.189-10.718 1.513-15.032 1.341.43 2.656.941 2.656.941 2.465-4.997-5.91-25.576-8.328-31.277 1.407-.463 3.831-1.187 7.308-1.971 5.912-1.33 6.245-4.323 6.245-4.323l4.56-12.301c-.39.172-.985.166-1.681.044v-.332c.036-1.167.146-3.032.49-3.37 0 0-1.12 0-2.483-.122v-.166l.613-7.527s-.845-8.313-3.715-7.15c-2.304.936-1.998 8.403-1.784 11.313.054.744.272 1.467.64 2.117l.193.341.134.235a2.839 2.839 0 0 1-.363-.208v2.574c-.318-.151-.506-.246-.506-.246.17 2.826-3.378 12.3-3.378 12.3s-6.246-.664-8.277.666c-1.487.977-3.426-.912-4.357-1.986l4.384-9.496a12.475 12.475 0 0 1-1.556-.38c.021-.116.042-.237.066-.362.22-1.188.618-2.871 1.154-3.082a18.966 18.966 0 0 0-2.4-1.099c.02-.095.038-.196.062-.296.315-1.663.812-5.256-.196-7.735-1.35-3.325-1.86-9.798-4.393-8.314-2.01 1.188-2.106 8.344-2.061 11.245.012.786.21 1.558.577 2.253l.975 1.847.134.255-.134.024v2.271c-.428-.27-.675-.442-.675-.442-.086 3.195-2.203 7.455-4.273 10.885l-1.053-.775-.259-.184a.64.64 0 0 1 0-.101s-.434-.122-1.118-.262c-.85-1.612-1.327-3.562-1.591-5.172-.027-.169-.054-.332-.078-.493a6.698 6.698 0 0 0 .595-2.752 6.85 6.85 0 0 0-5.784-6.713c.208-.229.297-.297.362-.297h.045c.104 0 .247.047.764-.205.518-.252 1.14-.647 1.137-1.235 0-.43-.343-.784-.705-1.027-.872-.594-.893-1.589-1.707-1.515a1.078 1.078 0 0 0-.461.063c-.744.243-1.39.706-2.112 1.003a5.01 5.01 0 0 1-1.588.362 6.58 6.58 0 0 0-1.041.084c-.275.069-.54.176-.785.317-1.526.832-3.287 2.097-3.777 3.744-.458 1.544.175 3.546-1.005 4.656-.216.17-.415.36-.595.567-.151.229-.252.487-.298.757a4.527 4.527 0 0 0 .238 2.744zm30.88 79.943c.065.796-.086 1.36-.553 1.544-2.534.998-5.404 10.14-5.404 10.14l-1.921 3.958a51.097 51.097 0 0 1-4.366-3.691l.208-1.434s5.404-3.99 5.743-5.155c.27-.935 4.64-4.165 6.293-5.362z"/>
        <path fill="#575988" fill-rule="nonzero" d="M140.304 140.163s11.486 26.541 8.696 32.278c0 0-4.595-1.803-5.252-1.485-.657.318-7.221-34.24-7.221-34.24l3.777 3.447z"/>
        <path fill="#000" fill-rule="nonzero" d="M140.304 140.163s11.486 26.541 8.696 32.278c0 0-4.595-1.803-5.252-1.485-.657.318-7.221-34.24-7.221-34.24l3.777 3.447z" opacity=".05"/>
        <path fill="#575988" fill-rule="nonzero" d="M134.067 224.697s3.938 7.372 7.385 9.011c3.447 1.64.657 3.932-2.626 3.442-3.284-.49-14.112-8.355-14.112-8.355s.074-5.149 1.103-5.523c1.03-.374 8.25 1.425 8.25 1.425zM123.72 212.738s5.58 5.57 8.03 6.062c2.451.493-2.132 3.768-6.563 1.966-4.432-1.802-10.502-5.077-10.502-5.077s-.163-5.244 2.626-5.734c2.79-.49 6.41 2.783 6.41 2.783z"/>
        <path fill="#67647E" fill-rule="nonzero" d="M146.704 167.194s-1.148 19.988-2.626 22.773-7.057 11.304-7.057 11.304-6.4 4.587-6.728 5.733c-.327 1.146-5.58 5.077-5.58 5.077l-.326 2.293s-8.696-.493-8.206-3.442c.491-2.948 5.086-5.733 5.086-5.733s2.953-7.699 10.174-9.83c0 0 2.296-3.267.327-5.898 0 0-4.922-12.286-7.711-13.761-2.79-1.476 1.15-9.989 1.15-9.989l21.497 1.473z"/>
        <path fill="#000" fill-rule="nonzero" d="M146.704 167.194s-1.148 19.988-2.626 22.773-7.057 11.304-7.057 11.304-6.4 4.587-6.728 5.733c-.327 1.146-5.58 5.077-5.58 5.077l-.326 2.293s-8.696-.493-8.206-3.442c.491-2.948 5.086-5.733 5.086-5.733s2.953-7.699 10.174-9.83c0 0 2.296-3.267.327-5.898 0 0-4.922-12.286-7.711-13.761-2.79-1.476 1.15-9.989 1.15-9.989l21.497 1.473z" opacity=".05"/>
        <path fill="#67647E" fill-rule="nonzero" d="M130.62 213.23l-5.252 10.986c.821 2.785 8.696 1.802 8.696 1.802s6.073-8.191 6.4-11.14c.328-2.948 4.432-5.407 4.432-5.407 5.906-6.39 1.969-13.925 1.487-17.856 0-.074-.021-.157-.036-.243-.437-2.637-3.093-10.223-5.157-15.903-1.392-3.827-2.519-6.79-2.519-6.79s-11.004.493-13.29 4.424c-1.054 1.799-.596 3.676.237 5.178a12.204 12.204 0 0 0 2.427 3.034l3.735 8.99s6.564 11.96 4.101 12.943c-2.462.983-5.26 9.982-5.26 9.982z"/>
        <path fill="#F7C4A7" fill-rule="nonzero" d="M150.22 116.09c.052.73.265 1.439.62 2.078l.188.339.925 1.665h2.953l.063-.775.595-7.423s-.821-8.191-3.61-7.045c-2.24.932-1.94 8.292-1.735 11.16z"/>
        <path fill="#000" fill-rule="nonzero" d="M151.028 118.512l.925 1.666h2.953l.063-.775c-1.374-.11-3.01-.374-3.94-.89z" opacity=".1"/>
        <path fill="#E6E6F0" fill-rule="nonzero" d="M150.805 118.54v3.767l6.073 1.639s0-.392.018-.938c.036-1.15.143-2.987.476-3.32-.003-.003-4.925-.003-6.567-1.149z"/>
        <path fill="#000" fill-rule="nonzero" d="M150.805 120.748v1.559l6.073 1.639s0-.392.018-.938c-2.025-.354-4.943-1.702-6.09-2.26z" opacity=".1"/>
        <path fill="#F7C4A7" fill-rule="nonzero" d="M115.393 126.966c1.19 3.453-.36 5.008-.36 5.008s14.77.983 11.159-1.638c-2.109-1.533-3.042-4.908-3.453-7.45a25.366 25.366 0 0 1-.321-3.198s-11.801-.172-9.353 3.112a15.768 15.768 0 0 1 2.328 4.166z"/>
        <path fill="#000" fill-rule="nonzero" d="M113.065 122.8c1.19 1.615 1.594 1.853 2.001 3.02.37.062.744.093 1.118.092 2.814 0 5.553-.58 6.543-3.029a25.366 25.366 0 0 1-.321-3.198s-11.792-.172-9.341 3.115z" opacity=".1"/>
        <ellipse cx="116.508" cy="119.688" fill="#F7C4A7" fill-rule="nonzero" rx="6.727" ry="6.716"/>
        <path fill="#575988" fill-rule="nonzero" d="M150.315 120.834s6.4 3.266 8.205 2.459l-4.431 12.123s-.328 2.948-6.073 4.26c-5.746 1.313-8.533 2.453-8.533 2.453l-10.665-12.616 5.416 1.485s2.79 3.93 4.758 2.621c1.97-1.309 8.03-.656 8.03-.656s3.465-9.344 3.293-12.129z"/>
        <path fill="#000" fill-rule="nonzero" d="M150.315 120.834s6.4 3.266 8.205 2.459l-4.431 12.123s-.328 2.948-6.073 4.26c-5.746 1.313-8.533 2.453-8.533 2.453l-10.665-12.616 5.416 1.485s2.79 3.93 4.758 2.621c1.97-1.309 8.03-.656 8.03-.656s3.465-9.344 3.293-12.129z" opacity=".05"/>
        <path fill="#000" fill-rule="nonzero" d="M125.371 128.566s-8.675-2.476-9.588 2.123c0 0 4.009-1.95 9.752 1.484.431.259.853.535 1.264.823 5.056 3.536 8.583 9.017 10.001 15.22l3.667 16.033.328 4.311s5.252 1.036 6.245-.517c.993-1.553.327-6.725-1.148-8.45-1.475-1.725-3.783-9.124-3.783-9.124l-1.436-4.302a28.759 28.759 0 0 0-5.621-9.84l-.345-.407a21.541 21.541 0 0 0-8.012-5.985c-.83-.366-1.44-.826-1.324-1.37z" opacity=".1"/>
        <path fill="#E6E6F0" fill-rule="nonzero" d="M125.371 128.24s-8.675-2.477-9.588 2.122c0 0 4.009-1.95 9.752 1.485.431.258.853.534 1.264.822 5.056 3.536 8.583 9.017 10.001 15.22l3.667 16.033.328 4.311s5.252 1.037 6.245-.516c.993-1.553.327-6.725-1.148-8.45-1.475-1.725-3.774-9.142-3.774-9.142l-1.445-4.285a28.759 28.759 0 0 0-5.621-9.84l-.348-.418a21.541 21.541 0 0 0-8.01-5.974c-.83-.368-1.439-.813-1.323-1.369z"/>
        <path fill="#000" fill-rule="nonzero" d="M147.186 161.262l-.075 2.82-2.295-1.484s-4.093-14.87-6.975-18.922c-.339-.478-.502-1.188-.82-1.31l-11.733-11.303v-2.622s5.99 4.424 6.48 5.244c.209.347 3.358 2.078 5.253 4.75a59.358 59.358 0 0 1 4.511 7.782l3.938 8.848 1.716 6.197z" opacity=".1"/>
        <path fill="#787C9C" fill-rule="nonzero" d="M125.288 128.287v2.538l11.896 11.387c.315.122.482.834.82 1.31 2.883 4.055 6.975 18.922 6.975 18.922l2.296 1.484.071-2.82-1.71-6.185-3.937-8.848a59.358 59.358 0 0 0-4.512-7.782c-1.894-2.672-5.056-4.403-5.252-4.75-.425-.707-5.056-4.09-6.323-5.01l-.324-.246z"/>
        <path fill="#000" fill-rule="nonzero" d="M118.748 112.556c.52-.255 1.106-.638 1.103-1.217a1.336 1.336 0 0 0-.684-1.012c-.937-.639-.865-1.782-1.942-1.432-.72.241-1.35.698-2.052.99a4.81 4.81 0 0 1-1.543.355c-.34 0-.677.027-1.012.08a2.947 2.947 0 0 0-.764.315 6.582 6.582 0 0 0-3.099 3.86c-.446 1.52-.401 3.323-1.55 4.415a4.261 4.261 0 0 0-.57.559c-.15.225-.251.479-.298.745a4.52 4.52 0 0 0 .226 2.72 3.335 3.335 0 0 0 1.957 1.85c.387.127.797.171 1.19.27 1.885.475 3.22 2.125 4.937 3.037a.94.94 0 0 0 .455.142.893.893 0 0 0 .482-.204c.663-.476 1.21-1.209 1.19-2.025a4.086 4.086 0 0 0-.441-1.458 14.116 14.116 0 0 1-.82-2.64 1.284 1.284 0 0 1-.019-.638c.125-.398.565-.594.872-.864.595-.538.651-1.455.437-2.218-.214-.763-.666-1.434-1.002-2.153a1.693 1.693 0 0 1-.2-.697c0-.96 1.297-1.485 1.844-2.112.759-.852.289-.166 1.303-.668z" opacity=".1"/>
        <path fill="#B96B6B" fill-rule="nonzero" d="M118.584 112.556c.52-.255 1.107-.638 1.104-1.217a1.336 1.336 0 0 0-.684-1.012c-.937-.639-.866-1.782-1.942-1.432-.72.241-1.35.698-2.052.99a4.81 4.81 0 0 1-1.544.355c-.339.021-1.433-.495-1.764-.418a2.947 2.947 0 0 0-.764.315 6.582 6.582 0 0 0-3.099 3.86c-.446 1.52-.134 3.423-1.282 4.515-.193.185.069.743-.086.96-.15.225-.25.478-.297.745a4.52 4.52 0 0 0 .226 2.72 3.335 3.335 0 0 0 1.957 1.85c.386.127.797.171 1.19.27 1.885.474 3.22 2.125 4.936 3.037a.94.94 0 0 0 .455.142.893.893 0 0 0 .482-.205c.663-.475 1.21-1.208 1.19-2.024a4.086 4.086 0 0 0-.44-1.458 14.116 14.116 0 0 1-.821-2.64 1.284 1.284 0 0 1-.018-.638c.125-.398.565-.594.871-.864.595-.538.651-1.455.437-2.218-.214-.763-.666-1.434-1.002-2.153a1.693 1.693 0 0 1-.2-.698c0-.959 1.298-1.484 1.845-2.11.758-.856.288-.17 1.302-.672z"/>
        <path fill="#000" fill-rule="nonzero" d="M125.61 178.269c3-.356 6.795-.704 8.457-.425 2.677.446 6.44-1.938 7.114-2.375-1.392-3.827-2.519-6.79-2.519-6.79s-11.004.493-13.29 4.424c-1.057 1.79-.584 3.664.237 5.166z" opacity=".1"/>
        <path fill="#575988" fill-rule="nonzero" d="M111.26 135.906c.657 5.733 7.22 13.761 7.22 13.761s4.595 4.751 3.117 20.971l-.163 7.863s9.68-1.485 12.636-.983c2.956.502 7.221-2.459 7.221-2.459s1.642-28.343-5.415-34.24a41.619 41.619 0 0 0-2.835-3.86c-1.894-2.289-4.46-4.869-6.882-5.504a4.313 4.313 0 0 0-.948-.146s-7.385-4.094-9.354-.982c-.003.009-5.255-.155-4.598 5.579z"/>
        <path fill="#000" fill-rule="nonzero" d="M141.205 166.458s-2.614-1.143-7.054-.82c-4.44.324-12.322-3.59-12.322-3.59" opacity=".1"/>
        <path fill="#000" fill-rule="nonzero" d="M136.447 202.99s-.164.493 1.968 1.146c2.133.653 2.79 1.31 2.79 1.31" opacity=".05"/>
        <rect width="23.554" height="23.515" x="131.117" y="91.241" fill="#DF5050" fill-rule="nonzero" rx="3.518"/>
        <path fill="#F7C4A7" fill-rule="nonzero" d="M129.933 112.42c.012.774.204 1.534.562 2.22l.95 1.82.656 1.26 4.102.326s.086-.338.19-.89c.297-1.64.788-5.179-.19-7.622-1.312-3.266-1.806-9.665-4.268-8.192-1.954 1.167-2.046 8.216-2.002 11.078z"/>
        <path fill="#000" fill-rule="nonzero" d="M131.453 116.41v.05l.657 1.26 4.102.326s.086-.338.19-.89c-1.478-.573-3.402-1.093-4.949-.746z" opacity=".1"/>
        <path fill="#E6E6F0" fill-rule="nonzero" d="M131.453 116.737v2.948l5.907 3.112s.068-.535.193-1.223c.214-1.188.595-2.83 1.121-3.035-.012 0-4.28-2.458-7.22-1.802z"/>
        <path fill="#000" fill-rule="nonzero" d="M115.465 143.515a6.958 6.958 0 0 0 5.305 1.696c10.386-1.054 10.683-4.718 10.683-4.718l1.594-3.524c-1.894-2.29-4.46-4.87-6.882-5.505a66.896 66.896 0 0 1-3.247 4.768s-7.712-5.896-10.011-.326c-1.344 3.242.654 5.929 2.558 7.61z" opacity=".05"/>
        <path fill="#000" fill-rule="nonzero" d="M131.453 118.542v1.143l5.907 3.112s.068-.535.193-1.223c-2.558-.814-5.077-2.358-6.1-3.032z" opacity=".1"/>
        <path fill="#575988" fill-rule="nonzero" d="M130.787 118.54s4.431 3.11 8.205 3.767l-7.711 17.037s-.283 3.664-10.671 4.718a6.964 6.964 0 0 1-5.306-1.696c-1.903-1.68-3.905-4.367-2.567-7.61 2.296-5.57 10.011.327 10.011.327s7.872-10.318 8.039-16.544z"/>
        <path fill="#E8EAF1" fill-rule="nonzero" d="M60.825 129.382l79.8 54.653-79.8 54.65zM220.422 129.382l-79.797 54.653 79.797 54.65z"/>
        <path fill="url(#c)" fill-rule="nonzero" d="M60.825 238.685l76.668-59.552a5.062 5.062 0 0 1 6.26 0l76.669 59.552H60.825z"/>
        <path fill="#E8EAF1" fill-rule="nonzero" d="M60.825 238.685l76.668-56.948a5.25 5.25 0 0 1 6.26 0l76.669 56.948H60.825z"/>
    </g>
</svg>
