<svg xmlns="http://www.w3.org/2000/svg" width="302" height="250" viewBox="0 0 302 250">
    <defs>
        <linearGradient id="a" x1="50.001%" x2="50.001%" y1="99.998%" y2="0%">
            <stop offset="0%" stop-color="gray" stop-opacity=".25"/>
            <stop offset="54%" stop-color="gray" stop-opacity=".12"/>
            <stop offset="100%" stop-color="gray" stop-opacity=".1"/>
        </linearGradient>
        <linearGradient id="b" x1="183421%" x2="183421%" y1="80687%" y2="19498%">
            <stop offset="0%" stop-color="gray" stop-opacity=".25"/>
            <stop offset="54%" stop-color="gray" stop-opacity=".12"/>
            <stop offset="100%" stop-color="gray" stop-opacity=".1"/>
        </linearGradient>
    </defs>
    <g fill="none" fill-rule="evenodd">
        <path fill="#DF5050" fill-rule="nonzero" d="M281.975 138.109c-11.584 18.726-9.413 44.238-4.326 64.354 1.703 6.735 3.664 13.845 2.208 21.382-1.78 9.217-8.27 16.455-14.837 20.6-11.974 7.537-25.647 7.328-35.603-.553-8.598-6.807-14.26-18.68-23.039-25.122-14.678-10.783-34.835-4.248-52.336 5.83-12.377 7.113-26 16.165-37.44 11.04-8.048-3.599-13.066-13.752-15.409-24.8-1.13-5.334-1.814-11.161-4.406-15.225-1.543-2.416-3.664-4.033-5.862-5.36-20.066-12.09-47.215-1.981-66.565-15.673-13.07-9.245-20.5-28.34-22.942-48.758-2.442-20.418-.434-42.266 2.08-63.777 1.79-15.293 4.21-31.654 12.242-44.091C24.238 4.8 37.633-1.083 49.276.166c11.642 1.248 21.752 8.62 30.465 17.63 10.89 11.261 20.712 25.643 34.807 29.276 9.6 2.475 20.084-.39 30.293-2.01 17.046-2.709 33.854-1.932 50.544-.914 15.978.974 32.052 2.185 46.94 7.803 10.534 3.98 18.62 12.262 28.45 17.65 6.41 3.51 13.639 3.957 19.61 8.639 7.355 5.767 13.72 16.414 10.775 29.872-2.808 12.802-13.039 20.059-19.185 29.997z" opacity=".05"/>
        <path stroke="#535461" stroke-width=".624" d="M207.837 95.78s31.543-26.414 38.557-39.731c7.014-13.318 15.943-24.794 15.943-24.794"/>
        <path fill="#DF5050" fill-rule="nonzero" d="M258.19 61.027l-13.645-3.074s3.22 14.382 13.645 3.074z"/>
        <path fill="#DF5050" fill-rule="nonzero" d="M237.34 46.345l7.852 11.751s-15.35 1.108-7.852-11.75zM263.558 49.981l-12.47-2.184s7.832 11.906 12.47 2.184zM245.104 39.479l6.143 8.04s-10.874 1.03-6.143-8.04zM257.537 37.878s10.618.505 11.868 1.52c1.249 1.014-1.584 6.96-5.622 5.989-4.038-.97-6.246-7.51-6.246-7.51zM253.293 28.393s4.338 7.9 4.175 9.404c-.162 1.504-6.611 3.192-7.914-2.497-1.302-5.69 3.739-6.907 3.739-6.907z"/>
        <ellipse cx="263.967" cy="33.537" fill="#FFD037" fill-rule="nonzero" rx="2.953" ry="2.951" transform="rotate(-72.474 263.967 33.537)"/>
        <ellipse cx="259.345" cy="30.501" fill="#FFD037" fill-rule="nonzero" rx="2.953" ry="2.951" transform="rotate(-72.474 259.345 30.5)"/>
        <path fill="#DF5050" fill-rule="nonzero" d="M109.45 199.323s5.063-15.05-27.03-33.193c0 0-32.585-9.498-29.253-42.113 0 0-37.564 27.503-12.146 62.537C66.44 221.59 88.38 213.942 88.38 213.942l21.07-14.62z"/>
        <path stroke="#535461" stroke-width=".624" d="M99.666 206.12s-15.659-16.913-30.668-23.451a29.892 29.892 0 0 1-8.155-5.428c-9.569-8.74-13.741-21.926-11.274-34.644l3.607-18.58"/>
        <path fill="url(#a)" fill-rule="nonzero" d="M60.609 10.362h178.205v206.782H60.609z"/>
        <path fill="#F7F7FD" fill-rule="nonzero" d="M62.686 12.768H236.74v201.963H62.686z"/>
        <path fill="#E2E2EC" fill-rule="nonzero" d="M73.198 35.534h44.001v3.502H73.198zM73.198 44.095h75.15v3.502h-75.15z"/>
        <path fill="#FFF" fill-rule="nonzero" d="M197.178 32.188h31.227v26.929h-31.227z"/>
        <path fill="#E2E2EC" fill-rule="nonzero" d="M228.24 32.344V58.96H197.32V32.344h30.919zm.312-.312h-31.543v27.24h31.543v-27.24z"/>
        <path fill="#FFF" fill-rule="nonzero" d="M165.638 32.188h31.227v26.929h-31.227z"/>
        <path fill="#E2E2EC" fill-rule="nonzero" d="M196.697 32.344V58.96h-30.919V32.344h30.919zm.312-.312h-31.543v27.24h31.543v-27.24z"/>
        <path fill="#FFF" fill-rule="nonzero" d="M197.178 59.429h31.227v26.929h-31.227z"/>
        <path fill="#E2E2EC" fill-rule="nonzero" d="M228.24 59.585v26.617H197.32V59.585h30.919zm.312-.312h-31.543v27.24h31.543v-27.24z"/>
        <path fill="#FFF" fill-rule="nonzero" d="M165.638 59.429h31.227v26.929h-31.227z"/>
        <path fill="#E2E2EC" fill-rule="nonzero" d="M196.697 59.585v26.617h-30.919V59.585h30.919zm.312-.312h-31.543v27.24h31.543v-27.24z"/>
        <path fill="#FFF" fill-rule="nonzero" d="M134.098 59.429h31.227v26.929h-31.227z"/>
        <path fill="#E2E2EC" fill-rule="nonzero" d="M165.17 59.585v26.617H134.25V59.585h30.918zm.312-.312h-31.543v27.24h31.543v-27.24z"/>
        <path fill="#FFF" fill-rule="nonzero" d="M102.558 59.429h31.227v26.929h-31.227z"/>
        <path fill="#E2E2EC" fill-rule="nonzero" d="M133.63 59.585v26.617H102.71V59.585h30.919zm.312-.312h-31.543v27.24h31.543v-27.24z"/>
        <path fill="#FFF" fill-rule="nonzero" d="M71.018 59.429h31.227v26.929H71.018z"/>
        <path fill="#E2E2EC" fill-rule="nonzero" d="M102.09 59.585v26.617H71.17V59.585h30.919zm.312-.312H70.859v27.24h31.543v-27.24z"/>
        <path fill="#FFF" fill-rule="nonzero" d="M197.178 86.667h31.227v26.929h-31.227z"/>
        <path fill="#E2E2EC" fill-rule="nonzero" d="M228.24 86.826v26.617H197.32V86.826h30.919zm.312-.312h-31.543v27.24h31.543v-27.24z"/>
        <path fill="#FFF" fill-rule="nonzero" d="M165.638 86.667h31.227v26.929h-31.227z"/>
        <path fill="#E2E2EC" fill-rule="nonzero" d="M196.697 86.826v26.617h-30.919V86.826h30.919zm.312-.312h-31.543v27.24h31.543v-27.24z"/>
        <path fill="#FFF" fill-rule="nonzero" d="M134.098 86.667h31.227v26.929h-31.227z"/>
        <path fill="#E2E2EC" fill-rule="nonzero" d="M165.17 86.826v26.617H134.25V86.826h30.918zm.312-.312h-31.543v27.24h31.543v-27.24z"/>
        <path fill="#FFF" fill-rule="nonzero" d="M102.558 86.667h31.227v26.929h-31.227z"/>
        <path fill="#E2E2EC" fill-rule="nonzero" d="M133.63 86.826v26.617H102.71V86.826h30.919zm.312-.312h-31.543v27.24h31.543v-27.24z"/>
        <path fill="#FFF" fill-rule="nonzero" d="M71.018 86.667h31.227v26.929H71.018z"/>
        <path fill="#E2E2EC" fill-rule="nonzero" d="M102.09 86.826v26.617H71.17V86.826h30.919zm.312-.312H70.859v27.24h31.543v-27.24z"/>
        <path fill="#FFF" fill-rule="nonzero" d="M197.178 113.908h31.227v26.929h-31.227z"/>
        <path fill="#E2E2EC" fill-rule="nonzero" d="M228.24 114.064v26.616H197.32v-26.616h30.919zm.312-.312h-31.543v27.24h31.543v-27.24z"/>
        <path fill="#FFF" fill-rule="nonzero" d="M165.638 113.908h31.227v26.929h-31.227z"/>
        <path fill="#E2E2EC" fill-rule="nonzero" d="M196.697 114.064v26.616h-30.919v-26.616h30.919zm.312-.312h-31.543v27.24h31.543v-27.24z"/>
        <path fill="#FFF" fill-rule="nonzero" d="M134.098 113.908h31.227v26.929h-31.227z"/>
        <path fill="#E2E2EC" fill-rule="nonzero" d="M165.17 114.064v26.616H134.25v-26.616h30.918zm.312-.312h-31.543v27.24h31.543v-27.24z"/>
        <path fill="#FFF" fill-rule="nonzero" d="M102.558 113.908h31.227v26.929h-31.227z"/>
        <path fill="#E2E2EC" fill-rule="nonzero" d="M133.63 114.064v26.616H102.71v-26.616h30.919zm.312-.312h-31.543v27.24h31.543v-27.24z"/>
        <path fill="#FFF" fill-rule="nonzero" d="M71.018 113.908h31.227v26.929H71.018z"/>
        <path fill="#E2E2EC" fill-rule="nonzero" d="M102.09 114.064v26.616H71.17v-26.616h30.919zm.312-.312H70.859v27.24h31.543v-27.24z"/>
        <path fill="#FFF" fill-rule="nonzero" d="M197.178 141.145h31.227v26.929h-31.227z"/>
        <path fill="#E2E2EC" fill-rule="nonzero" d="M228.24 141.305v26.613H197.32v-26.613h30.919zm.312-.312h-31.543v27.237h31.543v-27.237z"/>
        <path fill="#FFF" fill-rule="nonzero" d="M165.638 141.145h31.227v26.929h-31.227z"/>
        <path fill="#E2E2EC" fill-rule="nonzero" d="M196.697 141.305v26.613h-30.919v-26.613h30.919zm.312-.312h-31.543v27.237h31.543v-27.237z"/>
        <path fill="#FFF" fill-rule="nonzero" d="M134.098 141.145h31.227v26.929h-31.227z"/>
        <path fill="#E2E2EC" fill-rule="nonzero" d="M165.17 141.305v26.613H134.25v-26.613h30.918zm.312-.312h-31.543v27.237h31.543v-27.237z"/>
        <path fill="#FFF" fill-rule="nonzero" d="M102.558 141.145h31.227v26.929h-31.227z"/>
        <path fill="#E2E2EC" fill-rule="nonzero" d="M133.63 141.305v26.613H102.71v-26.613h30.919zm.312-.312h-31.543v27.237h31.543v-27.237z"/>
        <path fill="#FFF" fill-rule="nonzero" d="M71.018 141.145h31.227v26.929H71.018z"/>
        <path fill="#E2E2EC" fill-rule="nonzero" d="M102.09 141.305v26.613H71.17v-26.613h30.919zm.312-.312H70.859v27.237h31.543v-27.237z"/>
        <path fill="#FFF" fill-rule="nonzero" d="M197.178 168.386h31.227v26.929h-31.227z"/>
        <path fill="#E2E2EC" fill-rule="nonzero" d="M228.24 168.542v26.617H197.32v-26.617h30.919zm.312-.312h-31.543v27.241h31.543v-27.24z"/>
        <path fill="#FFF" fill-rule="nonzero" d="M165.638 168.386h31.227v26.929h-31.227z"/>
        <path fill="#E2E2EC" fill-rule="nonzero" d="M196.697 168.542v26.617h-30.919v-26.617h30.919zm.312-.312h-31.543v27.241h31.543v-27.24z"/>
        <path fill="#FFF" fill-rule="nonzero" d="M134.098 168.386h31.227v26.929h-31.227z"/>
        <path fill="#E2E2EC" fill-rule="nonzero" d="M165.17 168.542v26.617H134.25v-26.617h30.918zm.312-.312h-31.543v27.241h31.543v-27.24z"/>
        <path fill="#FFF" fill-rule="nonzero" d="M102.558 168.386h31.227v26.929h-31.227z"/>
        <path fill="#E2E2EC" fill-rule="nonzero" d="M133.63 168.542v26.617H102.71v-26.617h30.919zm.312-.312h-31.543v27.241h31.543v-27.24z"/>
        <path fill="#FFF" fill-rule="nonzero" d="M71.018 168.386h31.227v26.929H71.018z"/>
        <path fill="#E2E2EC" fill-rule="nonzero" d="M102.09 168.542v26.617H71.17v-26.617h30.919zm.312-.312H70.859v27.241h31.543v-27.24z"/>
        <path fill="#DF5050" fill-rule="nonzero" d="M136.609 220.003c.893-.677 1.733-1.476 1.992-2.45a2.072 2.072 0 0 0-1.392-2.497c-1.278-.4-2.643.312-3.68 1.052-1.036.74-2.22 1.56-3.575 1.408 1.402-1.015 2.07-2.66 1.683-4.155a1.61 1.61 0 0 0-.468-.842c-.71-.624-1.996-.353-2.846.134-2.701 1.56-3.454 4.541-3.47 7.235-.271-.971-.043-1.982-.05-2.981-.005-.999-.34-2.1-1.37-2.637a4.909 4.909 0 0 0-2.093-.403c-1.215-.037-2.567.062-3.394.787-1.031.898-.763 2.409.134 3.398.896.99 2.26 1.61 3.513 2.294.956.522 1.924 1.13 2.499 1.954.075.11.138.227.187.35h7.611a21.887 21.887 0 0 0 4.719-2.647z"/>
        <ellipse cx="75.138" cy="63.524" fill="#FC6681" fill-rule="nonzero" rx="1.78" ry="1.779"/>
        <ellipse cx="79.585" cy="63.524" fill="#FFD037" fill-rule="nonzero" rx="1.78" ry="1.779"/>
        <ellipse cx="137.999" cy="89.897" fill="#DF5050" fill-rule="nonzero" rx="1.78" ry="1.779"/>
        <ellipse cx="142.449" cy="89.897" fill="#DF5050" fill-rule="nonzero" rx="1.78" ry="1.779"/>
        <ellipse cx="233.18" cy="140.865" fill="#DF5050" fill-rule="nonzero" rx="1.78" ry="1.779"/>
        <ellipse cx="234.07" cy="138.792" fill="#DF5050" fill-rule="nonzero" rx="1.78" ry="1.779"/>
        <ellipse cx="234.96" cy="137.013" fill="#DF5050" fill-rule="nonzero" rx="1.78" ry="1.779"/>
        <ellipse cx="201.75" cy="63.524" fill="#DF5050" fill-rule="nonzero" rx="1.78" ry="1.779"/>
        <ellipse cx="206.197" cy="63.524" fill="#DF5050" fill-rule="nonzero" rx="1.78" ry="1.779"/>
        <ellipse cx="210.647" cy="63.524" fill="#DF5050" fill-rule="nonzero" rx="1.78" ry="1.779"/>
        <ellipse cx="215.095" cy="63.524" fill="#DF5050" fill-rule="nonzero" rx="1.78" ry="1.779"/>
        <ellipse cx="201.75" cy="118.639" fill="#DF5050" fill-rule="nonzero" rx="1.78" ry="1.779"/>
        <ellipse cx="206.197" cy="118.639" fill="#DF5050" fill-rule="nonzero" rx="1.78" ry="1.779"/>
        <ellipse cx="210.647" cy="118.639" fill="#DF5050" fill-rule="nonzero" rx="1.78" ry="1.779"/>
        <ellipse cx="215.095" cy="118.639" fill="#DF5050" fill-rule="nonzero" rx="1.78" ry="1.779"/>
        <ellipse cx="106.568" cy="89.897" fill="#FFD037" fill-rule="nonzero" rx="1.78" ry="1.779"/>
        <ellipse cx="75.138" cy="116.863" fill="#FC6681" fill-rule="nonzero" rx="1.78" ry="1.779"/>
        <path fill="url(#b)" fill-rule="nonzero" d="M231.644 145.328c1.952 1.151 4.997 1.9 8.854-.575l-.038 5.481c.275 3.745 4.925 17.45 4.925 17.45l3.28 11.267a88.11 88.11 0 0 1 3.603 24.51c0 2.75.256 5.584 1.047 7.716 1.745 4.716-.687 10.792-1.743 13.055a54.893 54.893 0 0 1-5.412 1.523 3.7 3.7 0 0 0-.484.147l-.022-.031s-4.922 1.95-7.108 1.682c-1.63-.2-2.652 1.832-1.375 3.327-1.205.312-2.442.534-3.276.43-2.186-.268-3.282 3.49.822 4.564 4.103 1.074 27.355 0 27.355 0a3.295 3.295 0 0 0 1.749-3.64c1.786-.068 2.9-.121 2.9-.121s4.105-1.873 0-6.982l-.218.166-.877-2.582v-3.486s5.196-24.969 3.557-27.921c-1.64-2.953-2.461-17.987-2.461-17.987l.556-16.377c1.483-3.058 2.242-7.852 2.626-11.6.558-1.789.91-3.635 1.05-5.503.065-.88.118-1.804.153-2.762.014-2.102-.33-4.19-1.018-6.177 1.561-2.247 4.1-5.721 6.196-7.775 3.282-3.22 2.46-6.982 2.46-6.982l-1.367-9.129-3.283-15.57c.413-4.32-.49-6.808-1.486-8.213.237-1.395.459-2.79.624-4.191a53.61 53.61 0 0 0-.958-18.252c-.475-2.088-1.121-4.23-2.586-5.812-1.659-1.791-4.35-2.884-4.969-5.23-.153-.584-.16-1.206-.381-1.767-.6-1.536-2.498-2.095-4.16-2.294-2.96-.36-7.242-.625-10.087.53-1.987.812-4.722 3.046-5.81 5.443-.624 1.102-.914 2.26-.649 3.35.105.4.263.786.472 1.145a10.294 10.294 0 0 0-.637 3.586 10.475 10.475 0 0 0 6.69 9.716c.065.206.124.409.174.609.124.48.214.97.269 1.463-.053.937-.113 1.901-.156 2.853a10.5 10.5 0 0 1-.1.387 70.404 70.404 0 0 0-6.871 3.502c1.643 2.416-.275 12.619-.275 12.619-4.104 2.415-8.207 8.592-3.829 15.034 4.379 6.442 1.915 13.42 1.915 13.42l-.684 10.497v.019l-.138 2.1h.053l-.053.796.119.022v.855c-1.92.705-4.728 2.129-6.402 4.76a16.797 16.797 0 0 1-2.864 3.51 2.11 2.11 0 0 0 .328 3.425zm33.03-27.89a9.982 9.982 0 0 1 .97-5.281c.644.012 1.288.02 1.934.022.065.452.143.883.237 1.276.556 2.366-1.665 3.499-3.145 3.98l.003.003z"/>
        <path fill="#DB8B8B" fill-rule="nonzero" d="M265.213 221.492l1.053 3.155-3.435 3.434-11.318 2.63-8.161-.789.528-2.893a3.49 3.49 0 0 1 2.592-2.55c3.354-.787 9.75-2.584 11.093-5.078l7.648 2.09z"/>
        <path fill="#000" fill-rule="nonzero" d="M265.213 221.492l1.053 3.155-3.435 3.434-11.318 2.63-8.161-.789.528-2.893a3.49 3.49 0 0 1 2.592-2.55c3.354-.787 9.75-2.584 11.093-5.078l7.648 2.09z" opacity=".1"/>
        <path fill="#2E3037" fill-rule="nonzero" d="M245.997 229.12l1.58-2.104-1.58-2.437s-4.737 1.91-6.842 1.648c-2.105-.263-3.158 3.433.79 4.472 3.947 1.04 26.32 0 26.32 0s3.948-1.841 0-6.838l-3.434 2.63s-5.79 3.156-8.686 2.632l-8.148-.003z"/>
        <path fill="#DB8B8B" fill-rule="nonzero" d="M238.89 233.586l8.16.79 11.318-2.631 3.435-3.434-.278-.836-.393-1.174-.394-1.142-7.633-2.103a4.727 4.727 0 0 1-1.561 1.56c-2.48 1.695-6.933 2.918-9.547 3.53a2.74 2.74 0 0 0-.313.097 3.478 3.478 0 0 0-2.267 2.453l-.528 2.89z"/>
        <path fill="#000" fill-rule="nonzero" d="M238.89 233.586l8.16.79 11.318-2.631 3.435-3.434-.278-.836-3.142 2.416s-5.79 3.155-8.685 2.63h-8.176l1.58-2.103-1.418-2.185a3.478 3.478 0 0 0-2.267 2.454l-.528 2.9z" opacity=".1"/>
        <path fill="#2E3037" fill-rule="nonzero" d="M241.522 232.803l1.58-2.104-1.58-2.437s-4.738 1.91-6.843 1.647c-2.105-.262-3.157 3.434.79 4.473 3.948 1.04 26.322 0 26.322 0s3.947-1.841 0-6.838l-3.436 2.63s-5.79 3.156-8.685 2.632l-8.148-.003z"/>
        <path fill="#DB8B8B" fill-rule="nonzero" d="M248.102 80.234s12.636 1.314 10.794-3.945a9.464 9.464 0 0 1-.39-4.644 12.87 12.87 0 0 1 2.232-5.35l-11.846 1.842a14.82 14.82 0 0 1 1.606 3.801c1.411 5.578-2.396 8.296-2.396 8.296z"/>
        <path fill="#474463" fill-rule="nonzero" d="M269.686 140.21s-.263 11.31-2.895 16.834l-.528 16.046s.79 14.731 2.37 17.625c1.58 2.893-3.435 27.356-3.435 27.356v4.21s-8.432 3.156-10.793-.527l2.37-31.305-1.053-43.402 13.964-6.838z"/>
        <path fill="#000" fill-rule="nonzero" d="M269.686 140.21s-.263 11.31-2.895 16.834l-.528 16.046s.79 14.731 2.37 17.625c1.58 2.893-3.435 27.356-3.435 27.356v4.21s-8.432 3.156-10.793-.527l2.37-31.305-1.053-43.402 13.964-6.838z" opacity=".1"/>
        <path fill="#FC6681" fill-rule="nonzero" d="M274.951 103.908l1.58 4.21 1.315 8.945a7.909 7.909 0 0 1-2.37 6.838c-3.158 3.156-7.37 9.732-7.37 9.732l-4.997-14.981s4.996-.79 4.213-4.21c-.784-3.421-.531-9.757-.531-9.757l8.16-.777z"/>
        <path fill="#000" fill-rule="nonzero" d="M274.951 103.908l1.58 4.21 1.315 8.945a7.909 7.909 0 0 1-2.37 6.838c-3.158 3.156-7.37 9.732-7.37 9.732l-4.997-14.981s4.996-.79 4.213-4.21c-.784-3.421-.531-9.757-.531-9.757l8.16-.777z" opacity=".05"/>
        <path fill="#000" fill-rule="nonzero" d="M251.556 224.62c3.376 5.305 8.632 2.3 9.563 1.7l-.38-1.16-7.634-2.104a4.727 4.727 0 0 1-1.549 1.563z" opacity=".1"/>
        <path fill="#474463" fill-rule="nonzero" d="M240.997 150.468c.263 3.683 4.738 17.098 4.738 17.098l3.157 11.039a87.789 87.789 0 0 1 3.47 24.014c0 2.693.247 5.47 1.009 7.559 2.105 5.786-2.105 13.68-2.105 13.68 3.685 6.576 9.994 2.103 9.994 2.103v-4.207s4.997-22.887 3.685-27.356c-1.312-4.47-1.843-16.573-1.843-16.573v-21.848a24.769 24.769 0 0 0 7.224-15.705 75.78 75.78 0 0 0 .147-2.706c.212-5.93-3.848-12.894-5.434-15.372-.381-.6-.625-.936-.625-.936l-23.242 9.213-.053.022v2.887l-.122 17.088z"/>
        <path fill="#000" fill-rule="nonzero" d="M248.892 68.134a14.82 14.82 0 0 1 1.606 3.801c2.6.986 5.487.88 8.007-.293a12.87 12.87 0 0 1 2.233-5.347l-11.846 1.839z" opacity=".1"/>
        <ellipse cx="254.158" cy="61.816" fill="#DB8B8B" fill-rule="nonzero" rx="10.266" ry="10.259"/>
        <path fill="#000" fill-rule="nonzero" d="M240.997 133.37l.113.023c11.037 2.269 24.894-9.23 24.894-9.23a13.63 13.63 0 0 1-.96-1.956c-.38-.6-.624-.937-.624-.937l-23.242 9.214-.059.92-.122 1.967z" opacity=".1"/>
        <path fill="#FC6681" fill-rule="nonzero" d="M243.892 79.969s14.741-8.945 19.479-5.262l6.58 8.427s4.213 1.314 3.436 9.731l3.144 15.253-9.475 2.369s-5.528 5.262-1.052 12.89c0 0-13.951 11.573-25.007 9.207l.79-12.362s2.37-6.839-1.842-13.153c-4.213-6.314-.263-12.362 3.685-14.731 0-.003 1.84-10 .262-12.37z"/>
        <path fill="#DB8B8B" fill-rule="nonzero" d="M243.102 133.633s-5.528 1.052-8.16 5.262a16.397 16.397 0 0 1-2.755 3.433 2.087 2.087 0 0 0 .312 3.327c2.09 1.249 5.497 2.026 9.8-1.507 7.383-6.043.803-10.515.803-10.515z"/>
        <path fill="#000" fill-rule="nonzero" d="M251.263 84.969s5.265-.528 6.58 13.152c1.315 13.68 3.435 16.835 3.435 16.835s1.315 7.104-1.842 11.311c-3.158 4.207-9.213 13.152-9.213 13.152s-6.58 1.842-7.895-4.734l8.16-15.256s1.315-5.262-1.842-8.945c-3.158-3.683-5.544-28.146 2.617-25.515z" opacity=".1"/>
        <path fill="#FC6681" fill-rule="nonzero" d="M250.726 84.18s5.265-.528 6.58 13.151c1.315 13.68 3.435 16.836 3.435 16.836s1.315 7.103-1.842 11.31c-3.158 4.208-9.213 13.153-9.213 13.153s-6.58 1.841-7.895-4.735l8.16-15.256s1.315-5.262-1.843-8.945c-3.157-3.683-5.534-28.146 2.618-25.515z"/>
        <path fill="#000" fill-rule="nonzero" d="M246.39 94.042s-.524 8.146 1.837 12.628c2.361 4.482 2.37 10.259 0 13.42M245.076 84.048s2.105-2.104 8.16-2.369c6.056-.265 8.686-2.103 8.686-2.103" opacity=".1"/>
        <path fill="#000" fill-rule="nonzero" d="M259.717 48.561c1.599.197 3.435.746 4.004 2.247.212.553.218 1.161.365 1.733.597 2.297 3.186 3.367 4.781 5.124 1.409 1.561 2.03 3.649 2.499 5.693a53.463 53.463 0 0 1 .937 17.872c-.512 4.37-1.562 8.658-1.855 13.04-.294 4.382.243 8.992 2.639 12.674 1.03 1.583 2.392 2.975 3.123 4.716-1.509 1.224-3.592 1.399-5.537 1.464a99.916 99.916 0 0 1-6.793 0c-1.187-.04-2.427-.118-3.451-.718a5.326 5.326 0 0 1-1.811-1.944c-1.297-2.185-1.621-4.838-1.562-7.385.06-2.546.46-5.08.506-7.63.025-1.39-.084-2.866-.884-4.002-.578-.82-1.455-1.373-2.205-2.038-2.81-2.497-3.785-6.498-3.879-10.26-.093-3.76.528-7.527.21-11.276-.125-1.467-.675-3.23-2.118-3.514-.456-.09-.937 0-1.374-.175-1.159-.446-1.046-2.078-1.377-3.274-.372-1.342-1.518-2.378-1.84-3.745-.759-3.184 3.295-6.982 5.953-8.09 2.701-1.13 6.82-.861 9.669-.512z" opacity=".1"/>
        <path fill="#472727" fill-rule="nonzero" d="M259.98 48.037c1.598.196 3.435.746 4.003 2.247.212.552.219 1.161.365 1.732.597 2.297 3.186 3.368 4.782 5.125 1.408 1.56 2.03 3.649 2.498 5.693a53.463 53.463 0 0 1 .937 17.871c-.512 4.37-1.561 8.658-1.855 13.04-.294 4.382.244 8.992 2.639 12.675 1.03 1.582 2.392 2.975 3.123 4.716-1.508 1.224-3.591 1.398-5.537 1.464a99.916 99.916 0 0 1-6.793 0c-1.187-.04-2.426-.119-3.45-.718a5.326 5.326 0 0 1-1.812-1.944c-1.296-2.185-1.621-4.838-1.562-7.385.06-2.547.46-5.081.506-7.631.025-1.389-.084-2.865-.884-4.001-.577-.821-1.455-1.374-2.204-2.038-2.811-2.497-3.786-6.498-3.88-10.26-.093-3.76.529-7.527.21-11.276-.125-1.467-.675-3.23-2.117-3.514-.456-.09-.937 0-1.375-.175-1.158-.446-1.046-2.079-1.377-3.274-.371-1.342-1.518-2.378-1.84-3.745-.758-3.184 3.295-6.982 5.953-8.09 2.702-1.133 6.821-.865 9.67-.512z"/>
    </g>
</svg>
