<svg xmlns="http://www.w3.org/2000/svg" width="330" height="250" viewBox="0 0 330 250">
    <defs>
        <linearGradient id="a" x1=".006%" x2="99.948%" y1="50.008%" y2="50.008%">
            <stop offset="0%" stop-color="gray" stop-opacity=".25"/>
            <stop offset="54%" stop-color="gray" stop-opacity=".12"/>
            <stop offset="100%" stop-color="gray" stop-opacity=".1"/>
        </linearGradient>
        <linearGradient id="b" x1="63683%" x2="63683%" y1="74055%" y2="20480%">
            <stop offset="0%" stop-color="gray" stop-opacity=".25"/>
            <stop offset="54%" stop-color="gray" stop-opacity=".12"/>
            <stop offset="100%" stop-color="gray" stop-opacity=".1"/>
        </linearGradient>
    </defs>
    <g fill="none" fill-rule="evenodd">
        <ellipse cx="177.733" cy="215.655" fill="#F5F5F5" fill-rule="nonzero" rx="120.187" ry="34.294"/>
        <path fill="#DF5050" fill-rule="nonzero" d="M292.083 82.25s-21.29 21.262-9.272 52.812c12.019 31.55-20.604 84.019-20.604 84.019s.344-.052 1-.165c43.727-7.709 65.454-57.654 41.138-94.756-9.028-13.793-16.462-29.976-12.262-41.91z"/>
        <path stroke="#535461" stroke-width=".687" d="M292.083 82.25s-12.02 26.063 0 47.325c12.018 21.262 2.06 80.933-29.876 89.506"/>
        <path fill="#DF5050" fill-rule="nonzero" d="M330 168.248s-24.295-3.865-26.51 17.88c-2.215 21.746-46.701 24.757-46.701 24.757s.288.199.834.555c36.743 24.088 71.869 15.343 66.577-16.642-1.981-11.89-1.823-23.834 5.8-26.55z"/>
        <path fill="#F5F5F5" fill-rule="nonzero" d="M330 168.248s-24.295-3.865-26.51 17.88c-2.215 21.746-46.701 24.757-46.701 24.757s.288.199.834.555c36.743 24.088 71.869 15.343 66.577-16.642-1.981-11.89-1.823-23.834 5.8-26.55z" opacity=".2"/>
        <path stroke="#535461" stroke-width=".687" d="M330 168.248s-18.86 4.135-17.31 21.262c1.548 17.126-28.018 37.647-55.915 21.368"/>
        <path fill="#DF5050" fill-rule="nonzero" d="M52.333.37c-2.768-.096-5.604 0-8.2.967-7.064 2.63-10.412 11.235-9.323 18.687 1.088 7.452 5.566 13.923 10.212 19.853 4.646 5.929 9.68 11.783 12.228 18.861 1.27 3.536 1.865 7.497.574 11.025-1.992 5.443-7.998 8.485-13.763 9.116-5.766.63-11.555-.6-17.342-1.03-2.427-.17-4.924-.191-7.21.604-2.511.868-4.602 2.638-6.525 4.483C5.48 90.17-.526 100.048.446 110.418c1.1 11.756 10.9 21.05 21.634 26.033 3.554 1.653 7.314 2.99 10.443 5.35 8.241 6.22 10.092 17.877 9.271 28.168-.82 10.292-3.616 20.593-2.06 30.796 1.83 11.865 9.93 22.582 20.858 27.589 9.735 4.458 21.918 4.18 30.561-2.126 4.214-3.087 7.4-7.343 10.172-11.756a101.405 101.405 0 0 0 10.113-21.221c1.205-3.536 2.338-7.339 5.15-9.798 1.718-1.512 3.943-2.359 6.144-3.017 6.634-1.983 13.622-2.528 20.318-4.29 6.697-1.763 13.434-5.049 17.074-10.923 5.15-8.337 2.747-18.999 2.771-28.807.041-22.345 13.43-42.352 18.371-64.129 1.614-7.119 2.215-14.996-1.39-21.344-2.452-4.331-6.583-7.418-10.927-9.818-9.546-5.295-20.397-7.651-31.074-9.945-14.838-3.183-32.855-3.594-44.356-13.89C82.483 7.415 67.384.37 52.333.37z" opacity=".05"/>
        <path fill="url(#a)" fill-rule="nonzero" d="M70.1 76.231a51.57 51.57 0 0 0-2.503-15.864l-4.12-12.76v-.632c.126-8.179-6.258-12.26-8.716-11.817-2.517.452-9.502-3.046-9.502-3.046v.097c-.479-.551-.91-1.14-1.291-1.763a11.176 11.176 0 0 0 2.304-15.837 4.915 4.915 0 0 0 1.659-2.222c.57-1.602.134-3.43-.794-4.856a9.413 9.413 0 0 0-1.373-1.636 17.385 17.385 0 0 0-2.562-2.092C40.912 2.22 38.395.857 35.648.373a3.15 3.15 0 0 0-1.446 0 5.995 5.995 0 0 0-1.171.632c-1.882 1.07-4.224.607-6.394.494-2.17-.114-4.808.493-5.494 2.527-.213.628-.2 1.307-.344 1.951-.343 1.578-1.562 2.802-2.503 4.116-.941 1.313-1.645 3.086-.862 4.513.268.48.687.922.687 1.47 0 .395-.234.748-.344 1.126-.237.857.21 1.714.897 2.335.296.319.644.584 1.03.785 1.088.556 2.342.727 3.45 1.242a5.67 5.67 0 0 1 1.505 1.029 5.901 5.901 0 0 1 1.635 4.262l.23.024v.203c.24.027.494.051.745.061.36.582.773 1.13 1.233 1.636-.078.293-.166.59-.265.892-.807.559-7.407 4.948-14.913 3.892C5.312 32.435.73 67.414.73 67.414c-.297 2-.441 4.02-.432 6.043C.264 78.6 1.346 85.333 7.373 84.342l3.203-1.053v17.3s.457 4.74-1.143 7.888c-1.6 3.149 5.038 2.03 5.038 2.03s.254.265.72.714l-.147.415.196.199a45.333 45.333 0 0 1-3.513 8.604l.189.096c-.12.23-.19.343-.19.343s2.466 1.258 5.86 2.88c2.726 9.205 8.694 30.522 6.73 34.582l.055.117c.367.761 2.42 5.25 2.005 9.362-.374 3.676 4.722 20.38 6.624 26.447l-.9.182 3.204 11.509-.687 7.448s-3.89 10.381 5.265 8.35c9.154-2.03 6.637-10.38 6.637-10.38l.23-16.927s-.882-.49-1.97-.96c-.75-2.02-2.38-6.794-2.38-10.096 0-4.287-2.978-22.795-2.978-22.795V160.467l-.017-.248v-.04c0-.23-.038-.546-.065-.93v-.02c-.343-5.004-1.374-22.003-.622-30.865.662-.45 1.35-.86 2.06-1.228 2.23 5.625 7.974 20.82 7.607 27.195-.457 7.888-.113 1.694 0 .686.034-.312.058.065.069.912V159.266c0 .686 0 1.447-.024 2.24v.48c0 .483 0 .977-.024 1.478 0 .686-.028 1.35-.042 2.04a302.045 302.045 0 0 1-.134 4.565c0 .162-.005.323-.017.483-.011.32-.024.633-.037.94l-.042.898c-.013.29-.028.573-.044.847-.018.323-.038.631-.055.926l-1.243-.178-.265 2.853c-.416 4.53.17 9.096 1.717 13.375.426 1.172.756 2.143.828 2.49.23 1.128 0 9.259 0 9.259s1.373 10.607 7.784 8.573c2.885-.916 4.286-3.7 4.956-6.492a16.077 16.077 0 0 0-.794-9.695c-.91-2.284-1.84-5.487-1.184-7.963 1.143-4.286 1.143-10.38 1.143-10.38l-.707-.1c.176-.334.335-.678.477-1.028 0 0-.23-15.573 1.83-17.603 1.134-1.118 1.03-3.803.687-5.998-.49-3.177-.606-6.4-.343-9.602.14-1.65.343-3.087.58-3.598.604-1.193 1.209-13.223-1.466-19.012l.55-.172-.087-.425.086-.027c.404 1.075.862 2.13 1.374 3.158.135.106.29.183.457.226 7.413-1.3 7.712-8.21 7.3-11.982.313.151.484.247.484.247l.687-9.945c.704-1.588.965-3.615.948-5.806.03-7.833-3.733-18.107-3.733-18.107zM61.927 104.5c-.508-4.331-1.212-8.408-1.212-8.408l-3.434-12.188v-4.438l5.446 20.302-.8 4.732z" opacity=".5" transform="translate(36.056 10.631)"/>
        <path fill="#5A5773" fill-rule="nonzero" d="M82.545 181.704l-.254 2.788a30.645 30.645 0 0 0 1.665 13.083c.409 1.15.728 2.096.797 2.435.22 1.105 0 9.043 0 9.043s1.325 10.367 7.51 8.382c2.781-.892 4.12-3.618 4.78-6.344a15.906 15.906 0 0 0-.77-9.472c-.879-2.233-1.778-5.37-1.143-7.782 1.106-4.19 1.106-10.144 1.106-10.144l-13.691-1.989z"/>
        <path fill="#605D82" fill-rule="nonzero" d="M75.92 133.844s8.613 20.954 8.17 28.67c-.443 7.716-.11 1.653 0 .662.196-1.767 0 19.204-.663 21.605 0 0 9.055 6.615 12.589-2.206 0 0-.22-15.216 1.765-17.201 1.092-1.09.985-3.718.663-5.861a40.567 40.567 0 0 1-.344-9.372c.134-1.612.32-3.032.56-3.515.663-1.324 1.326-16.32-2.65-20.511l-20.09 7.73z"/>
        <path fill="#000" fill-rule="nonzero" d="M84.533 184.79c.663-2.424.858-23.38.663-21.604-.11.991-.443 7.057 0-.662.443-7.72-8.17-28.67-8.17-28.67l19.268-7.4a5.113 5.113 0 0 0-.275-.319l-20.095 7.72s8.612 20.953 8.17 28.669c-.444 7.716-.11 1.653 0 .662.195-1.766 0 19.204-.663 21.605 0 0 3.616 2.64 7.17 2.36-3.163-.237-6.068-2.36-6.068-2.36z" opacity=".1"/>
        <path fill="#5A5773" fill-rule="nonzero" d="M68.41 201.773l3.091 11.248-.663 7.277s-3.753 10.144 5.08 8.159c8.831-1.986 6.403-10.144 6.403-10.144l.22-16.54s-3.533-1.986-5.079-1.763c-1.545.223-9.051 1.763-9.051 1.763z"/>
        <path fill="#605D82" fill-rule="nonzero" d="M53.174 128.553s10.158 32.86 7.73 37.932c0 0 2.428 4.852 1.988 9.26-.44 4.406 7.067 28.007 7.067 28.007l11.044-1.986s-2.651-6.615-2.651-10.806c0-4.19-2.87-22.29-2.87-22.29s-2.429-33.084.442-36.612l-22.75-3.505z"/>
        <g fill="#000" fill-rule="nonzero" opacity=".1">
            <path d="M75.066 134.746c-1.83 7.49.192 35.052.192 35.052s2.87 18.083 2.87 22.29c0 3.2 1.542 7.81 2.274 9.812l.597-.106s-2.65-6.616-2.65-10.806c0-4.191-2.871-22.291-2.871-22.291s-1.848-25.189-.412-33.95zM75.423 133.141c.1-.38.269-.74.498-1.06l-22.747-3.528s.134.428.364 1.193l21.885 3.395z"/>
        </g>
        <path fill="#A1616A" fill-rule="nonzero" d="M106.173 116.643s3.314 12.345-6.624 14.115a1.21 1.21 0 0 1-.443-.22s-5.741-11.248-1.325-15.658l8.392 1.763z"/>
        <path fill="#F5F5F5" fill-rule="nonzero" d="M65.54 34.61s.663 9.258-6.624 13.672c-7.287 4.413 15.452 16.54 15.452 16.54l11.926-18.968s-5.075.655-8.165-8.159l-12.59-3.086z"/>
        <path fill="#000" fill-rule="nonzero" d="M60.68 48.937s11.264 23.378 21.422 1.324l15.679 77.627s-24.295 7.5-24.511 11.028c-.217 3.53-24.508-9.04-24.508-9.04s5.298-9.705 3.976-15.658c-1.322-5.953 7.943-65.281 7.943-65.281z" opacity=".1"/>
        <path fill="#E1E7EF" fill-rule="nonzero" d="M60.68 48.495s11.264 23.377 21.422 1.323l15.679 77.63s-24.295 7.5-24.511 11.03c-.217 3.528-24.508-9.044-24.508-9.044s5.298-9.705 3.976-15.658c-1.322-5.954 7.943-65.281 7.943-65.281z"/>
        <path fill="#5A5773" fill-rule="nonzero" d="M71.724 207.95s-2.87-6.397 3.754-6.397c6.624 0 5.521 5.734 5.521 5.734l-9.275.662zM86.74 191.406s-2.65-6.838 3.977-7.058c6.628-.22 3.314 6.173 3.314 6.173l-7.29.885z"/>
        <path fill="#000" fill-rule="nonzero" d="M81.11 43.525s6.733 3.43 9.164 2.977c2.432-.453 8.832 3.748 8.393 12.13l3.99 12.503a51 51 0 0 1 2.404 15.504s5.741 15.878 2.65 22.936l-.662 9.705s-5.079-2.867-10.38-1.986l1.335-7.925-5.975-22.5-9.938-24.04-.982-19.304z" opacity=".1"/>
        <path fill="#67647E" fill-rule="nonzero" d="M81.11 43.09s6.733 3.43 9.164 2.977c2.432-.453 8.832 3.748 8.393 12.13l3.99 12.503a51 51 0 0 1 2.404 15.504s5.741 15.878 2.65 22.935l-.662 9.705s-5.079-2.867-10.38-1.985l1.325-7.94-5.965-22.492-9.927-24.04-.993-19.297z"/>
        <path fill="#000" fill-rule="nonzero" d="M92.263 69.887v24.921l3.313 11.91s2.208 13.011 1.546 16.982c-.663 3.971-11.264 4.853-14.134 1.543-2.871-3.309-1.326-31.55-1.326-31.55l-.553-41.34.443-1.324 10.71 18.858z" opacity=".1"/>
        <path fill="#67647E" fill-rule="nonzero" d="M92.716 68.786v24.921l3.314 11.91s2.208 13.011 1.545 16.982c-.663 3.972-11.263 4.853-14.134 1.544-2.87-3.31-1.326-31.55-1.326-31.55l-.552-41.352 11.153 17.545z"/>
        <path fill="#000" fill-rule="nonzero" d="M48.205 89.516l7.067 21.948-3.313 9.373s15.679 16.54 25.617 8.6c0 0 1.105-33.744-1.106-41.683-2.211-7.94-12.809-34.637-12.809-34.637l-2.194-7.047-11.703 6.615-1.559 36.831z" opacity=".1"/>
        <path fill="#67647E" fill-rule="nonzero" d="M47.653 88.412v21.605s.443 4.633-1.106 7.72c-1.549 3.086 4.859 1.985 4.859 1.985s15.68 16.54 25.617 8.601c0 0 1.106-33.745-1.106-41.684C73.706 78.7 63.11 52.003 63.11 52.003L60.9 44.945 49.198 51.56l-1.545 36.852z"/>
        <path fill="#000" fill-rule="nonzero" d="M64.767 41.108s-6.734 4.962-14.463 3.858c-7.73-1.105-12.146 33.083-12.146 33.083s-2.871 17.644 6.404 16.1L65.1 87.312s-4.416-4.633-3.753-10.586l-9.941 3.968.446-18.965 12.915-20.62z" opacity=".1"/>
        <path fill="#000" fill-rule="nonzero" d="M38.597 77.606s-2.87 17.644 6.405 16.101L65.54 86.87s-4.416-4.63-3.753-10.586l-9.935 3.97-13.255-2.647z" opacity=".1"/>
        <path fill="#F5F5F5" fill-rule="nonzero" d="M61.299 78.608s6.892-9.05 11.967-4.705C78.342 78.248 63.12 86.21 63.12 86.21l-1.82-7.603z"/>
        <path fill="#67647E" fill-rule="nonzero" d="M64.767 40.665s-6.734 4.963-14.463 3.858c-7.73-1.104-12.146 33.083-12.146 33.083s-2.871 17.644 6.404 16.101L65.1 86.87s-4.416-4.633-3.753-10.586l-9.941 3.97.446-18.967 11.264-9.26 1.651-11.36z"/>
        <path fill="#000" fill-rule="nonzero" d="M78.348 38.128L65.76 35.04s.656.74-.11 3.639c2.026 2.321 4.515 5.404 7.84 5.404a10.998 10.998 0 0 0 6.6-2.184 19.816 19.816 0 0 1-1.742-3.772z" opacity=".1"/>
        <ellipse cx="73.27" cy="32.617" fill="#F5F5F5" fill-rule="nonzero" rx="11.043" ry="11.029"/>
        <path fill="#000" fill-rule="nonzero" d="M77.456 27.83c2.561-.436 5.377-1.571 6.236-4.02.549-1.567.13-3.35-.766-4.746-.896-1.396-2.215-2.47-3.575-3.43-2.208-1.55-4.643-2.88-7.3-3.347a3.002 3.002 0 0 0-1.395 0c-.398.163-.777.37-1.13.618-1.816 1.046-4.075.593-6.18.483-2.105-.11-4.63.484-5.292 2.47-.206.613-.192 1.275-.343 1.906-.344 1.543-1.508 2.744-2.404 4.03-.896 1.286-1.587 3.024-.831 4.41.257.47.687.902.687 1.437-.067.38-.182.75-.344 1.1-.312 1.139.598 2.288 1.648 2.83 1.051.541 2.26.71 3.331 1.214a5.829 5.829 0 0 1 3.252 5.397c.975.114 2.112.172 2.771-.555.296-.326.44-.761.708-1.108.343-.452.879-.72 1.318-1.083 2.311-1.897.67-4.517 1.978-6.56.687-1.054 1.78-.731 2.885-.714a25.52 25.52 0 0 0 4.746-.333z" opacity=".1"/>
        <path fill="#4A4347" fill-rule="nonzero" d="M77.236 27.61c2.562-.436 5.377-1.57 6.236-4.02.55-1.567.13-3.35-.766-4.746-.896-1.395-2.215-2.469-3.575-3.429-2.208-1.55-4.642-2.88-7.3-3.347a3.002 3.002 0 0 0-1.394 0c-.399.163-.778.37-1.13.617-1.817 1.046-4.076.593-6.181.484-2.105-.11-4.63.483-5.292 2.469-.206.614-.192 1.276-.343 1.907-.344 1.543-1.508 2.743-2.404 4.03-.896 1.285-1.586 3.024-.831 4.41.258.469.687.901.687 1.436-.066.38-.182.75-.344 1.1-.312 1.14.598 2.288 1.649 2.83 1.05.542 2.26.71 3.33 1.214a5.829 5.829 0 0 1 3.263 5.412c.975.113 2.112.171 2.771-.556.295-.326.44-.761.707-1.108.344-.452.88-.72 1.319-1.083 2.311-1.897.67-4.517 1.978-6.56.687-1.053 1.779-.731 2.884-.714a25.52 25.52 0 0 0 4.736-.346z"/>
        <path fill="#000" fill-rule="nonzero" d="M90.604 64.705s2.428 12.572 1.326 17.425a16.149 16.149 0 0 0 .288 8.546M51.358 69.997s-1.058 8.38.704 10.144" opacity=".1"/>
        <path fill="#000" fill-rule="nonzero" d="M113.02 173.285a.515.515 0 1 0 .001-1.03.515.515 0 0 0 0 1.03z"/>
        <path fill="url(#b)" fill-rule="nonzero" d="M187.836 72.548v-.285L94.144.316a.344.344 0 0 0-.408 0L.04 72.263v111.523H.22v.178h187.798V72.442l-.182.106z" opacity=".5" transform="translate(83.788 40.81)"/>
        <path fill="#FFF" fill-rule="nonzero" d="M268.389 221.485H87.077V113.803l90.656-69.616 90.656 69.616z"/>
        <path fill="#E0E0E0" fill-rule="nonzero" d="M261.864 215.103H93.602V115.17l84.131-64.605 84.131 64.605z"/>
        <path fill="#DF5050" fill-rule="nonzero" d="M103.658 75.963l102.64-26.908 34.176 130.368-102.64 26.908z"/>
        <path fill="#F5F5F5" fill-rule="nonzero" d="M125.194 68.879h106.108v134.774H125.194z"/>
        <path fill="#000" fill-rule="nonzero" d="M87.936 113.975l90.655 53.84-90.655 53.841z" opacity=".05"/>
        <path fill="#FFF" fill-rule="nonzero" d="M87.25 113.975l90.655 53.84-90.656 53.841z"/>
        <path fill="#000" fill-rule="nonzero" d="M267.873 113.975l-90.655 53.84 90.655 53.841z" opacity=".05"/>
        <path fill="#FFF" fill-rule="nonzero" d="M268.56 113.975l-90.655 53.84 90.655 53.841z"/>
        <path fill="#000" fill-rule="nonzero" d="M87.25 219.942l90.655-70.645 90.655 70.645z" opacity=".05"/>
        <path fill="#FFF" fill-rule="nonzero" d="M87.25 221.656l90.655-70.644 90.655 70.644z"/>
        <path stroke="#535461" stroke-width=".687" d="M105.672 229.835s-4.553-15.432.855-26.797a24.35 24.35 0 0 0 1.975-15.295 40.964 40.964 0 0 0-2.167-7.177"/>
        <path fill="#DF5050" fill-rule="nonzero" d="M109.697 173.385c0 1.893-3.434 7.376-3.434 7.376s-3.434-5.487-3.434-7.376a3.432 3.432 0 0 1 3.434-3.43 3.432 3.432 0 0 1 3.434 3.43zM115.38 183.865c-1.03 1.588-6.896 4.331-6.896 4.331s.107-6.468 1.137-8.055a3.437 3.437 0 0 1 4.661-.886 3.427 3.427 0 0 1 1.098 4.61zM115.119 201.77c-1.693.85-8.142.264-8.142.264s3.362-5.529 5.051-6.379a3.438 3.438 0 0 1 3.517.098 3.428 3.428 0 0 1-.426 6.02v-.003zM111.877 215.278c-1.524 1.125-7.98 1.632-7.98 1.632s2.376-6.015 3.9-7.14a3.437 3.437 0 0 1 4.667.814 3.426 3.426 0 0 1-.587 4.694zM101.27 188.56c1.373 1.317 7.688 2.685 7.688 2.685s-1.548-6.28-2.908-7.596a3.437 3.437 0 0 0-4.737.18 3.426 3.426 0 0 0-.043 4.734v-.003zM97.678 204.407c1.693.85 8.142.264 8.142.264s-3.362-5.528-5.052-6.379a3.436 3.436 0 0 0-4.48 1.58 3.427 3.427 0 0 0 1.39 4.538v-.003zM96.304 220.285c1.525 1.124 7.98 1.632 7.98 1.632s-2.375-6.015-3.9-7.14a3.438 3.438 0 0 0-3.492-.512 3.428 3.428 0 1 0-.587 6.02z"/>
        <path fill="#DF5050" fill-rule="nonzero" d="M131.375 75.051h42.581v3.429h-42.581zM131.375 88.769h92.029v3.429h-92.029zM131.375 97.685h92.029v3.429h-92.029z" opacity=".5"/>
        <path fill="#DF5050" fill-rule="nonzero" d="M131.375 106.602h92.029v3.429h-92.029zM131.375 115.518h92.029v3.429h-92.029z" opacity=".4"/>
        <path fill="#DF5050" fill-rule="nonzero" d="M131.375 124.434h52.539v3.429h-52.539zM131.375 133.35h71.769v3.429h-71.769z" opacity=".3"/>
    </g>
</svg>
