<svg xmlns="http://www.w3.org/2000/svg" width="318" height="250" viewBox="0 0 318 250">
    <defs>
        <linearGradient id="a" x1="50.075%" x2="50.075%" y1="100.109%" y2="-.001%">
            <stop offset="0%" stop-color="gray" stop-opacity=".25"/>
            <stop offset="54%" stop-color="gray" stop-opacity=".12"/>
            <stop offset="100%" stop-color="gray" stop-opacity=".1"/>
        </linearGradient>
        <linearGradient id="b" x1="30398%" x2="30398%" y1="80479%" y2="37583%">
            <stop offset="0%" stop-color="gray" stop-opacity=".25"/>
            <stop offset="54%" stop-color="gray" stop-opacity=".12"/>
            <stop offset="100%" stop-color="gray" stop-opacity=".1"/>
        </linearGradient>
    </defs>
    <g fill="none" fill-rule="evenodd">
        <g opacity=".5">
            <path fill="#DF5050" fill-rule="nonzero" d="M227.046.033c-1.246-.02-2.82.326-3.782 2.049-1.884 3.385 1.148 6.715-.415 10.323a6.008 6.008 0 0 1-2.029 2.445c-1.511 1.088-3.052 1.411-4.58 2.062a8.392 8.392 0 0 0-4.29 3.823 9.997 9.997 0 0 0-.902 6.069c.301 1.804 1.01 3.235 1.597 4.778a29.944 29.944 0 0 1 1.534 5.902c.175.939.225 1.897.15 2.85a17.928 17.928 0 0 1-.88 3.558l-3.363 10.52a24.546 24.546 0 0 0-1.08 4.215 17.696 17.696 0 0 0 .131 4.494c.367 3.078.776 6.281 2.235 8.206 1.459 1.925 4.322 2.049 6.415-.68 1.993-2.614 2.507-6.569 4.332-9.412 2.876-4.483 7.476-4.094 10.558-8.294 2.944-4.026 2.898-9.836 4.747-14.79 1.308-3.55 3.598-6.537 5.143-9.984 2.228-4.97 2.738-10.553 1.963-14.958a22.189 22.189 0 0 0-4.957-10.487c-.955-1.157-1.996-2.232-3.32-2.614-1.41-.418-2.817.653-4.27.751-1.678.085-3.245-.8-4.937-.826z"/>
            <path stroke="#535461" stroke-width=".654" d="M234.95.065s-8.113 46.945-21.592 72.576M223.173 2.297s9.9 10.131 6.11 24.131M211.503 21.771s17.421 6.935 15.118 14.817M244.582 13.105s-7.767 3.16-15.815 15.395M232.562 52.99s-5.257 1.824-7.943-9.477M210.691 54.065s10.116 1.347 11.621-3.268"/>
        </g>
        <g opacity=".5">
            <path fill="#DF5050" fill-rule="nonzero" d="M33.115 58.137c-.7 1.033-1.276 2.533-.36 4.281 1.8 3.432 6.25 2.726 8.412 6.01.577.91.9 1.959.932 3.036.082 1.86-.494 3.324-.792 4.96a8.377 8.377 0 0 0 .848 5.67 10.014 10.014 0 0 0 4.58 4.082c1.675.739 3.271.929 4.875 1.288a30.027 30.027 0 0 1 5.78 1.96c.882.37 1.712.854 2.467 1.439a17.952 17.952 0 0 1 2.497 2.686l6.958 8.582a24.579 24.579 0 0 0 2.945 3.215 17.739 17.739 0 0 0 3.834 2.357c2.778 1.382 5.683 2.797 8.094 2.637 2.411-.16 4.086-2.484 2.944-5.732-1.08-3.092-4.122-5.696-5.502-8.781-2.176-4.863.673-8.497-1.149-13.366-1.747-4.68-6.644-7.817-9.772-12.092-2.244-3.052-3.494-6.588-5.532-9.774-2.945-4.575-7.329-8.075-11.451-9.847a22.246 22.246 0 0 0-11.5-1.614c-1.492.163-2.96.441-4.02 1.333-1.126.948-.982 2.72-1.715 3.977-.818 1.471-2.42 2.295-3.373 3.693z"/>
            <path stroke="#535461" stroke-width=".654" d="M37.483 51.556s34.836 32.532 48.884 57.862M32.89 62.614s13.92-2.702 23.555 8.138M42.783 83.04s15.376-10.743 20.696-4.494M53.684 50.686s-1.62 8.222 4.207 21.654M80.468 82.585s-1.36 5.392-12.3 1.428M69.365 101.444s6.677-7.709 3.64-11.493"/>
        </g>
        <path fill="#DF5050" fill-rule="nonzero" d="M26.569 20.402c-1.636 1.931-3.167 4.605-1.963 7.242 2.336 5.166 10.904 2.647 13.963 7.464.916 1.441 1.04 3.202.828 4.774-.413 3.076-1.937 5.687-2.99 8.497-1.054 2.81-1.6 6.21-.115 9.177 1.43 2.872 4.443 4.686 7.361 5.408 2.918.722 5.843.559 8.758.654 3.463.135 6.902.641 10.257 1.51 1.476.317 2.892.869 4.194 1.633 1.488.951 2.692 2.347 3.87 3.72l10.47 12.186c1.39 1.634 2.81 3.268 4.534 4.467 1.989 1.382 4.253 2.085 6.48 2.761 4.794 1.464 9.816 2.942 14.396 1.938 4.58-1.003 8.424-5.375 7.28-10.438-1.09-4.82-6.004-8.238-7.66-12.96-2.617-7.442 3.844-14.343 1.904-21.915-1.858-7.262-10.096-11.007-14.676-17.154-3.272-4.405-4.56-9.915-7.42-14.601C81.92 8.013 74.737 3.533 67.555 1.833c-7.18-1.699-14.401-.879-21.121.814-2.846.722-5.693 1.634-7.95 3.438-2.398 1.918-2.676 4.827-4.423 7.144-2.025 2.7-5.287 4.555-7.492 7.173z"/>
        <path stroke="#535461" stroke-width=".654" d="M36.76 8.114s55.51 43.628 74.187 81.556M24.782 27.928s26.949-8.719 41.73 6.418M37.15 58.954S69.246 36.405 77.36 45.2M67.44 1.735s-5.531 14.18 1.31 34.791M108.025 46.765s-4.19 9.389-23.523 6.104M81.456 81.546s14.876-14.863 10.329-20.262"/>
        <ellipse cx="158.951" cy="236.317" fill="#DF5050" fill-rule="nonzero" opacity=".05" rx="158.951" ry="13.425"/>
        <path fill="url(#a)" fill-rule="nonzero" d="M282.35 130.47c-.678-1.98-1.656-4.49-2.428-5.081a.723.723 0 0 0-.154-.095h-.095v-2.448l-1.825.291c-.29-.884-.51-1.79-.655-2.709.36.36.9.468 1.371.275-.03-.05-.056-.102-.082-.154l.082-.036a3.386 3.386 0 0 1-.442-1.66c.015-.532.1-1.06.252-1.569.327-1.127.88-2.18 1.188-3.313.196-.73.289-1.484.275-2.239a8.162 8.162 0 0 0-.85-3.693 2.157 2.157 0 0 0-.655-.843 8.343 8.343 0 0 0-.792-.386 4.274 4.274 0 0 1-1.152-1.147 10.326 10.326 0 0 0-4.989-3.326 2.925 2.925 0 0 0-1.596-.128c-1.227.327-1.672 1.847-2.667 2.644-.876.703-2.08.774-3.183 1.01-1.102.235-2.212.702-2.964 1.552a3.21 3.21 0 0 0-.795 2.14c-.061.748.27 1.473.877 1.916.687.45 1.54.57 2.326.326a7.894 7.894 0 0 0 .822 6.275 7.91 7.91 0 0 0 5.168 3.66l.213.382a16.355 16.355 0 0 1 1.485 3.873c-1.681.95-3.517 1.843-4.626 1.928a7.777 7.777 0 0 1-.242 1.281 7.062 7.062 0 0 1-1.456 2.86c-1.508 1.692-8.29 14.49-8.29 14.49s-.213.51-.563 1.379c-4.21.516-11.084 1.261-13.001.879l-7.525-7.15s-2.434 1.856-2.221 4.11l-1.338-1.287s-7.159 5.458 4.145 9.033l17.199 1.993c-1.636 4.938-3.167 10.687-2.693 13.814h.14c.33 0 .657-.025.982-.075l-.03.555-1.664 29.638s-.377 5.457 4.71 7.902c0 0 6.217 18.251 3.77 20.323 0 0 .29.154.781.366l-5.113 4.526s-3.769.941-5.84.752a1.495 1.495 0 0 0-1.652 1.111c0 .04 0 .078-.02.118V234.895c0 .013 0 .082.023.121v.046c.011.044.025.087.043.13l.016.04c.016.043.036.085.059.127v.03c.023.042.05.082.075.124l.023.036c.03.044.065.087.102.13l.029.033c.04.046.082.089.124.131l.02.016.14.121.03.023c.052.043.111.082.17.121l.04.026c.062.04.127.079.196.115h.03l.212.104h.03l.248.098.052.02.272.088h.046l.297.079h.023l.327.065h.066l.353.052h.069l.399.04c.775.058 1.819.081 3.026.075v.192c0 .04 0 .082.023.121v.046c.011.044.025.087.043.13l.016.04c.016.043.036.085.059.127v.03c.023.042.049.082.075.124l.023.036c.03.044.064.087.102.13l.029.033c.04.046.082.089.124.131l.02.016.14.121.03.023c.052.043.111.082.17.121l.043.026c.062.04.127.079.196.115h.03l.212.104h.03l.248.098.053.02.271.088h.046l.298.079h.022l.328.065h.065l.353.052h.07l.398.04c4.908.375 20.533-.752 20.533-.752v-.098c.154-.729.906-4.964-1.764-8.095a3.54 3.54 0 0 0 .23-.261s-2.071-3.576-.943-4.706c1.129-1.131-5.65-20.7-5.65-20.7s-3.579-5.643-1.508-12.042c2.07-6.399-.19-13.36-.19-13.36s4.94-1.467 5.042-7.542v-.565c.108.015.218.022.327.02.07.004.14.004.21 0 0 0-.943-3.386.189-5.834 1.132-2.448 3.58-.19 5.84-10.16 1.636-7.216 3.075-15.517 3.746-19.556.29-1.625.184-3.296-.308-4.872zm-42.993 21.17l-1.717-1.633c.569.235 1.2.467 1.907.69l6.478.75c-2.892.262-5.578.41-6.668.194z"/>
        <path fill="#FDC2CC" fill-rule="nonzero" d="M255.754 150.686s-13.325 1.85-16.102 1.307l-7.417-7.045s-7.034 5.362 4.073 8.872l20.742 2.422-1.296-5.556z"/>
        <path fill="#000" fill-rule="nonzero" d="M255.754 150.686s-13.325 1.85-16.102 1.307l-7.417-7.045s-7.034 5.362 4.073 8.872l20.742 2.422-1.296-5.556z" opacity=".05"/>
        <path fill="#47465A" fill-rule="nonzero" d="M260.567 225.735l-6.478 5.732s-3.7.925-5.738.739c-2.038-.186-2.961 3.144 1.852 3.513 4.812.37 20.172-.739 20.172-.739s1.482-5.915-2.96-9.245h-6.848z"/>
        <path fill="#000" fill-rule="nonzero" d="M260.567 225.735l-6.478 5.732s-3.7.925-5.738.739c-2.038-.186-2.961 3.144 1.852 3.513 4.812.37 20.172-.739 20.172-.739s1.482-5.915-2.96-9.245h-6.848z" opacity=".05"/>
        <path fill="#FFF" fill-rule="nonzero" d="M270.608 232.422a10.185 10.185 0 0 1-.233 2.003s-15.376 1.108-20.172.738c-2.313-.176-3.298-1.039-3.475-1.866-.21.948.628 2.203 3.475 2.422 4.812.37 20.172-.739 20.172-.739.18-.84.258-1.7.233-2.558z" opacity=".3"/>
        <path fill="#FDC2CC" fill-rule="nonzero" d="M268.154 120.915s4.073 5.732 2.59 9.614c-1.481 3.883 7.774-4.068 7.774-4.068s-2.96-5.177-1.482-10.722l-8.882 5.176z"/>
        <path fill="#47465A" fill-rule="nonzero" d="M267.045 227.954l-6.478 5.739s-3.7.925-5.738.738c-2.039-.186-2.964 3.138 1.851 3.51 4.816.373 20.173-.738 20.173-.738s1.482-5.915-2.96-9.245l-6.848-.004z"/>
        <path fill="#565171" fill-rule="nonzero" d="M268.896 226.66c-.965 1.19-2.326 1.634-3.749 1.716-3.235.153-6.798-1.716-6.798-1.716 2.404-2.033-3.7-19.967-3.7-19.967-4.996-2.402-4.626-7.765-4.626-7.765l1.635-29.108.41-7.31 5.182-3.144 4.086 3.13 3.873 2.971c.252.945.414 1.911.485 2.886.448 6.794-4.927 8.392-4.927 8.392s2.221 6.84.186 13.124c-2.035 6.285 1.482 11.83 1.482 11.83s6.664 19.226 5.562 20.337c-1.103 1.111.9 4.624.9 4.624z"/>
        <path fill="#000" fill-rule="nonzero" d="M268.896 226.66c-.965 1.19-2.326 1.634-3.749 1.716-3.235.153-6.798-1.716-6.798-1.716 2.404-2.033-3.7-19.967-3.7-19.967-4.996-2.402-4.626-7.765-4.626-7.765l1.635-29.108.41-7.31 5.182-3.144 4.086 3.13 3.873 2.971c.252.945.414 1.911.485 2.886.448 6.794-4.927 8.392-4.927 8.392s2.221 6.84.186 13.124c-2.035 6.285 1.482 11.83 1.482 11.83s6.664 19.226 5.562 20.337c-1.103 1.111.9 4.624.9 4.624z" opacity=".05"/>
        <path fill="#565171" fill-rule="nonzero" d="M275.374 228.88c-3.147 3.881-10.547 0-10.547 0 .15-.138.263-.311.327-.504 1.357-3.686-4.58-21.31-4.58-21.31-4.996-2.403-5.562-8.135-5.562-8.135l-1.309-29.624-.17-3.836 7.786-2.971 2.392-.912 7.96 6.092c.344 1.26.516 2.56.51 3.866-.098 5.977-4.94 7.418-4.94 7.418s2.221 6.84.187 13.124c-2.035 6.285 1.482 11.83 1.482 11.83s6.664 19.226 5.561 20.337c-1.102 1.111.903 4.624.903 4.624z"/>
        <path fill="#000" fill-rule="nonzero" d="M272.182 171.552c-1.6-.228-4.84-2.153-6.505-3.2l-1.04-.653s-1.665-4.62-6.108-1.107a16.631 16.631 0 0 1-4.826 2.722 11.3 11.3 0 0 1-2.061.516l.409-7.31 5.182-3.144 4.087 3.13 2.391-.911 7.96 6.085a14.41 14.41 0 0 1 .51 3.872z" opacity=".1"/>
        <path fill="#F68080" fill-rule="nonzero" d="M282.199 136.088c-.654 3.968-2.074 12.121-3.68 19.213-2.222 9.804-4.627 7.578-5.74 9.983-1.111 2.406-.186 5.732-.186 5.732-1.851.187-7.96-3.882-7.96-3.882s-1.665-4.62-6.108-1.108c-4.442 3.513-7.96 3.327-7.96 3.327-.925-6.101 5.922-22.37 5.922-22.37s6.671-12.571 8.137-14.235a6.938 6.938 0 0 0 1.43-2.81 7.64 7.64 0 0 0 .235-1.258c2.405-.187 8.33-4.249 8.33-4.249l4.626-.738v2.402a.71.71 0 0 1 .15.091c.762.582 1.72 3.05 2.385 4.994a10.12 10.12 0 0 1 .419 4.908z"/>
        <path fill="#000" fill-rule="nonzero" d="M278.518 128.497s-4.812-3.883-12.03 8.69c-7.217 12.571-8.882 10.535-8.882 10.535s1.482 5.556.74 6.657c0 0 4.995-.37 6.847 0 1.852.37 13.325-14.052 13.325-14.052s5.925-8.134 0-11.83z" opacity=".1"/>
        <path fill="#000" fill-rule="nonzero" d="M278.335 127.755s-4.812-3.866-12.03 8.69c-7.217 12.555-8.879 10.539-8.879 10.539s5.732 6.284 7.584 6.643c1.852.36 13.325-14.052 13.325-14.052s5.918-8.12 0-11.82z" opacity=".1"/>
        <path fill="#000" fill-rule="nonzero" d="M258.175 153.176c.076-1.369-.441-3.777-.739-5.026 1.125-.147 1.835-.245 1.835-.245l1.31 5.556-2.406-.285zM277.223 116.108l-8.883 5.167c.374.545.72 1.11 1.034 1.692a7.818 7.818 0 0 0 1.557.157c2.372 0 3.478-2.487 4.908-4.16-.092-1.333.988-1.366 1.384-2.856z" opacity=".1"/>
        <ellipse cx="270.748" cy="115" fill="#FDC2CC" fill-rule="nonzero" rx="7.773" ry="7.765"/>
        <path fill="#000" fill-rule="nonzero" d="M260.914 108.719a5.315 5.315 0 0 1 2.911-1.526c1.08-.232 2.264-.304 3.128-.98.982-.782 1.413-2.265 2.617-2.595a2.872 2.872 0 0 1 1.568.124 10.143 10.143 0 0 1 4.907 3.268c.3.444.684.827 1.129 1.127.266.113.526.24.778.38.277.218.496.502.635.826a8.028 8.028 0 0 1 .563 5.644c-.301 1.114-.844 2.147-1.165 3.268-.32 1.12-.402 2.366.186 3.356-.569.291-1.289-.075-1.635-.604-.347-.53-.465-1.183-.655-1.795a6.862 6.862 0 0 0-2.005-3.114c-.582-.516-1.636-.863-2.032-.196-.157.258-.147.585-.281.853-.265.523-1.03.627-1.538.327a2.356 2.356 0 0 1-.962-1.425c-.762-2.575-2.06-4.196-4.819-3.095-1.027.412-2.238.69-3.226-.016-1.302-.932-1.037-2.775-.104-3.827z" opacity=".1"/>
        <path fill="#B96B6B" fill-rule="nonzero" d="M260.914 108.53a5.315 5.315 0 0 1 2.911-1.527c1.08-.232 2.264-.304 3.128-.98.982-.781 1.413-2.265 2.617-2.595a2.872 2.872 0 0 1 1.568.124 10.143 10.143 0 0 1 4.907 3.268c.3.445.684.827 1.129 1.128.266.112.526.239.778.379.277.218.496.502.635.827a8.028 8.028 0 0 1 .563 5.643c-.301 1.115-.844 2.147-1.165 3.268-.32 1.121-.402 2.366.186 3.357-.569.29-1.289-.076-1.635-.605-.347-.53-.465-1.183-.655-1.794a6.862 6.862 0 0 0-2.005-3.115c-.582-.516-1.636-.862-2.032-.196-.157.259-.147.585-.281.853-.265.523-1.03.628-1.538.327a2.356 2.356 0 0 1-.962-1.425c-.762-2.575-2.06-4.196-4.819-3.094-1.027.411-2.238.69-3.226-.017-1.302-.928-1.037-2.768-.104-3.827z"/>
        <path fill="#000" fill-rule="nonzero" d="M279.411 126.176h-3.762s-7.404 3.697-7.587 3.514c-.124-.125-1.27.088-1.995.241a7.64 7.64 0 0 0 .235-1.258c2.405-.186 8.33-4.248 8.33-4.248l4.626-.739v2.402a.71.71 0 0 1 .153.088z" opacity=".05"/>
        <path fill="#FFF" fill-rule="nonzero" d="M277.085 234.64a10.185 10.185 0 0 1-.232 2.004s-15.377 1.108-20.173.738c-2.313-.176-3.297-1.039-3.474-1.866-.21.948.628 2.203 3.474 2.422 4.813.37 20.173-.739 20.173-.739.18-.84.258-1.7.232-2.558z" opacity=".3"/>
        <g fill="#000" fill-rule="nonzero" opacity=".05">
            <path d="M256.772 165.84c-2.496 1.96-4.705 2.78-6.154 3.108 0 .137.026.274.046.405 0 0 3.517.186 7.96-3.327a5.966 5.966 0 0 1 2.378-1.242c-.958-.46-2.352-.431-4.23 1.056zM281.888 131.176c-.654-1.96-1.636-4.411-2.385-4.993a.71.71 0 0 0-.15-.091s-1.532.052-1.483.091c.763.582 1.502 2.863 2.166 4.807a10.12 10.12 0 0 1 .403 4.902c-.655 3.967-2.074 12.121-3.68 19.213-2.222 9.803-4.627 7.578-5.74 9.983-.909 1.961-.454 4.556-.258 5.428.792.327 1.48.533 1.924.487 0 0-.926-3.327.186-5.732 1.113-2.405 3.517-.186 5.739-9.983 1.606-7.089 3.02-15.246 3.68-19.213a10.12 10.12 0 0 0-.402-4.899z"/>
        </g>
        <path fill="url(#b)" fill-rule="nonzero" d="M92.982 233.954s-4.253.294-6.903-4.248a15.268 15.268 0 0 0-1.812-2.572 8.686 8.686 0 0 1-1.273-4.618c.147-3.372-3.376-21.856-3.376-21.856s.441-7.042-3.085-11.438c-2.32-2.895-5.657-11.196-7.669-16.53.135.121.298.206.474.25l-.081-.462.081.02-1.027-5.722a26.037 26.037 0 0 1-3.795-5.749l.236-.049 3.117-.653s5.068-7.19 5.379-10.732l.412.02h.583c6.448-.141 14.038.735 14.038.735 0-.023-.036-.115-.075-.258a17.581 17.581 0 0 1-.455-2.167l.291-.02 2.886-.193s9.985-11.147 6.314-13.202c-3.67-2.056-7.489 9.242-7.489 9.242l-1.233.225-.327.062c.032-.049.065-.095.104-.14.04-.046-16.302-.732-18.798-4.693 0 0-7.198-5.722-7.489-9.536-.157-2.023-1.426-3.098-2.588-3.66a5.652 5.652 0 0 0-2.853-.533l-3.37.232.24.425h-.095a11.315 11.315 0 0 1-.53-1.49h.068c-.023-.105-.046-.21-.065-.327a7.93 7.93 0 0 0 4.984-3.644 7.914 7.914 0 0 0 .856-6.11c.326.041.657.032.981-.027 1.237-.255 2.117-1.51 2.15-2.771v-.245-.05a4.247 4.247 0 0 0-1.636-3.267c-.674-.56-1.476-.958-2.088-1.579-.726-.742-1.122-1.735-1.688-2.614a7.75 7.75 0 0 0-3.978-3.095c-1.217-.412-2.706-.457-3.638.425-.48.454-.759 1.104-1.309 1.487-.775.552-1.828.389-2.777.5-1.721.202-3.233 1.428-3.992 2.987a6.856 6.856 0 0 0-.654 3.153 8.42 8.42 0 0 0 .265 2.216c.183.722.455 1.418.654 2.134.413 1.49.508 3.059.982 4.533a5.702 5.702 0 0 0 1.839 2.784l-.141.608c-.092.02-2.379.51-3.962 3.96-1.25 2.72-5.477 5.53-7.335 6.664a3.056 3.056 0 0 0-1.384 1.918 9.966 9.966 0 0 0-.235 2.438c-.033 1.768.327 4.213 1.76 7.314 3.232 7.042 5.581 10.13 5.581 10.13s.18 2.158.19 4.432c0 1.693-.125 3.38-.484 4.222-.305.713-.4 2.533-.393 4.608 0 3.984.393 9.183.393 9.183s1.122.213 2.862.467l1.083 19.017a9.144 9.144 0 0 1-2.07 6.353 14.061 14.061 0 0 1-2.618 2.477c-3.085 2.2-9.694 25.379-9.694 25.379s.327.02.857.062l-2.031 5.66s8.113 6.21 13.053 4.513a4.788 4.788 0 0 1 1.636-.232c.982 0 3.06-.768 1.898-1.784-2.11-1.843-4.64-4.634-6.33-6.575.159.077.312.166.457.268v-.046l.069.046s.016-.23.052-.598l-.072-.023c.15-1.526.622-5.363 1.56-5.834 1.175-.588 9.839-17.748 9.839-17.748l8.663-22.297s6.903 11.882 12.775 13.934v4.958s3.233 14.67 4.407 16.284c1.175 1.615 0 8.069 0 8.069.232.266.499.5.792.696l-.939 5.317s6.756-.294 18.21 3.229c.03.006 4.436-1.896.765-4.249zM65.96 157.222l-1.43.356-.281.072c-.03-.176-.05-.28-.05-.28a2.92 2.92 0 0 1-1.036.25 19.089 19.089 0 0 1-.87-4.947s-.832-3.389-.877-6.127c.016-1.069.176-2 .582-2.526l.478.039.327.327.023.022.17.154.176.16.03.026.193.167.033.03.196.166.02.016.219.18.049.04.232.186h.02l.229.18.052.039.252.192.052.04.242.176.043.03.275.196.065.045.288.2.026.016.282.186.068.046.305.193.065.04.285.172.052.033.327.19.079.045.327.19h.026l.327.173.082.043.347.173.072.032.327.15.062.03.363.157.089.036.379.15c-2.388 2.546-3.592 8.536-3.592 8.536z"/>
        <path fill="#4F4D59" fill-rule="nonzero" d="M29.739 226.87l-2.725 7.59s7.462 5.716 12.31 4.533c.731-.18 1.475-.301 2.225-.359 1.005-.075 2.732-.804 1.666-1.735-3.442-3.007-8.029-8.592-8.029-8.592l-5.447-1.438zM75.044 226.15l-1.289 7.304s6.596-.287 17.778 3.15c0 0 4.302-1.862.716-4.153 0 0-4.158.288-6.74-4.154-2.58-4.44-4.157-3.866-4.157-3.866l-6.308 1.72z"/>
        <path fill="#787C9C" fill-rule="nonzero" d="M40.921 173.163l1.263 22.223a9.186 9.186 0 0 1-2.195 6.5 13.483 13.483 0 0 1-2.369 2.206c-3.01 2.147-9.461 24.774-9.461 24.774s7.312.428 9.317 1.863c0 0 .429-5.729 1.577-6.3 1.148-.573 9.606-17.321 9.606-17.321l8.463-21.781s6.74 11.601 12.475 13.604v4.87s3.154 14.32 4.302 15.895c1.148 1.575 0 7.876 0 7.876s3.298 4.153 10.894-.288c0 0-2.437-2.722-2.29-6.016.148-3.294-3.297-21.337-3.297-21.337s.428-6.862-3.01-11.17c-3.439-4.307-9.177-20.754-9.177-20.754l-3.946-8.48-22.152 13.636z"/>
        <g fill="#000" fill-rule="nonzero" opacity=".1">
            <path d="M29.523 228.873s6.452-22.628 9.461-24.775a13.653 13.653 0 0 0 2.49-2.35 9.082 9.082 0 0 0 2.071-6.353l-1.263-22.222 21.138-13.026-.288-.618-22.145 13.634 1.263 22.223a9.082 9.082 0 0 1-2.058 6.36 13.653 13.653 0 0 1-2.49 2.349c-3.01 2.147-9.462 24.774-9.462 24.774s7.313.428 9.318 1.863c0 0 .016-.222.052-.585-2.826-.964-8.087-1.274-8.087-1.274zM75.26 227.585s1.148-6.3 0-7.876c-1.148-1.575-4.315-15.899-4.315-15.899v-4.869c-5.722-2.003-12.462-13.614-12.462-13.614l-.5 1.307c1.943 3.078 7.128 10.722 11.683 12.314v4.869s3.153 14.32 4.302 15.895c1.148 1.576 0 7.876 0 7.876s1.6 2.01 5.133 1.739c-2.634-.21-3.841-1.742-3.841-1.742z"/>
        </g>
        <path fill="#714B4F" fill-rule="nonzero" d="M90.247 148.245l-2.817.186-1.485.098v-3.594l1.963-.353 1.207-.22s3.727-11.025 7.312-9.022c3.586 2.003-6.18 12.905-6.18 12.905zM45.08 118.745s-1.865 7.16-2.438 11.601c-.572 4.442 13.332.86 13.332.86s-5.303-6.445-2.29-9.882l-8.605-2.579z"/>
        <path fill="#E6E6F0" fill-rule="nonzero" d="M60.148 148.533l.288 2.722-4.442-.288-4.463-3.875-4.443-12.451-2.866-4.438-2.152-2.72.86-3.293s.393.326 1.057.85c2.182 1.67 7.305 5.136 11.048 4.179.173-.043.344-.097.51-.16l5.585 9.591-.982 9.883z"/>
        <path fill="#000" fill-rule="nonzero" d="M44.075 123.327s-2.29.428-3.87 3.866c-1.214 2.644-5.307 5.37-7.136 6.49a3.056 3.056 0 0 0-1.387 1.931c-.37 1.634-.51 4.674 1.499 9.053 3.153 6.862 5.447 9.882 5.447 9.882s.572 6.863-.288 8.88c-.86 2.015 0 13.032 0 13.032s15.05 2.863 20.071 0c5.022-2.863 4.302-13.892 4.302-13.892s4.731 10.013 6.452 10.31l-1.004-5.585s-5.592-6.016-5.89-13.748c0 0-1.72-7.017-.287-8.88 0 0 24.23 2.007 25.662.288 0 0-15.913-.715-18.35-4.575 0 0-7.024-5.585-7.312-9.307a4.117 4.117 0 0 0-2.15-3.373 5.62 5.62 0 0 0-3.212-.715l-3.24.222s5.592 9.882 5.304 11.17c-.288 1.287.288 11.742.288 11.742s-6.439-13.902-9.295-15.477c-2.856-1.576-6.163-8.043-6.163-8.043l.572-3.268" opacity=".1"/>
        <path fill="#000" fill-rule="nonzero" d="M60.148 148.533l.288 2.722-4.442-.288-4.463-3.875-4.443-12.451-2.866-4.438-2.152-2.72.86-3.293s.393.326 1.057.85l-.197 1.136s3.298 6.468 6.164 8.043c2.866 1.575 9.318 15.467 9.318 15.467s-.573-10.457-.288-11.742c.196-.875-2.317-5.702-3.95-8.719.174-.043.345-.096.511-.16l5.585 9.585-.982 9.883zM87.424 148.435l-1.485.098v-3.595l1.962-.353c-.69.912-.667 2.507-.477 3.85z" opacity=".1"/>
        <path fill="#787C9C" fill-rule="nonzero" d="M44.075 122.908s-2.29.429-3.87 3.867c-1.214 2.643-5.307 5.369-7.136 6.49a3.056 3.056 0 0 0-1.387 1.931c-.37 1.634-.51 4.673 1.499 9.052 3.153 6.863 5.447 9.883 5.447 9.883s.572 6.862-.288 8.879c-.86 2.016 0 13.032 0 13.032s15.05 2.863 20.071 0c5.022-2.862 4.302-13.918 4.302-13.918s4.731 10.026 6.452 10.31l-1.004-5.584s-5.592-6.017-5.89-13.749c0 0-1.72-7.016-.287-8.879 0 0 5.591 6.017 11.899 5.883 6.307-.134 13.763.715 13.763.715s-1.433-4.575 0-6.3c0 0-15.913-.716-18.35-4.576 0 0-7.024-5.585-7.312-9.307a4.117 4.117 0 0 0-2.15-3.372 5.62 5.62 0 0 0-3.212-.716l-3.24.222s5.605 9.863 5.317 11.17c-.288 1.307.288 11.742.288 11.742s-6.452-13.895-9.308-15.47c-2.856-1.576-6.176-8.037-6.176-8.037l.572-3.268"/>
        <path fill="#000" fill-rule="nonzero" d="M40.921 137.941s3.442 11.601 5.447 13.033c2.006 1.431 14.193 8.735 17.778 7.016 0 0 .86 4.298-.428 5.298 0 0-13.368-.523-13.476-.572 0 0-8.745-1.147-10.178-5.441-1.433-4.295-3.154-11.602-3.154-11.602l4.011-7.732z" opacity=".1"/>
        <ellipse cx="59.275" cy="150.324" fill="#BA7855" fill-rule="nonzero" rx="1" ry="1"/>
        <ellipse cx="60.708" cy="155.337" fill="#BA7855" fill-rule="nonzero" rx="1" ry="1"/>
        <g fill="#000" fill-rule="nonzero" opacity=".1">
            <path d="M39.344 175.886s-.86-11.027 0-13.033c.86-2.007.288-8.88.288-8.88s-2.29-3.006-5.447-9.881c-2.009-4.38-1.865-7.419-1.498-9.053a3.056 3.056 0 0 1 1.39-1.931c1.829-1.121 5.922-3.847 7.132-6.49.89-1.938 2.006-2.922 2.814-3.409l.055-.327s-2.29.428-3.87 3.866c-1.214 2.644-5.307 5.37-7.132 6.49a3.056 3.056 0 0 0-1.39 1.932c-.37 1.634-.51 4.673 1.498 9.052 3.154 6.863 5.447 9.883 5.447 9.883s.573 6.862-.288 8.879c-.86 2.016 0 13.032 0 13.032s10.754 2.046 17.114.951c-6.432.762-16.113-1.081-16.113-1.081zM58.7 137.941c-.197.883 0 6.072.16 9.249.693 1.415 1.128 2.35 1.128 2.35s-.572-10.458-.288-11.743c.272-1.225-4.763-10.212-5.264-11.11l-1.043.071s5.594 9.876 5.306 11.183zM74.9 149.964c-6.308.144-11.899-5.882-11.899-5.882-.169.234-.292.498-.363.777 1.636 1.54 6.216 5.353 11.258 5.23 6.307-.145 13.763.715 13.763.715s-.03-.095-.075-.258a114.256 114.256 0 0 0-12.684-.582zM63.718 161.993s.059.896.026 2.239c1.492 2.941 4.207 8.013 5.421 8.216l-.213-1.177c-2.093-2.61-5.234-9.278-5.234-9.278z"/>
        </g>
        <path fill="#714B4F" fill-rule="nonzero" d="M67.732 160.562l-3.046.654-2.401.506 1.289-3.595.896-.225 1.397-.346s2.009-10.027 6.023-9.308c4.015.72-4.158 12.314-4.158 12.314z"/>
        <path fill="#000" fill-rule="nonzero" d="M64.686 161.203l-2.401.506 1.289-3.595.896-.225c.2 1.092.273 2.204.216 3.314z" opacity=".1"/>
        <path fill="#787C9C" fill-rule="nonzero" d="M40.921 137.647s3.442 11.601 5.447 13.033c2.006 1.431 14.193 8.735 17.778 7.016 0 0 .86 4.297-.428 5.297 0 0-13.368-.522-13.476-.571 0 0-8.745-1.147-10.178-5.442-1.433-4.294-3.154-11.6-3.154-11.6l4.011-7.733z"/>
        <path fill="#000" fill-rule="nonzero" d="M45.223 119.033s-.29 1.12-.68 2.751a7.74 7.74 0 0 0 8.545 3.922c-.343-1.47-.268-2.941.74-4.108l-8.605-2.565z" opacity=".1"/>
        <ellipse cx="51.246" cy="117.886" fill="#714B4F" fill-rule="nonzero" rx="7.741" ry="7.732"/>
        <path fill="#000" fill-rule="nonzero" d="M57.966 115.758a4.15 4.15 0 0 0 1.728.105c1.207-.249 2.067-1.474 2.097-2.706a4.155 4.155 0 0 0-1.597-3.193c-.654-.546-1.44-.935-2.038-1.542-.71-.723-1.096-1.697-1.636-2.546a7.566 7.566 0 0 0-3.896-3.02c-1.188-.402-2.64-.448-3.553.415-.468.441-.743 1.079-1.266 1.451-.76.54-1.787.38-2.712.487a5.169 5.169 0 0 0-3.897 2.915 7.287 7.287 0 0 0-.38 4.954c.18.703.442 1.386.635 2.085.403 1.458.498 2.987.962 4.425.465 1.438 1.423 2.843 2.873 3.268a9.063 9.063 0 0 1 .922-4.673 1.34 1.34 0 0 1 .654-.725c.26-.067.53-.067.789 0a7.86 7.86 0 0 0 5.234-1.06c.55-.326 1.407-1.473 1.996-1.588.753-.134 2.3.772 3.085.948z" opacity=".1"/>
        <path fill="#503F43" fill-rule="nonzero" d="M57.966 115.47a4.15 4.15 0 0 0 1.728.105c1.207-.248 2.067-1.474 2.097-2.706a4.155 4.155 0 0 0-1.597-3.193c-.654-.545-1.44-.934-2.038-1.542-.71-.722-1.096-1.696-1.636-2.546a7.566 7.566 0 0 0-3.896-3.02c-1.188-.401-2.64-.447-3.553.416-.468.44-.743 1.078-1.266 1.45-.76.54-1.787.38-2.712.488a5.168 5.168 0 0 0-3.897 2.915 7.287 7.287 0 0 0-.38 4.94c.18.703.442 1.386.635 2.086.403 1.457.498 2.987.962 4.425.465 1.437 1.423 2.843 2.873 3.268a9.063 9.063 0 0 1 .922-4.674 1.34 1.34 0 0 1 .654-.725c.26-.066.53-.066.789 0a7.86 7.86 0 0 0 5.234-1.059c.55-.327 1.407-1.474 1.996-1.588.753-.121 2.3.787 3.085.96z"/>
        <path fill="#FAFBFC" fill-rule="nonzero" d="M74.046 35.242h169.06v201.961H74.046z"/>
        <path fill="#7983A6" fill-rule="nonzero" d="M74.046 35.242h169.06v6.846H74.046z"/>
        <path fill="#DF5050" fill-rule="nonzero" d="M103.032 90.726h8.853v26.814h-8.853z" opacity=".3"/>
        <path fill="#DF5050" fill-rule="nonzero" d="M127.733 77.173h8.853v40.507h-8.853z"/>
        <path fill="#DF5050" fill-rule="nonzero" d="M152.438 103.987h8.853v13.833h-8.853z" opacity=".3"/>
        <path fill="#DF5050" fill-rule="nonzero" d="M177.138 63.484h8.853v54.199h-8.853z"/>
        <path fill="#DF5050" fill-rule="nonzero" d="M201.839 76.605h8.853v40.935h-8.853z" opacity=".3"/>
        <ellipse cx="107.459" cy="123.67" fill="#DF5050" fill-rule="nonzero" rx="2.284" ry="2.281"/>
        <ellipse cx="132.304" cy="123.67" fill="#DF5050" fill-rule="nonzero" rx="2.284" ry="2.281"/>
        <ellipse cx="157.148" cy="123.67" fill="#DF5050" fill-rule="nonzero" rx="2.284" ry="2.281"/>
        <ellipse cx="181.993" cy="123.67" fill="#DF5050" fill-rule="nonzero" rx="2.284" ry="2.281"/>
        <ellipse cx="206.837" cy="123.67" fill="#DF5050" fill-rule="nonzero" rx="2.284" ry="2.281"/>
        <path fill="#DF5050" fill-rule="nonzero" d="M103.033 176.873h8.853v26.814h-8.853zM127.733 176.729h8.853v27.098h-8.853zM152.437 190.137h8.853v13.833h-8.853zM177.138 149.631h8.853v54.199h-8.853zM235.536 117.654h8.853v40.935h-8.853z"/>
        <ellipse cx="2.441" cy="2.301" fill="#DF5050" fill-rule="nonzero" opacity=".7" rx="2.284" ry="2.281" transform="translate(105.019 207.516)"/>
        <ellipse cx="2.421" cy="2.301" fill="#DF5050" fill-rule="nonzero" opacity=".7" rx="2.284" ry="2.281" transform="translate(129.883 207.516)"/>
        <ellipse cx="2.401" cy="2.301" fill="#DF5050" fill-rule="nonzero" opacity=".7" rx="2.284" ry="2.281" transform="translate(154.747 207.516)"/>
        <ellipse cx="2.382" cy="2.301" fill="#DF5050" fill-rule="nonzero" opacity=".7" rx="2.284" ry="2.281" transform="translate(179.611 207.516)"/>
        <ellipse cx="2.362" cy="2.301" fill="#DF5050" fill-rule="nonzero" opacity=".7" rx="2.284" ry="2.281" transform="translate(204.475 207.516)"/>
        <path fill="#DF5050" fill-rule="nonzero" d="M61.523 236.464a3.813 3.813 0 0 0 1.253-1.889c.163-.751-.157-1.65-.877-1.925-.805-.307-1.665.249-2.317.814-.65.565-1.4 1.206-2.254 1.085a3.423 3.423 0 0 0 1.06-3.206 1.34 1.34 0 0 0-.294-.653c-.448-.478-1.256-.272-1.793.104-1.701 1.196-2.176 3.503-2.185 5.582-.17-.749-.027-1.53-.033-2.288-.007-.758-.216-1.634-.864-2.032a2.62 2.62 0 0 0-1.308-.31c-.766-.03-1.617.048-2.14.607-.654.693-.481 1.86.085 2.614.566.755 1.423 1.242 2.215 1.772a4.905 4.905 0 0 1 1.583 1.506c.048.085.088.175.118.268h4.793a13.358 13.358 0 0 0 2.958-2.049zM294.46 232.542a3.813 3.813 0 0 0 1.254-1.888c.163-.752-.157-1.65-.877-1.925-.805-.307-1.665.248-2.316.813-.651.566-1.4 1.206-2.254 1.085a3.423 3.423 0 0 0 1.06-3.205 1.34 1.34 0 0 0-.295-.654c-.448-.477-1.256-.271-1.793.105-1.7 1.196-2.175 3.503-2.185 5.581-.17-.748-.026-1.53-.033-2.287-.006-.759-.216-1.634-.864-2.033a2.62 2.62 0 0 0-1.308-.31c-.766-.03-1.616.049-2.14.607-.654.693-.48 1.86.085 2.615.566.755 1.423 1.242 2.215 1.771a4.905 4.905 0 0 1 1.584 1.507c.048.085.087.175.117.268h4.793a13.358 13.358 0 0 0 2.958-2.05z"/>
        <path fill="#FDC2CC" fill-rule="nonzero" d="M260.567 153.451l-2.392-.278-18.32-2.127c-11.12-3.51-4.087-8.856-4.087-8.856l7.404 7.026c2.136.428 10.512-.569 14.264-1.05 1.125-.146 1.835-.244 1.835-.244l1.296 5.529z"/>
        <path fill="#F68080" fill-rule="nonzero" d="M278.518 128.137s-4.812-3.882-12.03 8.69c-7.217 12.572-8.882 10.536-8.882 10.536s1.482 5.555.74 6.657c0 0 4.995-.37 6.847 0 1.852.369 13.325-14.053 13.325-14.053s5.925-8.143 0-11.83z"/>
    </g>
</svg>
