<svg xmlns="http://www.w3.org/2000/svg" width="344" height="250" viewBox="0 0 344 250">
    <defs>
        <linearGradient id="a" x1="49.997%" x2="49.997%" y1="100%" y2="-.004%">
            <stop offset="0%" stop-color="gray" stop-opacity=".25"/>
            <stop offset="54%" stop-color="gray" stop-opacity=".12"/>
            <stop offset="100%" stop-color="gray" stop-opacity=".1"/>
        </linearGradient>
        <linearGradient id="b" x1="35766%" x2="35766%" y1="75253%" y2="31018%">
            <stop offset="0%" stop-color="gray" stop-opacity=".25"/>
            <stop offset="54%" stop-color="gray" stop-opacity=".12"/>
            <stop offset="100%" stop-color="gray" stop-opacity=".1"/>
        </linearGradient>
        <linearGradient id="c" x1="21131%" x2="21131%" y1="78829%" y2="44262%">
            <stop offset="0%" stop-color="gray" stop-opacity=".25"/>
            <stop offset="54%" stop-color="gray" stop-opacity=".12"/>
            <stop offset="100%" stop-color="gray" stop-opacity=".1"/>
        </linearGradient>
        <linearGradient id="d" x1="46224%" x2="46224%" y1="79883%" y2="60567%">
            <stop offset="0%" stop-color="gray" stop-opacity=".25"/>
            <stop offset="54%" stop-color="gray" stop-opacity=".12"/>
            <stop offset="100%" stop-color="gray" stop-opacity=".1"/>
        </linearGradient>
        <linearGradient id="e" x1="38257%" x2="47348%" y1="62581%" y2="62581%">
            <stop offset="0%" stop-color="gray" stop-opacity=".25"/>
            <stop offset="54%" stop-color="gray" stop-opacity=".12"/>
            <stop offset="100%" stop-color="gray" stop-opacity=".1"/>
        </linearGradient>
        <linearGradient id="f" x1="51342%" x2="51342%" y1="84447%" y2="41550%">
            <stop offset="0%" stop-color="gray" stop-opacity=".25"/>
            <stop offset="54%" stop-color="gray" stop-opacity=".12"/>
            <stop offset="100%" stop-color="gray" stop-opacity=".1"/>
        </linearGradient>
        <linearGradient id="g" x1="20372%" x2="20372%" y1="51650%" y2="43756%">
            <stop offset="0%" stop-color="gray" stop-opacity=".25"/>
            <stop offset="54%" stop-color="gray" stop-opacity=".12"/>
            <stop offset="100%" stop-color="gray" stop-opacity=".1"/>
        </linearGradient>
        <linearGradient id="h" x1="106194%" x2="106194%" y1="70858%" y2="28915%">
            <stop offset="0%" stop-color="gray" stop-opacity=".25"/>
            <stop offset="54%" stop-color="gray" stop-opacity=".12"/>
            <stop offset="100%" stop-color="gray" stop-opacity=".1"/>
        </linearGradient>
        <linearGradient id="i" x1="91730%" x2="91730%" y1="44463%" y2="30043%">
            <stop offset="0%" stop-color="gray" stop-opacity=".25"/>
            <stop offset="54%" stop-color="gray" stop-opacity=".12"/>
            <stop offset="100%" stop-color="gray" stop-opacity=".1"/>
        </linearGradient>
    </defs>
    <g fill="none" fill-rule="evenodd">
        <path fill="#DF5050" fill-rule="nonzero" d="M48.55 13.804c-2.551-.073-5.165 0-7.558.734-6.51 2-9.595 8.544-8.592 14.2 1.003 5.654 5.13 10.582 9.412 15.085 4.281 4.503 8.92 8.955 11.27 14.338 1.17 2.687 1.717 5.697.528 8.38-1.836 4.136-7.371 6.446-12.684 6.927-5.314.481-10.65-.455-15.982-.769-2.237-.13-4.538-.145-6.646.46-2.313.657-4.24 2.002-6.013 3.404C5.358 82.057-.187 89.56.718 97.43c1.013 8.934 10.045 15.994 19.938 19.782 3.275 1.266 6.74 2.272 9.624 4.063 7.595 4.725 9.3 13.586 8.544 21.405-.756 7.82-3.332 15.65-1.899 23.4 1.687 9.015 9.153 17.16 19.223 20.964 8.971 3.39 20.2 3.165 28.165-1.617 3.883-2.335 6.82-5.579 9.374-8.933a72.069 72.069 0 0 0 9.32-16.14c1.11-2.686 2.155-5.576 4.747-7.443 1.582-1.148 3.633-1.79 5.662-2.29 6.114-1.507 12.554-1.918 18.725-3.26 6.171-1.342 12.364-3.845 15.719-8.317 4.747-6.329 2.532-14.436 2.554-21.88.038-16.98 12.377-32.18 16.93-48.734 1.488-5.408 2.042-11.392-1.28-16.218-2.257-3.275-6.064-5.64-10.065-7.465-8.8-4.016-18.804-5.804-28.643-7.544-13.675-2.418-30.28-2.731-40.878-10.554-10.156-7.494-24.07-12.845-37.929-12.845z" opacity=".2"/>
        <g opacity=".5">
            <path fill="#DF5050" fill-rule="nonzero" d="M8.652 110.554c-.677 1-1.234 2.452-.348 4.145 1.74 3.323 6.045 2.64 8.136 5.82.56.881.871 1.897.902 2.94.08 1.8-.477 3.218-.765 4.804a8.12 8.12 0 0 0 .829 5.487 9.69 9.69 0 0 0 4.43 3.953c1.62.715 3.165.898 4.716 1.246a29.024 29.024 0 0 1 5.592 1.9c.853.357 1.655.825 2.386 1.392.891.782 1.7 1.654 2.414 2.6l6.732 8.31a23.791 23.791 0 0 0 2.848 3.115 17.156 17.156 0 0 0 3.709 2.281c2.687 1.34 5.497 2.71 7.83 2.554 2.332-.155 3.952-2.405 2.847-5.55-1.044-2.994-3.987-5.516-5.323-8.504-2.104-4.708.652-8.227-1.11-12.943-1.69-4.531-6.428-7.57-9.453-11.708-2.171-2.943-3.38-6.368-5.336-9.46-2.848-4.43-7.089-7.819-11.076-9.534a21.498 21.498 0 0 0-11.127-1.541c-1.443.158-2.864.427-3.89 1.29-1.088.919-.949 2.634-1.658 3.852-.813 1.402-2.364 2.196-3.285 3.55z"/>
            <path stroke="#535461" stroke-width=".633" d="M12.877 104.18s33.697 31.504 47.287 56.032M8.434 114.892s13.466-2.617 22.786 7.88M18.004 134.674s14.874-10.402 20.02-4.351M28.549 103.326s-1.567 7.962 4.07 20.968M54.46 134.228s-1.316 5.221-11.898 1.383M43.717 152.494s6.459-7.466 3.522-11.13"/>
        </g>
        <path fill="#DF5050" fill-rule="nonzero" d="M2.32 74.013c-1.583 1.87-3.064 4.459-1.9 7.012 2.241 5.013 10.536 2.56 13.495 7.228.886 1.396 1.006 3.101.8 4.624-.398 2.977-1.873 5.506-2.892 8.227-1.019 2.722-1.547 6.013-.11 8.887 1.382 2.781 4.297 4.537 7.12 5.237 2.823.7 5.652.541 8.472.633 3.35.131 6.676.621 9.921 1.462 1.426.323 2.792.872 4.045 1.626 1.44.921 2.604 2.273 3.743 3.602l10.127 11.8c1.345 1.583 2.719 3.165 4.387 4.326 1.924 1.339 4.114 2.02 6.269 2.674 4.636 1.418 9.494 2.848 13.924 1.877 4.43-.972 8.15-5.206 7.042-10.108-1.054-4.667-5.807-7.978-7.409-12.55-2.532-7.206 3.719-13.89 1.842-21.222-1.798-7.032-9.766-10.658-14.197-16.61-3.164-4.266-4.411-9.602-7.177-14.14-3.994-6.55-10.956-10.89-17.887-12.538-6.93-1.649-13.902-.88-20.403.77-2.753.698-5.506 1.581-7.69 3.328-2.32 1.858-2.585 4.677-4.275 6.918-1.96 2.604-5.114 4.405-7.247 6.937z"/>
        <path stroke="#535461" stroke-width=".633" d="M12.178 62.114S65.873 104.36 83.94 141.1M.592 81.291s26.067-8.433 40.362 6.222M12.554 111.354s31.049-21.835 38.897-13.32M41.856 55.937s-5.351 13.73 1.266 33.69M81.114 99.547s-4.054 9.092-22.754 5.912M55.413 133.222s14.39-14.393 9.991-19.62"/>
        <ellipse cx="195.567" cy="204.797" fill="#DF5050" fill-rule="nonzero" opacity=".05" rx="147.157" ry="39.405"/>
        <path fill="#DF5050" fill-rule="nonzero" d="M310.185.13s-11.339 11.338-4.936 28.164c6.402 16.826-10.976 44.807-10.976 44.807s.187-.028.532-.088c23.289-4.114 34.862-30.747 21.912-50.535-4.813-7.355-8.766-15.981-6.532-22.348z"/>
        <path stroke="#535461" stroke-width=".633" d="M310.185.13s-6.402 13.898 0 25.237c6.403 11.339 1.099 43.161-15.912 47.734"/>
        <path fill="#DF5050" fill-rule="nonzero" d="M330.382 45.994s-12.94-2.06-14.117 9.534c-1.177 11.595-24.88 13.203-24.88 13.203l.442.294c19.57 12.845 38.293 8.184 35.445-8.86-1.035-6.355-.95-12.735 3.11-14.171z"/>
        <path fill="#F5F5F5" fill-rule="nonzero" d="M330.382 45.994s-12.94-2.06-14.117 9.534c-1.177 11.595-24.88 13.203-24.88 13.203l.442.294c19.57 12.845 38.293 8.184 35.445-8.86-1.035-6.355-.95-12.735 3.11-14.171z" opacity=".2"/>
        <path stroke="#535461" stroke-width=".633" d="M330.382 45.994s-10.044 2.215-9.218 11.335c.826 9.12-14.915 20.08-29.78 11.393M78.072 88.544s-4.196-14.24.788-24.728a22.496 22.496 0 0 0 1.82-14.113 37.838 37.838 0 0 0-1.997-6.624"/>
        <path fill="#DF5050" fill-rule="nonzero" d="M81.778 36.45c0 1.746-3.164 6.806-3.164 6.806s-3.165-5.063-3.165-6.807a3.165 3.165 0 0 1 6.33 0zM87.006 46.12c-.949 1.465-6.354 3.997-6.354 3.997s.098-5.968 1.047-7.433a3.165 3.165 0 1 1 5.307 3.436zM86.779 62.646c-1.56.784-7.504.243-7.504.243s3.098-5.101 4.655-5.886a3.165 3.165 0 1 1 2.849 5.646v-.003zM83.791 75.108c-1.405 1.038-7.355 1.506-7.355 1.506s2.19-5.55 3.595-6.589a3.165 3.165 0 1 1 3.76 5.083zM74.015 50.456c1.266 1.215 7.086 2.478 7.086 2.478s-1.427-5.795-2.68-7.01a3.165 3.165 0 1 0-4.406 4.535v-.003zM70.702 65.076c1.56.785 7.503.244 7.503.244s-3.098-5.102-4.655-5.886a3.165 3.165 0 0 0-2.848 5.645v-.003zM69.436 79.728c1.405 1.038 7.355 1.506 7.355 1.506s-2.19-5.55-3.595-6.588a3.165 3.165 0 0 0-3.76 5.082z"/>
        <path fill="url(#a)" fill-rule="nonzero" d="M339.383 171.36h-26.928a8.974 8.974 0 0 0 .949-4.009V44.731a9.016 9.016 0 0 0-9.016-9.01H95.94a9.016 9.016 0 0 0-9.016 9.016v122.614a8.974 8.974 0 0 0 .95 4.01H59.992a2.383 2.383 0 0 0-2.383 2.383v1.92c0 7.366 5.97 13.336 13.336 13.336h257.503c7.365 0 13.336-5.97 13.336-13.335v-1.921a2.383 2.383 0 0 0-2.402-2.383zm-165.92 7.627l-2.311-2.623h57.315l-2.557 2.623h-52.448z"/>
        <rect width="221.35" height="137.465" x="89.478" y="37.453" fill="#535461" fill-rule="nonzero" rx="7.361"/>
        <path fill="#F1F1F4" fill-rule="nonzero" d="M94.14 57.491h211.565v112.301H94.14z"/>
        <ellipse cx="199.922" cy="47.703" fill="#FFF" fill-rule="nonzero" rx="1.864" ry="1.864"/>
        <path fill="#535461" fill-rule="nonzero" d="M232.588 170.022l-7.28 7.456h-51.267l-6.57-7.456H63.148a2.33 2.33 0 0 0-2.33 2.33v1.879a13.031 13.031 0 0 0 13.049 13.032H325.52c7.198 0 13.033-5.835 13.033-13.032v-1.88a2.33 2.33 0 0 0-2.33-2.329H232.588z"/>
        <path fill="#FFF" fill-rule="nonzero" d="M107.061 66.047h57.841v43.589h-57.841z"/>
        <path fill="#DF5050" fill-rule="nonzero" d="M112.719 69.82h19.279v10.896h-19.279z" opacity=".2"/>
        <path fill="#E6E8EC" fill-rule="nonzero" d="M136.609 69.82h22.634v2.516h-22.634zM136.609 74.009h15.928v2.516h-15.928zM136.609 78.199h22.634v2.516h-22.634zM112.719 82.392h46.524v2.516h-46.524zM112.719 86.582h46.524v2.516h-46.524zM112.719 90.775h46.524v2.516h-46.524zM112.719 94.965h42.752v2.516h-42.752zM112.719 99.155h46.524v2.516h-46.524zM112.719 103.348h46.524v2.516h-46.524z"/>
        <path fill="#FFF" fill-rule="nonzero" d="M170.769 66.047h57.841v43.589h-57.841z"/>
        <path fill="#DF5050" fill-rule="nonzero" d="M176.424 69.82h19.279v10.896h-19.279z" opacity=".2"/>
        <path fill="#E6E8EC" fill-rule="nonzero" d="M200.317 69.82h22.634v2.516h-22.634zM200.317 74.009h15.928v2.516h-15.928zM200.317 78.199h22.634v2.516h-22.634zM176.424 82.392h46.524v2.516h-46.524zM176.424 86.582h46.524v2.516h-46.524zM176.424 90.775h46.524v2.516h-46.524zM176.424 94.965h42.752v2.516h-42.752zM176.424 99.155h46.524v2.516h-46.524zM176.424 103.348h46.524v2.516h-46.524z"/>
        <path fill="#FFF" fill-rule="nonzero" d="M234.474 66.047h57.841v43.589h-57.841z"/>
        <path fill="#DF5050" fill-rule="nonzero" d="M240.132 69.82h19.279v10.896h-19.279z" opacity=".2"/>
        <path fill="#E6E8EC" fill-rule="nonzero" d="M264.022 69.82h22.634v2.516h-22.634zM264.022 74.009h15.928v2.516h-15.928zM264.022 78.199h22.634v2.516h-22.634zM240.132 82.392h46.524v2.516h-46.524zM240.132 86.582h46.524v2.516h-46.524zM240.132 90.775h46.524v2.516h-46.524zM240.132 94.965h42.752v2.516h-42.752zM240.132 99.155h46.524v2.516h-46.524zM240.132 103.348h46.524v2.516h-46.524z"/>
        <path fill="#FFF" fill-rule="nonzero" d="M107.061 115.082h57.841v43.589h-57.841z"/>
        <path fill="#DF5050" fill-rule="nonzero" d="M112.719 118.854h19.279v10.896h-19.279z" opacity=".2"/>
        <path fill="#E6E8EC" fill-rule="nonzero" d="M136.609 118.854h22.634v2.516h-22.634zM136.609 123.047h15.928v2.516h-15.928zM136.609 127.237h22.634v2.516h-22.634zM112.719 131.427h46.524v2.516h-46.524zM112.719 135.62h46.524v2.516h-46.524zM112.719 139.81h46.524v2.516h-46.524zM112.719 144.003h42.752v2.516h-42.752zM112.719 148.193h46.524v2.516h-46.524zM112.719 152.383h46.524v2.516h-46.524z"/>
        <path fill="#FFF" fill-rule="nonzero" d="M170.769 115.082h57.841v43.589h-57.841z"/>
        <path fill="#DF5050" fill-rule="nonzero" d="M176.424 118.854h19.279v10.896h-19.279z" opacity=".2"/>
        <path fill="#E6E8EC" fill-rule="nonzero" d="M200.317 118.854h22.634v2.516h-22.634zM200.317 123.047h15.928v2.516h-15.928zM200.317 127.237h22.634v2.516h-22.634zM176.424 131.427h46.524v2.516h-46.524zM176.424 135.62h46.524v2.516h-46.524zM176.424 139.81h46.524v2.516h-46.524zM176.424 144.003h42.752v2.516h-42.752zM176.424 148.193h46.524v2.516h-46.524zM176.424 152.383h46.524v2.516h-46.524z"/>
        <path fill="#000" fill-rule="nonzero" d="M234.474 115.082h57.841v43.589h-57.841z" opacity=".1"/>
        <path fill="url(#b)" fill-rule="nonzero" d="M139.9 80.715H50.658a8.175 8.175 0 0 0-8.19 8.171v123.652a8.174 8.174 0 0 0 8.187 8.165h89.244a8.175 8.175 0 0 0 8.187-8.165V88.886a8.174 8.174 0 0 0-8.184-8.17z"/>
        <rect width="103.105" height="137.051" x="43.726" y="82.392" fill="#535461" fill-rule="nonzero" rx="6.329"/>
        <path fill="#F1F1F4" fill-rule="nonzero" d="M48.964 95.358h92.627v111.123H48.964z"/>
        <ellipse cx="94.858" cy="88.68" fill="#FFF" fill-rule="nonzero" rx="1.256" ry="1.256"/>
        <ellipse cx="94.858" cy="212.737" fill="#FFF" fill-rule="nonzero" rx="3.772" ry="3.772"/>
        <path fill="#FFF" fill-rule="nonzero" d="M52.967 106.712h26.419v19.911H52.967z"/>
        <path fill="#DF5050" fill-rule="nonzero" d="M55.553 108.437h8.807v4.978h-8.807z" opacity=".2"/>
        <path fill="#E6E8EC" fill-rule="nonzero" d="M66.464 108.437h10.339v1.149H66.464zM66.464 110.351h7.276v1.149h-7.276zM66.464 112.266h10.339v1.149H66.464zM55.553 114.18h21.251v1.149H55.553zM55.553 116.095h21.251v1.149H55.553zM55.553 118.009h21.251v1.149H55.553zM55.553 119.924h19.529v1.149H55.553zM55.553 121.839h21.251v1.149H55.553zM55.553 123.753h21.251v1.149H55.553z"/>
        <path fill="#FFF" fill-rule="nonzero" d="M82.069 106.712h26.419v19.911H82.069z"/>
        <path fill="#DF5050" fill-rule="nonzero" d="M84.652 108.437h8.807v4.978h-8.807z" opacity=".2"/>
        <path fill="#E6E8EC" fill-rule="nonzero" d="M95.567 108.437h10.339v1.149H95.567zM95.567 110.351h7.276v1.149h-7.276zM95.567 112.266h10.339v1.149H95.567zM84.652 114.18h21.251v1.149H84.652zM84.652 116.095h21.251v1.149H84.652zM84.652 118.009h21.251v1.149H84.652zM84.652 119.924h19.529v1.149H84.652zM84.652 121.839h21.251v1.149H84.652zM84.652 123.753h21.251v1.149H84.652z"/>
        <path fill="#FFF" fill-rule="nonzero" d="M111.169 106.712h26.419v19.911h-26.419z"/>
        <path fill="#DF5050" fill-rule="nonzero" d="M113.754 108.437h8.807v4.978h-8.807z" opacity=".2"/>
        <path fill="#E6E8EC" fill-rule="nonzero" d="M124.666 108.437h10.339v1.149h-10.339zM124.666 110.351h7.276v1.149h-7.276zM124.666 112.266h10.339v1.149h-10.339zM113.754 114.18h21.251v1.149h-21.251zM113.754 116.095h21.251v1.149h-21.251zM113.754 118.009h21.251v1.149h-21.251zM113.754 119.924h19.529v1.149h-19.529zM113.754 121.839h21.251v1.149h-21.251zM113.754 123.753h21.251v1.149h-21.251z"/>
        <path fill="#FFF" fill-rule="nonzero" d="M52.967 129.111h26.419v19.911H52.967z"/>
        <path fill="#DF5050" fill-rule="nonzero" d="M55.553 130.835h8.807v4.978h-8.807z" opacity=".2"/>
        <path fill="#E6E8EC" fill-rule="nonzero" d="M66.464 130.835h10.339v1.149H66.464zM66.464 132.75h7.276v1.149h-7.276zM66.464 134.665h10.339v1.149H66.464zM55.553 136.579h21.251v1.149H55.553zM55.553 138.494h21.251v1.149H55.553zM55.553 140.408h21.251v1.149H55.553zM55.553 142.323h19.529v1.149H55.553zM55.553 144.237h21.251v1.149H55.553zM55.553 146.152h21.251v1.149H55.553z"/>
        <path fill="#FFF" fill-rule="nonzero" d="M82.069 129.111h26.419v19.911H82.069z"/>
        <path fill="#DF5050" fill-rule="nonzero" d="M84.652 130.835h8.807v4.978h-8.807z" opacity=".2"/>
        <path fill="#E6E8EC" fill-rule="nonzero" d="M95.567 130.835h10.339v1.149H95.567zM95.567 132.75h7.276v1.149h-7.276zM95.567 134.665h10.339v1.149H95.567zM84.652 136.579h21.251v1.149H84.652zM84.652 138.494h21.251v1.149H84.652zM84.652 140.408h21.251v1.149H84.652zM84.652 142.323h19.529v1.149H84.652zM84.652 144.237h21.251v1.149H84.652zM84.652 146.152h21.251v1.149H84.652z"/>
        <path fill="#FFF" fill-rule="nonzero" d="M111.169 129.111h26.419v19.911h-26.419z"/>
        <path fill="#DF5050" fill-rule="nonzero" d="M113.754 130.835h8.807v4.978h-8.807z" opacity=".2"/>
        <path fill="#E6E8EC" fill-rule="nonzero" d="M124.666 130.835h10.339v1.149h-10.339zM124.666 132.75h7.276v1.149h-7.276zM124.666 134.665h10.339v1.149h-10.339zM113.754 136.579h21.251v1.149h-21.251zM113.754 138.494h21.251v1.149h-21.251zM113.754 140.408h21.251v1.149h-21.251zM113.754 142.323h19.529v1.149h-19.529zM113.754 144.237h21.251v1.149h-21.251zM113.754 146.152h21.251v1.149h-21.251z"/>
        <path fill="#FFF" fill-rule="nonzero" d="M52.967 152.396h26.419v19.911H52.967z"/>
        <path fill="#DF5050" fill-rule="nonzero" d="M55.553 154.12h8.807v4.978h-8.807z" opacity=".2"/>
        <path fill="#E6E8EC" fill-rule="nonzero" d="M66.464 154.12h10.339v1.149H66.464zM66.464 156.035h7.276v1.149h-7.276zM66.464 157.949h10.339v1.149H66.464zM55.553 159.864h21.251v1.149H55.553zM55.553 161.778h21.251v1.149H55.553zM55.553 163.693h21.251v1.149H55.553zM55.553 165.608h19.529v1.149H55.553zM55.553 167.522h21.251v1.149H55.553zM55.553 169.437h21.251v1.149H55.553z"/>
        <path fill="#FFF" fill-rule="nonzero" d="M82.069 152.396h26.419v19.911H82.069z"/>
        <path fill="#DF5050" fill-rule="nonzero" d="M84.652 154.12h8.807v4.978h-8.807z" opacity=".2"/>
        <path fill="#E6E8EC" fill-rule="nonzero" d="M95.567 154.12h10.339v1.149H95.567zM95.567 156.035h7.276v1.149h-7.276zM95.567 157.949h10.339v1.149H95.567zM84.652 159.864h21.251v1.149H84.652zM84.652 161.778h21.251v1.149H84.652zM84.652 163.693h21.251v1.149H84.652zM84.652 165.608h19.529v1.149H84.652zM84.652 167.522h21.251v1.149H84.652zM84.652 169.437h21.251v1.149H84.652z"/>
        <path fill="#FFF" fill-rule="nonzero" d="M111.169 152.396h26.419v19.911h-26.419z"/>
        <path fill="#DF5050" fill-rule="nonzero" d="M113.754 154.12h8.807v4.978h-8.807z" opacity=".2"/>
        <path fill="#E6E8EC" fill-rule="nonzero" d="M124.666 154.12h10.339v1.149h-10.339zM124.666 156.035h7.276v1.149h-7.276zM124.666 157.949h10.339v1.149h-10.339zM113.754 159.864h21.251v1.149h-21.251zM113.754 161.778h21.251v1.149h-21.251zM113.754 163.693h21.251v1.149h-21.251zM113.754 165.608h19.529v1.149h-19.529zM113.754 167.522h21.251v1.149h-21.251zM113.754 169.437h21.251v1.149h-21.251z"/>
        <path fill="#FFF" fill-rule="nonzero" d="M52.967 174.794h26.419v19.911H52.967z"/>
        <path fill="#DF5050" fill-rule="nonzero" d="M55.553 176.519h8.807v4.978h-8.807z" opacity=".2"/>
        <path fill="#E6E8EC" fill-rule="nonzero" d="M66.464 176.519h10.339v1.149H66.464zM66.464 178.434h7.276v1.149h-7.276zM66.464 180.348h10.339v1.149H66.464zM55.553 182.263h21.251v1.149H55.553zM55.553 184.177h21.251v1.149H55.553zM55.553 186.092h21.251v1.149H55.553zM55.553 188.006h19.529v1.149H55.553zM55.553 189.921h21.251v1.149H55.553zM55.553 191.835h21.251v1.149H55.553z"/>
        <path fill="#FFF" fill-rule="nonzero" d="M82.069 174.794h26.419v19.911H82.069z"/>
        <path fill="#DF5050" fill-rule="nonzero" d="M84.652 176.519h8.807v4.978h-8.807z" opacity=".2"/>
        <path fill="#E6E8EC" fill-rule="nonzero" d="M95.567 176.519h10.339v1.149H95.567zM95.567 178.434h7.276v1.149h-7.276zM95.567 180.348h10.339v1.149H95.567zM84.652 182.263h21.251v1.149H84.652zM84.652 184.177h21.251v1.149H84.652zM84.652 186.092h21.251v1.149H84.652zM84.652 188.006h19.529v1.149H84.652zM84.652 189.921h21.251v1.149H84.652zM84.652 191.835h21.251v1.149H84.652z"/>
        <path fill="#000" fill-rule="nonzero" d="M111.169 174.794h26.419v19.911h-26.419z" opacity=".1"/>
        <path fill="url(#c)" fill-rule="nonzero" d="M71.876 122.627H26.052a4.532 4.532 0 0 0-4.542 4.522v100.345a4.532 4.532 0 0 0 4.542 4.522h45.824a4.532 4.532 0 0 0 4.541-4.522V127.152a4.532 4.532 0 0 0-4.54-4.525z"/>
        <rect width="54.068" height="108.133" x="21.931" y="123.468" fill="#535461" fill-rule="nonzero" rx="3.481"/>
        <path fill="#F1F1F4" fill-rule="nonzero" d="M25.912 133.525h46.103v88.013H25.912z"/>
        <ellipse cx="43.514" cy="128.497" fill="#FFF" fill-rule="nonzero" rx="1" ry="1"/>
        <rect width="9.222" height="1" x="45.612" y="128.076" fill="#FFF" fill-rule="nonzero" rx=".316"/>
        <ellipse cx="48.755" cy="225.731" fill="#FFF" fill-rule="nonzero" rx="2.934" ry="2.934"/>
        <path fill="#000" fill-rule="nonzero" d="M33.245 138.794h31.438v23.693H33.245z" opacity=".1"/>
        <path fill="#FFF" fill-rule="nonzero" d="M33.245 165.449h31.438v23.693H33.245z"/>
        <path fill="#DF5050" fill-rule="nonzero" d="M36.321 167.5h10.478v5.924H36.321z" opacity=".2"/>
        <path fill="#E6E8EC" fill-rule="nonzero" d="M49.306 167.5h12.301v1.367H49.306zM49.306 169.778h8.659v1.367h-8.659zM49.306 172.054h12.301v1.367H49.306zM36.321 174.332H61.61v1.367H36.321zM36.321 176.611H61.61v1.367H36.321zM36.321 178.889H61.61v1.367H36.321zM36.321 181.168h23.238v1.367H36.321zM36.321 183.446H61.61v1.367H36.321zM36.321 185.725H61.61v1.367H36.321z"/>
        <path fill="#FFF" fill-rule="nonzero" d="M33.245 192.158h31.438v23.693H33.245z"/>
        <path fill="#DF5050" fill-rule="nonzero" d="M36.321 194.209h10.478v5.924H36.321z" opacity=".2"/>
        <path fill="#E6E8EC" fill-rule="nonzero" d="M49.306 194.209h12.301v1.367H49.306zM49.306 196.487h8.659v1.367h-8.659zM49.306 198.766h12.301v1.367H49.306zM36.321 201.044H61.61v1.367H36.321zM36.321 203.323H61.61v1.367H36.321zM36.321 205.601H61.61v1.367H36.321zM36.321 207.88h23.238v1.367H36.321zM36.321 210.155H61.61v1.367H36.321zM36.321 212.434H61.61v1.367H36.321z"/>
        <path fill="url(#d)" fill-rule="nonzero" d="M172.05 203.351c-2.126-2.579-4.702-5.544-4.341-8.978.29-2.781-.409-5.35-.27-8.139.197-3.962-.604-7.066-3.458-9.607-1.668-1.485-4.456-2.652-5.285-2.355-1.646.589-3.44.364-5.133.76-1.285.316-2.143.762-2.671 1.341-1.067.95-1.086 2.298-.598 3.738a6.31 6.31 0 0 0 3.126 8.86c-1.187.494-2.215 1.637-2.61 3.953a27.028 27.028 0 0 1-1.267 4.67c-.25.12-.509.226-.772.317.057.023.117.038.178.06-.124.048-.25.095-.374.14.228.088.463.156.703.202a26.845 26.845 0 0 1-3.45 6.288s-3.582.791-4.975-.592c0 0 .228.266.535.665a419.42 419.42 0 0 0-5.51-2.247c-1.386-.55-1.743 0-1.724.766-.341.04-.67.147-.969.316a9.352 9.352 0 0 0-1.285-.69c-.797-.196-3.383-1.582-5.971 3.165-1.507 2.763-5.38 7.8-8.34 11.532-5.775 2.655-13.29 6.012-16.082 6.864h-1.785a24.915 24.915 0 0 0-.399-.633l-.139.092-.06-.092s-3.516 2.433-7.086 2.452a6.716 6.716 0 0 1-1.506-.196c-1.643-.414-2.798-.598-3.624-.582-.978-.016-1.531.215-1.876.652a1.718 1.718 0 0 0-.124.18 2.123 2.123 0 0 0-.104.2c-.032.07-.06.142-.089.218a.446.446 0 0 0 .11.373 2 2 0 0 0 .156.197l.098.107c.707.658 1.473 1.25 2.288 1.77.294.198.605.401.93.61l.618.392.55.345.222.136.247.152.44.27.262.157.494.295.399.237c1.044.633 2.088 1.215 3.025 1.744l.658.37.064.035.42.234.732.405.503.275.234.13.253.136.05.029.438.237c.182.03.368-.02.509-.14.127-.537.437-1.69.766-1.778.329-.088 1.766-2.607 2.174-4.285h3.883c.763-.064 1.521-.179 2.27-.345-1.004.716-1.998 1.165-2.77.972-1.633-.405-3.18.589-3.336 1.582l-.019.06v.456c0 .02 0 .054.02.08.018.025 0 .034 0 .05a.95.95 0 0 0 .04.101v.025c.022.042.046.082.073.12l.032.042.063.079.045.044.072.07.054.044.086.063.063.042.104.06.07.038.13.06.066.028c.07.029.143.057.222.083.079.025.272.082.44.123l.167.041.244.057.13.029.531.107.26.048.212.038.487.085.95.155.838.127 1.092.155.24.031.393.054.563.076.387.05.996.127.317.038.633.076c.826.098 1.626.193 2.36.276l.852.095.43.047.184.019.516.057.288.032.351.038.497.05h.054l.316.032a.288.288 0 0 0 .317-.282v-.031a.282.282 0 0 0 .047-.152c.008-.474.068-.945.177-1.405.022-.08.048-.162.073-.24l.032-.093c.035-.098.07-.196.11-.297.029-.072.053-.144.073-.218l.02-.07c0-.038.018-.08.028-.12.402-1.367-.083-3.915-.222-4.915a5.335 5.335 0 0 0-.218-.95c.025.003.05.003.076 0 .206-.076.4-.183.576-.316 2.933-1.047 5.411-2.243 6.193-3.443a5.361 5.361 0 0 1 3.798.396c1.519.756 13.016 4.506 18.37 6.24.95.83 1.716 1.314 2.13 1.266 0 0 6.814 1.101 9.555-1.05.243.167.395.259.395.259s3.981-1.978 4.58-4.547c.192-.833.367-2.064.544-3.425a4.978 4.978 0 0 0 1.446-3.5c.123-4.32 1.798-9.253 3.038-13.648 1.506.117 2.089-.165 3.481-.848l-.06-.08.24-.1zm-22.823 6.469l-.76-.257a6.33 6.33 0 0 0 .662-1.101l.098 1.358zm-4.285 1.816l4.614 2.77.041.562c-.056.429-.043.864.038 1.288-2.031-1.807-4.411-4-4.69-4.62h-.003zm-1.883-4.032c-.503-.208-.92-.395-1.206-.55l1.07.066c.063.156.11.319.14.484h-.004zm-12.342 4.51s.797-1.779 2.589 1.187c.278.462.79 1.193 1.468 2.104l-5.21-.7a7.595 7.595 0 0 0 1.147-2.591h.006z"/>
        <path fill="#F7C4A7" fill-rule="nonzero" d="M142.176 204.965s-3.652-1.538-6.532-2.69-1.152 2.69-1.152 2.69 4.804 1.345 4.804 1.538c0 .193 4.035.383 4.035.383l-1.155-1.92z"/>
        <path fill="#000" fill-rule="nonzero" d="M142.176 204.965s-3.652-1.538-6.532-2.69-1.152 2.69-1.152 2.69 4.804 1.345 4.804 1.538c0 .193 4.035.383 4.035.383l-1.155-1.92z" opacity=".05"/>
        <path fill="#575988" fill-rule="nonzero" d="M157.73 189.788s-6.531-3.459-7.687 3.266a27.452 27.452 0 0 1-4.794 11.338s-3.459.77-4.804-.576c0 0 3.266 3.842 1.728 4.228 0 0 3.459 2.497 4.997 1.728 1.538-.769 2.69-5.956 3.266-7.3.576-1.345 2.69-13.07 7.294-12.684z"/>
        <path fill="#000" fill-rule="nonzero" d="M157.73 189.788s-6.531-3.459-7.687 3.266a27.452 27.452 0 0 1-4.794 11.338s-3.459.77-4.804-.576c0 0 3.266 3.842 1.728 4.228 0 0 3.459 2.497 4.997 1.728 1.538-.769 2.69-5.956 3.266-7.3.576-1.345 2.69-13.07 7.294-12.684z" opacity=".1"/>
        <path fill="#F7C4A7" fill-rule="nonzero" d="M154.088 187.481s4.035 4.61 4.228 8.453c.193 3.841 4.61-4.035 4.997-4.228.386-.193-3.845-6.722-4.231-8.833-.386-2.11-4.994 4.608-4.994 4.608z"/>
        <path fill="#F7C4A7" fill-rule="nonzero" d="M156.873 189.453l-2.545 2.303 1.2 4.852 3.266-3.073-.383-3.073zM103.747 223.604H99.33l1.728 4.225 4.228-1.152z"/>
        <path fill="#000" fill-rule="nonzero" d="M100.349 222.994s-4.57 3.186-8.485 2.193c-3.915-.994-4.972-.633-5.427.661-.421 1.177 10.921 7.408 12.728 8.393a.206.206 0 0 0 .317-.137c.123-.522.42-1.642.737-1.727.414-.111 2.31-3.646 2.215-5.042-.095-1.395-2.085-4.341-2.085-4.341z" opacity=".1"/>
        <path fill="#F3B5B7" fill-rule="nonzero" d="M100.159 222.994s-4.57 3.186-8.485 2.193c-3.914-.994-4.971-.633-5.427.661-.421 1.177 10.921 7.408 12.728 8.393a.206.206 0 0 0 .317-.137c.123-.522.42-1.642.737-1.727.415-.111 2.31-3.646 2.215-5.042-.095-1.395-2.085-4.341-2.085-4.341z"/>
        <path fill="#575988" fill-rule="nonzero" d="M137.948 215.342l-12.874-1.728s-20.944 9.99-23.44 10.183l.575 4.43h3.842c1.538 0 16.523-3.265 18.637-6.53a5.146 5.146 0 0 1 3.652.382c1.921.95 20.368 6.918 20.368 6.918l-10.76-13.655z"/>
        <path fill="#000" fill-rule="nonzero" d="M137.948 215.342l-12.874-1.728s-20.944 9.99-23.44 10.183l.575 4.43h3.842c1.538 0 16.523-3.265 18.637-6.53a5.146 5.146 0 0 1 3.652.382c1.921.95 20.368 6.918 20.368 6.918l-10.76-13.655z" opacity=".1"/>
        <path fill="#F7C4A7" fill-rule="nonzero" d="M115.083 221.297l-2.114 2.69 2.114 1.152 3.076-2.304z"/>
        <path fill="#575988" fill-rule="nonzero" d="M151.78 218.222s-6.91-5.918-7.395-6.994c-.484-1.076-11.817-8.374-12.586-8.567-.769-.193-3.266-1.538-5.763 3.073-2.497 4.61-11.709 15.753-11.709 15.753s2.883 4.035 3.842 3.842c.959-.193 11.71-9.221 12.488-13.642 0 0 .769-1.728 2.497 1.152 1.728 2.88 12.874 16.715 14.988 16.522 0 0 8.262 1.345 9.99-1.921 1.728-3.266-6.351-9.218-6.351-9.218z"/>
        <path fill="url(#e)" fill-rule="nonzero" d="M121.071 187.203h28.77v21.68h-28.77z"/>
        <path fill="#FFF" fill-rule="nonzero" d="M122.245 188.085h26.419v19.911h-26.419z"/>
        <path fill="#DF5050" fill-rule="nonzero" d="M124.831 189.81h8.807v4.978h-8.807z" opacity=".2"/>
        <path fill="#E6E8EC" fill-rule="nonzero" d="M135.742 189.81h10.339v1.149h-10.339zM135.742 191.725h7.276v1.149h-7.276zM135.742 193.639h10.339v1.149h-10.339zM124.831 195.554h21.251v1.149h-21.251zM124.831 197.468h21.251v1.149h-21.251zM124.831 199.383h21.251v1.149h-21.251zM124.831 201.297h19.529v1.149h-19.529zM124.831 203.212h21.251v1.149h-21.251zM124.831 205.127h21.251v1.149h-21.251z"/>
        <path fill="#F3B5B7" fill-rule="nonzero" d="M155.72 190.076s-2.401 1.057-2.594 5.475c-.193 4.417-4.43 11.911-4.43 11.911l.382 8.839s4.611 4.61 4.997 7.493c.386 2.883 3.655 4.804 3.655 4.804s3.842-1.92 4.431-4.43.95-8.646 1.921-10.953c.972-2.307.383-16.715.383-16.715l-2.883-4.997-1.538-1.728-4.035 4.611s-2.209-2.968-.288-4.31z"/>
        <path fill="#000" fill-rule="nonzero" d="M150.053 213.418s-.576-6.918 1.152-8.453l3.459-9.81s1.25-4.706 1.057-5.092c-.193-.386-4.516 3.747-4.516 3.747l-2.883 10.184.769 10.76.962-1.336z" opacity=".1"/>
        <path fill="#575988" fill-rule="nonzero" d="M149.86 213.418s-.576-6.918 1.152-8.453l3.459-9.81s1.345-4.804 1.152-5.187c-.193-.383-4.611 3.842-4.611 3.842l-2.883 10.184.769 10.76.962-1.336z"/>
        <path fill="#F7C4A7" fill-rule="nonzero" d="M151.205 210.345s-9.614-3.073-10.184-3.842c-.57-.769-6.725-5.762-8.839-2.307-2.114 3.456 7.877 4.43 7.877 4.43l10.184 6.15.962-4.431z"/>
        <path fill="#000" fill-rule="nonzero" d="M115.498 223.968l-2.848-.512s-4.659 5.965-7.083 5.36c-2.424-.604-4.658 2.007-2.095 2.849 2.317.756 12.314 1.816 14.225 2.012a.278.278 0 0 0 .317-.272 6.117 6.117 0 0 1 .424-2.164c.513-1.266 0-3.963-.143-4.988a4.962 4.962 0 0 0-.56-1.725l-2.237-.56z" opacity=".1"/>
        <path fill="#F3B5B7" fill-rule="nonzero" d="M115.454 224.155l-2.849-.513s-4.652 5.969-7.092 5.361c-2.44-.607-4.658 2.006-2.095 2.848 2.317.757 12.314 1.817 14.226 2.013a.278.278 0 0 0 .316-.272 6.117 6.117 0 0 1 .424-2.165c.513-1.266 0-3.962-.142-4.987a4.962 4.962 0 0 0-.56-1.725l-2.228-.56z"/>
        <ellipse cx="155.528" cy="183.544" fill="#000" fill-rule="nonzero" opacity=".1" rx="6.149" ry="6.149"/>
        <ellipse cx="154.952" cy="183.544" fill="#F7C4A7" fill-rule="nonzero" rx="6.149" ry="6.149"/>
        <path fill="#575988" fill-rule="nonzero" d="M161.003 189.595s7.3 2.497 7.3 7.687-4.034 13.449-4.227 20.174c-.193 6.724-10.76 5.762-10.76 5.762s-1.538-22.67 0-24.402c1.538-1.73 8.456-8.452 7.687-9.221z"/>
        <path fill="#000" fill-rule="nonzero" d="M159.658 200.354s-2.69 11.912-9.032 9.81c0 0-3.266 4.804-.95 6.918 0 0 5.573 1.345 9.222-2.307 3.65-3.652 6.333-5.003 6.909-9.433.576-4.43.95-10.567-.95-9.99-1.898.575-5.2 5.002-5.2 5.002z" opacity=".1"/>
        <path fill="#575988" fill-rule="nonzero" d="M159.85 200.161s-2.69 11.912-9.031 9.81c0 0-3.266 4.804-.95 6.918 0 0 5.573 1.345 9.222-2.307 3.65-3.652 6.33-4.997 6.918-9.414.589-4.418.95-10.567-.95-9.99-1.898.575-5.208 4.983-5.208 4.983z"/>
        <path fill="#DDDBE2" fill-rule="nonzero" d="M103.573 231.291c-.79-.26-1.123-.687-1.136-1.136-.316.633-.12 1.33.997 1.696 2.317.757 12.317 1.817 14.225 2.013a.278.278 0 0 0 .317-.275.282.282 0 0 0-.25-.285c-2.105-.228-11.868-1.27-14.153-2.013zM86.51 225.51c.049-.142.111-.279.186-.409-.207.21-.362.466-.452.747-.421 1.177 10.921 7.405 12.728 8.393a.209.209 0 0 0 .316-.137.209.209 0 0 0-.1-.23c-2.007-1.096-13.096-7.2-12.678-8.365z"/>
        <path fill="#000" fill-rule="nonzero" d="M154.097 188.956c-.54 1.193-.655 2.531-1.053 3.797a8.345 8.345 0 0 1-5.143 5.336c1.997.797 4.351-.178 5.896-1.792 1.544-1.613 2.446-3.762 3.313-5.85 2.24 1.506 1.969 4.968 2.719 7.664a8.5 8.5 0 0 0 4.525 5.408 8.102 8.102 0 0 0 6.93-.14c-2.053-2.506-4.977-5.942-4.63-9.278.283-2.702-1.657-4.766-1.521-7.474.19-3.849-1.266-5.795-4.035-8.263-1.611-1.443.924-3.481-1.152-2.883-.817.234-1.678-.633-2.478-.351-1.583.57-3.32.354-4.953.737-8.49 1.987 2.367 11.345 1.582 13.089z" opacity=".1"/>
        <path fill="#B96B6B" fill-rule="nonzero" d="M154.29 188.763c-.54 1.193-.655 2.531-1.053 3.797a8.345 8.345 0 0 1-5.143 5.336c1.997.797 4.351-.178 5.896-1.792 1.544-1.613 2.446-3.762 3.313-5.85 2.24 1.505 1.969 4.968 2.719 7.664a8.5 8.5 0 0 0 4.525 5.408 8.102 8.102 0 0 0 6.93-.14c-2.053-2.506-4.784-5.379-4.43-8.702.282-2.702-.139-5.478 0-8.187.19-3.848-1.693-7.553-4.45-10.022-1.61-1.443-4.113-1.626-4.927-1.338-1.582.57-3.32.354-4.952.737-8.5 1.99 2.364 11.345 1.572 13.089z"/>
        <path fill="url(#f)" fill-rule="nonzero" d="M51.847 247.269c11.076-3.408 17.614-3.127 17.614-3.127l-.908-5.148c.284-.19.541-.417.766-.674 0 0-1.136-6.25 0-7.814 1.136-1.563 4.263-15.765 4.263-15.765v-4.833c5.696-1.987 12.358-13.493 12.358-13.493L94.323 218s8.38 16.62 9.516 17.187c.909.452 1.361 4.17 1.51 5.648l-.07.023c.035.357.05.579.05.579l.067-.045v.045c.14-.098.29-.185.443-.26-1.636 1.88-4.085 4.582-6.123 6.367-1.124.984.892 1.744 1.835 1.728a4.627 4.627 0 0 1 1.583.225c4.775 1.649 12.627-4.37 12.627-4.37l-1.966-5.481c.513-.042.83-.06.83-.06s-6.393-22.444-9.377-24.577a13.608 13.608 0 0 1-2.532-2.398 8.86 8.86 0 0 1-2.003-6.152l1.047-18.415c1.684-.247 2.77-.452 2.77-.452s.392-5.032.379-8.893c0-2.01-.082-3.772-.38-4.462-.351-.816-.462-2.449-.468-4.088 0-2.215.183-4.291.183-4.291s2.273-2.985 5.4-9.81c1.376-3.004 1.734-5.38 1.702-7.083a9.661 9.661 0 0 0-.228-2.36 2.959 2.959 0 0 0-1.339-1.858c-1.797-1.101-5.89-3.82-7.095-6.453-1.532-3.341-3.744-3.816-3.832-3.835l-.136-.589a5.522 5.522 0 0 0 1.778-2.696c.462-1.424.557-2.943.95-4.39.19-.695.452-1.37.633-2.066.18-.7.266-1.422.256-2.145a6.645 6.645 0 0 0-.633-3.054c-.734-1.51-2.196-2.696-3.861-2.892-.918-.108-1.934.05-2.687-.485-.519-.37-.79-1-1.266-1.44-.902-.854-2.345-.81-3.519-.41a7.497 7.497 0 0 0-3.848 2.996c-.547.842-.93 1.807-1.633 2.532-.592.604-1.367.99-2.019 1.528a4.114 4.114 0 0 0-1.582 3.165v.284c.031 1.222.883 2.437 2.079 2.684.313.058.633.066.95.025a7.67 7.67 0 0 0 5.692 9.481c-.019.102-.04.203-.063.317h.067c-.137.492-.309.974-.513 1.443h-.092l.231-.412-3.26-.224c-.949-.072-1.9.106-2.759.516-1.123.544-2.351 1.582-2.503 3.544-.285 3.677-7.247 9.215-7.247 9.215-2.415 3.836-18.185 4.544-18.185 4.544s.07.089.102.136l-.317-.06-1.193-.218s-3.693-10.937-7.244-8.95c-3.55 1.988 6.108 12.785 6.108 12.785l2.791.187.282.02a17.04 17.04 0 0 1-.44 2.097c-.038.14-.066.228-.073.25 0 0 7.342-.848 13.58-.712h.563l.399-.019c.316 3.427 5.203 10.393 5.203 10.393l3.016.633.227.047a25.215 25.215 0 0 1-3.67 5.566l-.994 5.542.079-.02-.08.447c.171-.042.329-.124.46-.24-1.947 5.164-5.175 13.202-7.418 16.006-3.409 4.262-2.985 11.076-2.985 11.076s-3.408 17.898-3.266 21.164a8.417 8.417 0 0 1-1.23 4.472 14.785 14.785 0 0 0-1.754 2.49c-2.557 4.405-6.677 4.114-6.677 4.114-3.551 2.285.696 4.133.696 4.133zm21.94-86.642l.368-.146.085-.035.351-.152.06-.028.317-.146.07-.031.335-.168.08-.041.316-.168h.025l.316-.184.076-.044.317-.183.05-.032.276-.168.063-.038.294-.186.067-.045.272-.18.025-.016.279-.193.063-.044.266-.19.041-.029.234-.17.05-.038.245-.187.05-.038.222-.174h.019l.224-.18.048-.039.212-.174.019-.015.19-.162.031-.028.187-.162.029-.025.17-.155.165-.149.022-.022.317-.316.462-.038c.392.51.547 1.411.563 2.446-.044 2.655-.848 5.933-.848 5.933a18.503 18.503 0 0 1-.842 4.791 2.823 2.823 0 0 1-1.003-.243s-.02.101-.048.272l-.272-.07-1.383-.345s-1.148-5.848-3.474-8.265z"/>
        <path fill="#4F4D59" fill-rule="nonzero" d="M112.311 236.288l2.636 7.345s-7.218 5.538-11.908 4.392a13.109 13.109 0 0 0-2.152-.348c-.972-.073-2.643-.778-1.611-1.68 3.329-2.912 7.766-8.32 7.766-8.32l5.27-1.389zM68.487 235.595l1.247 7.073s-6.38-.279-17.197 3.05c0 0-4.162-1.803-.693-4.022 0 0 4.022.279 6.519-4.022 2.497-4.3 4.022-3.744 4.022-3.744l6.102 1.665z"/>
        <path fill="#787C9C" fill-rule="nonzero" d="M101.494 184.282l-1.221 21.519a8.902 8.902 0 0 0 2.123 6.294 13.048 13.048 0 0 0 2.291 2.136c2.912 2.08 9.153 23.99 9.153 23.99s-7.073.415-9.013 1.804c0 0-.415-5.547-1.526-6.1-1.11-.555-9.291-16.773-9.291-16.773l-8.187-21.082s-6.52 11.234-12.067 13.174v4.715s-3.05 13.867-4.162 15.392c-1.11 1.526 0 7.627 0 7.627s-3.19 4.022-10.538-.279c0 0 2.358-2.636 2.215-5.826-.142-3.19 3.197-20.658 3.197-20.658s-.415-6.645 2.911-10.816c3.326-4.171 8.861-20.108 8.861-20.108l3.817-8.212 21.437 13.203z"/>
        <g fill="#000" fill-rule="nonzero" opacity=".1">
            <path d="M112.52 238.228s-6.24-21.912-9.152-23.99a13.212 13.212 0 0 1-2.409-2.276 8.8 8.8 0 0 1-2.003-6.152l1.222-21.519-20.454-12.607.279-.599 21.422 13.203-1.222 21.519a8.8 8.8 0 0 0 2.003 6.152c.704.856 1.514 1.62 2.409 2.275 2.911 2.08 9.152 23.99 9.152 23.99s-7.073.415-9.013 1.804c0 0-.016-.215-.05-.566 2.727-.934 7.816-1.234 7.816-1.234zM68.281 236.987s-1.11-6.1 0-7.626c1.11-1.526 4.162-15.393 4.162-15.393v-4.715c5.547-1.943 12.066-13.174 12.066-13.174l.485 1.25c-1.88 2.981-6.896 10.383-11.301 11.924v4.715s-3.051 13.867-4.162 15.393c-1.11 1.525 0 7.626 0 7.626s-1.547 1.947-4.965 1.684c2.547-.218 3.715-1.684 3.715-1.684z"/>
        </g>
        <path fill="#714B4F" fill-rule="nonzero" d="M53.787 160.152l2.725.18 1.436.095v-3.48l-1.898-.343-1.168-.212s-3.605-10.677-7.073-8.737c-3.469 1.94 5.978 12.497 5.978 12.497zM97.472 131.585s1.804 6.934 2.358 11.235c.553 4.3-12.896.832-12.896.832s5.13-6.24 2.215-9.57l8.323-2.497z"/>
        <path fill="#E6E6F0" fill-rule="nonzero" d="M82.911 160.43l-.278 2.636 4.297-.278 4.298-3.744 4.298-12.066 2.778-4.294 2.08-2.637-.833-3.19s-.38.317-1.022.823c-2.11 1.617-7.067 4.975-10.687 4.048a4.317 4.317 0 0 1-.494-.155l-5.408 9.29.971 9.567z"/>
        <path fill="#000" fill-rule="nonzero" d="M98.443 136.038s2.216.415 3.744 3.744c1.174 2.56 5.133 5.199 6.902 6.284a2.959 2.959 0 0 1 1.342 1.87c.358 1.583.494 4.526-1.45 8.767-3.05 6.645-5.268 9.57-5.268 9.57s-.554 6.645.278 8.597c.832 1.953 0 12.62 0 12.62s-14.557 2.773-19.415 0c-4.858-2.772-4.162-13.477-4.162-13.477s-4.576 9.715-6.23 9.993l.949-5.408s5.408-5.826 5.696-13.313c0 0 1.665-6.794.278-8.598 0 0-23.437 1.943-24.823.278 0 0 15.393-.693 17.75-4.43 0 0 6.795-5.408 7.073-9.013a3.987 3.987 0 0 1 2.08-3.266 5.43 5.43 0 0 1 3.107-.693l3.133.215s-5.405 9.551-5.117 10.817c.288 1.266-.278 11.37-.278 11.37s6.24-13.452 9.013-14.978c2.772-1.525 5.952-7.784 5.952-7.784l-.554-3.165" opacity=".1"/>
        <path fill="#000" fill-rule="nonzero" d="M82.911 160.43l-.278 2.636 4.297-.278 4.298-3.744 4.298-12.066 2.778-4.294 2.08-2.637-.833-3.19s-.38.317-1.022.823l.19 1.095s-3.19 6.263-5.962 7.788c-2.773 1.526-9.013 14.978-9.013 14.978s.553-10.126.278-11.37c-.19-.848 2.24-5.522 3.82-8.443a4.317 4.317 0 0 1-.494-.155l-5.408 9.29.971 9.567zM56.512 160.335l1.436.095v-3.48l-1.898-.342c.667.886.645 2.424.462 3.727z" opacity=".1"/>
        <path fill="#67647E" fill-rule="nonzero" d="M98.443 135.608s2.216.414 3.744 3.743c1.174 2.56 5.133 5.2 6.902 6.285a2.959 2.959 0 0 1 1.342 1.87c.358 1.583.494 4.526-1.45 8.766-3.05 6.646-5.268 9.57-5.268 9.57s-.554 6.645.278 8.598c.832 1.952 0 12.62 0 12.62s-14.557 2.772-19.415 0c-4.858-2.772-4.162-13.452-4.162-13.452s-4.576 9.705-6.23 9.98l.949-5.408s5.408-5.826 5.696-13.313c0 0 1.665-6.794.278-8.598 0 0-5.408 5.826-11.51 5.696-6.101-.13-13.313.693-13.313.693s1.386-4.43 0-6.101c0 0 15.393-.693 17.75-4.43 0 0 6.795-5.409 7.073-9.013a3.987 3.987 0 0 1 2.083-3.279 5.43 5.43 0 0 1 3.107-.693l3.134.216s-5.409 9.563-5.12 10.81c.287 1.247-.28 11.37-.28 11.37s6.241-13.453 9.014-14.978c2.772-1.525 5.962-7.788 5.962-7.788l-.554-3.164"/>
        <path fill="#000" fill-rule="nonzero" d="M101.494 150.168s-3.329 11.234-5.269 12.62c-1.94 1.386-13.728 8.459-17.197 6.794 0 0-.832 4.162.415 5.13 0 0 12.93-.506 13.035-.554 0 0 8.46-1.11 9.845-5.269 1.387-4.158 3.051-11.234 3.051-11.234l-3.88-7.487z" opacity=".1"/>
        <ellipse cx="83.744" cy="162.165" fill="#BA7855" fill-rule="nonzero" rx="1" ry="1"/>
        <ellipse cx="82.357" cy="167.019" fill="#BA7855" fill-rule="nonzero" rx="1" ry="1"/>
        <g fill="#000" fill-rule="nonzero" opacity=".1">
            <path d="M103.02 186.918s.832-10.677 0-12.62c-.833-1.944-.279-8.599-.279-8.599s2.215-2.911 5.27-9.57c1.942-4.24 1.803-7.183 1.449-8.765a2.959 2.959 0 0 0-1.345-1.87c-1.77-1.086-5.728-3.725-6.9-6.285-.86-1.877-1.94-2.83-2.72-3.3l-.055-.317s2.216.414 3.744 3.743c1.174 2.56 5.133 5.2 6.9 6.285a2.959 2.959 0 0 1 1.344 1.87c.358 1.583.494 4.526-1.45 8.766-3.05 6.646-5.268 9.57-5.268 9.57s-.554 6.646.278 8.598c.832 1.953 0 12.62 0 12.62s-10.402 1.981-16.554.921c6.215.738 15.586-1.047 15.586-1.047zM84.31 150.168c.19.854 0 5.88-.155 8.955-.67 1.37-1.092 2.276-1.092 2.276s.554-10.127.279-11.37c-.263-1.187 4.607-9.89 5.092-10.76l1.01.07s-5.422 9.582-5.134 10.829zM68.626 161.816c6.101.14 11.51-5.696 11.51-5.696.163.227.283.482.351.753-1.582 1.49-6.013 5.184-10.89 5.064-6.101-.14-13.313.693-13.313.693s.028-.092.073-.25c4.076-.416 8.172-.604 12.269-.564zM79.443 173.465s-.057.867-.026 2.168c-1.443 2.848-4.07 7.76-5.243 7.956l.205-1.14c2.02-2.534 5.064-8.984 5.064-8.984z"/>
        </g>
        <path fill="url(#g)" fill-rule="nonzero" d="M47.897 138.468h33.15v24.981h-33.15z"/>
        <path fill="#FFF" fill-rule="nonzero" d="M48.752 139.111H80.19v23.693H48.752z"/>
        <path fill="#DF5050" fill-rule="nonzero" d="M51.828 141.161h10.478v5.924H51.828z" opacity=".2"/>
        <path fill="#E6E8EC" fill-rule="nonzero" d="M64.813 141.161h12.301v1.367H64.813zM64.813 143.44h8.659v1.367h-8.659zM64.813 145.718h12.301v1.367H64.813zM51.828 147.997h25.289v1.367H51.828zM51.828 150.275h25.289v1.367H51.828zM51.828 152.551h25.289v1.367H51.828zM51.828 154.829h23.238v1.367H51.828zM51.828 157.108h25.289v1.367H51.828zM51.828 159.386h25.289v1.367H51.828z"/>
        <path fill="#714B4F" fill-rule="nonzero" d="M75.56 172.08l2.946.632 2.323.478-1.247-3.481-.867-.218-1.351-.336s-1.94-9.7-5.823-9.003c-3.883.696 4.019 11.927 4.019 11.927z"/>
        <path fill="#000" fill-rule="nonzero" d="M78.506 172.7l2.323.49-1.247-3.481-.867-.218a13.85 13.85 0 0 0-.209 3.208z" opacity=".1"/>
        <path fill="#67647E" fill-rule="nonzero" d="M101.494 149.892s-3.329 11.235-5.269 12.62c-1.94 1.387-13.728 8.46-17.197 6.795 0 0-.832 4.161.415 5.13 0 0 12.93-.507 13.035-.554 0 0 8.46-1.11 9.845-5.27 1.387-4.157 3.051-11.233 3.051-11.233l-3.88-7.488z"/>
        <path fill="#000" fill-rule="nonzero" d="M97.333 131.864s.281 1.085.658 2.664a7.485 7.485 0 0 1-8.266 3.798c.332-1.424.26-2.848-.715-3.978l8.323-2.484z" opacity=".1"/>
        <ellipse cx="91.51" cy="130.756" fill="#714B4F" fill-rule="nonzero" rx="7.488" ry="7.487"/>
        <path fill="#000" fill-rule="nonzero" d="M85.006 128.693a4.01 4.01 0 0 1-1.67.101c-1.168-.24-2-1.427-2.03-2.62a4.025 4.025 0 0 1 1.545-3.092c.633-.528 1.393-.905 1.972-1.493.686-.7 1.06-1.643 1.582-2.466a7.32 7.32 0 0 1 3.76-2.924c1.148-.389 2.554-.433 3.437.402.452.427.718 1.045 1.224 1.405.734.522 1.728.367 2.624.472a5 5 0 0 1 3.769 2.823c.68 1.507.81 3.204.367 4.797-.174.68-.427 1.342-.614 2.02-.39 1.41-.481 2.891-.93 4.284-.45 1.392-1.377 2.753-2.779 3.164a8.785 8.785 0 0 0-.892-4.525 1.297 1.297 0 0 0-.633-.702 1.535 1.535 0 0 0-.763 0 7.595 7.595 0 0 1-5.063-1.026c-.532-.316-1.361-1.427-1.93-1.538-.72-.13-2.216.747-2.976.918z" opacity=".1"/>
        <path fill="#503F43" fill-rule="nonzero" d="M85.006 128.415a4.01 4.01 0 0 1-1.67.1c-1.168-.24-2-1.426-2.03-2.62a4.025 4.025 0 0 1 1.545-3.091c.633-.529 1.393-.905 1.972-1.494.686-.7 1.06-1.642 1.582-2.465a7.32 7.32 0 0 1 3.76-2.924c1.148-.39 2.554-.434 3.437.402.452.427.718 1.044 1.224 1.405.734.522 1.728.367 2.624.471a5 5 0 0 1 3.769 2.823c.68 1.507.81 3.205.367 4.798-.174.68-.427 1.341-.614 2.019-.39 1.411-.481 2.892-.93 4.284-.45 1.393-1.377 2.754-2.779 3.165a8.785 8.785 0 0 0-.892-4.525 1.297 1.297 0 0 0-.633-.703 1.535 1.535 0 0 0-.763 0 7.595 7.595 0 0 1-5.063-1.025c-.532-.317-1.361-1.427-1.93-1.538-.72-.13-2.216.75-2.976.918z"/>
        <path fill="#DF5050" fill-rule="nonzero" d="M27.27 240.598a3.693 3.693 0 0 0 1.212-1.829c.158-.728-.152-1.598-.848-1.864-.779-.297-1.61.24-2.24.788-.63.548-1.355 1.168-2.181 1.05a3.316 3.316 0 0 0 1.025-3.104 1.297 1.297 0 0 0-.285-.633c-.433-.462-1.215-.262-1.734.102-1.645 1.158-2.104 3.392-2.114 5.405-.164-.725-.025-1.481-.031-2.216-.007-.734-.21-1.582-.836-1.968a2.532 2.532 0 0 0-1.266-.3c-.74-.029-1.563.047-2.07.588-.632.671-.465 1.8.083 2.532.547.73 1.376 1.202 2.142 1.715a4.747 4.747 0 0 1 1.532 1.459c.046.082.084.17.114.26h4.63a12.921 12.921 0 0 0 2.867-1.985zM302.28 196.61a3.693 3.693 0 0 0 1.212-1.828c.158-.728-.152-1.598-.848-1.864-.778-.298-1.61.24-2.24.788-.63.547-1.355 1.167-2.181 1.05a3.316 3.316 0 0 0 1.025-3.104 1.297 1.297 0 0 0-.284-.633c-.434-.462-1.216-.263-1.735.101-1.645 1.158-2.104 3.393-2.114 5.405-.164-.724-.025-1.48-.031-2.215-.007-.734-.21-1.582-.836-1.968a2.532 2.532 0 0 0-1.266-.3c-.74-.03-1.563.047-2.07.588-.632.67-.465 1.8.083 2.531.547.731 1.377 1.203 2.142 1.716a4.747 4.747 0 0 1 1.532 1.458c.046.083.085.17.114.26h4.636a12.921 12.921 0 0 0 2.861-1.984z"/>
        <path fill="url(#h)" fill-rule="nonzero" d="M343.415 101.484c-.656-1.918-1.602-4.348-2.349-4.92a.7.7 0 0 0-.148-.092h-.092v-2.37l-1.766.28a16.882 16.882 0 0 1-.633-2.623c.348.349.87.454 1.326.266-.028-.047-.054-.098-.08-.148l.08-.035a3.282 3.282 0 0 1-.427-1.608 5.857 5.857 0 0 1 .243-1.519c.317-1.092.852-2.11 1.15-3.209.19-.706.279-1.436.265-2.167a7.911 7.911 0 0 0-.823-3.576 2.089 2.089 0 0 0-.633-.817 8.067 8.067 0 0 0-.766-.373 4.136 4.136 0 0 1-1.113-1.111 9.988 9.988 0 0 0-4.827-3.221 2.826 2.826 0 0 0-1.544-.124c-1.187.317-1.617 1.788-2.58 2.56-.847.68-2.012.75-3.078.978-1.067.228-2.14.68-2.868 1.503a3.11 3.11 0 0 0-.769 2.073c-.059.724.262 1.426.849 1.854.665.436 1.49.552 2.25.317a7.652 7.652 0 0 0 5.794 9.62l.206.37a15.848 15.848 0 0 1 1.437 3.75c-1.627.921-3.402 1.785-4.475 1.867-.044.42-.122.835-.234 1.241a6.842 6.842 0 0 1-1.409 2.769c-1.459 1.64-8.019 14.032-8.019 14.032s-.206.493-.544 1.335c-4.073.5-10.722 1.222-12.577.851l-7.279-6.924s-2.354 1.798-2.148 3.981l-1.314-1.247s-6.924 5.285 4.01 8.747l16.637 1.93c-1.583 4.782-3.064 10.349-2.605 13.377h.136c.318 0 .635-.024.95-.073l-.029.538-1.601 28.69s-.364 5.285 4.557 7.652c0 0 6.013 17.674 3.646 19.68 0 0 .281.15.756.355l-4.946 4.383s-3.646.911-5.65.728a1.446 1.446 0 0 0-1.597 1.076c0 .038 0 .076-.02.114V202.595c0 .013 0 .08.023.117v.044c.01.043.024.085.04.127l.017.038c.015.041.034.082.057.123v.029c.022.04.047.079.072.12l.023.035c.03.042.062.084.098.126l.028.032c.038.044.08.086.12.127l.02.015.135.118.029.022c.05.04.108.079.165.117l.037.025c.06.038.124.076.19.11h.029l.206.102h.028l.24.095.051.02.263.085h.044l.288.075h.022l.317.064h.063l.342.05h.066l.386.038c.75.057 1.76.08 2.928.073v.186c0 .039 0 .08.022.118v.044c.01.042.024.085.041.127l.016.038c.016.04.035.082.057.123v.029c.022.04.047.079.073.12l.022.035c.03.042.062.084.098.126l.028.032c.038.044.08.085.12.127l.02.015.136.117.028.023c.05.04.108.079.165.117l.04.025c.061.038.124.076.19.11h.03l.205.102h.028l.24.095.052.019.262.085h.045l.287.076h.023l.316.064h.063l.342.05h.067l.386.038c4.747.364 19.861-.728 19.861-.728v-.094c.149-.706.877-4.807-1.706-7.84.076-.078.152-.164.222-.252 0 0-2.003-3.462-.911-4.557 1.091-1.095-5.466-20.045-5.466-20.045s-3.462-5.465-1.459-11.66c2.003-6.197-.183-12.938-.183-12.938s4.778-1.42 4.876-7.303v-.548c.105.015.211.021.317.02.067.004.135.004.202 0 0 0-.91-3.28.184-5.65 1.095-2.37 3.462-.183 5.649-9.838 1.582-6.988 2.975-15.026 3.624-18.937a9.971 9.971 0 0 0-.288-4.709zm-41.587 20.497l-1.662-1.582c.55.228 1.162.452 1.845.667l6.266.728c-2.797.26-5.396.399-6.45.19v-.003z"/>
        <path fill="#FDC2CC" fill-rule="nonzero" d="M317.689 121.054s-12.89 1.79-15.577 1.266l-7.161-6.804s-6.804 5.193 3.94 8.592l20.051 2.326-1.253-5.38z"/>
        <path fill="#000" fill-rule="nonzero" d="M317.689 121.054s-12.89 1.79-15.577 1.266l-7.161-6.804s-6.804 5.193 3.94 8.592l20.051 2.326-1.253-5.38z" opacity=".05"/>
        <path fill="#47465A" fill-rule="nonzero" d="M322.344 193.737l-6.266 5.551s-3.58.896-5.55.715c-1.972-.18-2.865 3.044 1.79 3.402 4.656.358 19.514-.715 19.514-.715s1.433-5.728-2.864-8.953h-6.624z"/>
        <path fill="#000" fill-rule="nonzero" d="M322.344 193.737l-6.266 5.551s-3.58.896-5.55.715c-1.972-.18-2.865 3.044 1.79 3.402 4.656.358 19.514-.715 19.514-.715s1.433-5.728-2.864-8.953h-6.624z" opacity=".05"/>
        <path fill="#FFF" fill-rule="nonzero" d="M332.057 200.209a9.873 9.873 0 0 1-.225 1.94s-14.874 1.073-19.514.715c-2.237-.171-3.19-1.006-3.36-1.807-.203.918.607 2.133 3.36 2.345 4.656.357 19.514-.715 19.514-.715.174-.814.25-1.646.225-2.478z" opacity=".3"/>
        <path fill="#FDC2CC" fill-rule="nonzero" d="M329.683 92.231s3.94 5.55 2.506 9.31c-1.433 3.76 7.51-3.94 7.51-3.94s-2.864-5.012-1.433-10.383l-8.583 5.013z"/>
        <path fill="#47465A" fill-rule="nonzero" d="M328.623 195.883l-6.266 5.55s-3.58.896-5.551.716c-1.972-.18-2.864 3.044 1.791 3.402 4.655.357 19.514-.716 19.514-.716s1.433-5.727-2.864-8.952h-6.624z"/>
        <path fill="#565171" fill-rule="nonzero" d="M330.401 194.63c-.933 1.152-2.25 1.582-3.626 1.661-3.13.149-6.577-1.661-6.577-1.661 2.327-1.969-3.579-19.336-3.579-19.336-4.832-2.326-4.475-7.519-4.475-7.519l1.583-28.186.395-7.08 5.013-3.044 3.953 3.032 3.747 2.876c.243.915.4 1.85.468 2.795.434 6.579-4.766 8.126-4.766 8.126s2.149 6.624.18 12.71c-1.968 6.085 1.434 11.455 1.434 11.455s6.447 18.617 5.38 19.693c-1.066 1.076.87 4.478.87 4.478z"/>
        <path fill="#000" fill-rule="nonzero" d="M330.401 194.63c-.933 1.152-2.25 1.582-3.626 1.661-3.13.149-6.577-1.661-6.577-1.661 2.327-1.969-3.579-19.336-3.579-19.336-4.832-2.326-4.475-7.519-4.475-7.519l1.583-28.186.395-7.08 5.013-3.044 3.953 3.032 3.747 2.876c.243.915.4 1.85.468 2.795.434 6.579-4.766 8.126-4.766 8.126s2.149 6.624.18 12.71c-1.968 6.085 1.434 11.455 1.434 11.455s6.447 18.617 5.38 19.693c-1.066 1.076.87 4.478.87 4.478z" opacity=".05"/>
        <path fill="#565171" fill-rule="nonzero" d="M336.667 196.778c-3.044 3.76-10.202 0-10.202 0 .145-.132.254-.3.316-.487 1.313-3.57-4.43-20.636-4.43-20.636-4.833-2.326-5.38-7.877-5.38-7.877l-1.266-28.686-.165-3.715 7.532-2.877 2.313-.883 7.7 5.908c.333 1.22.5 2.48.494 3.744-.098 5.782-4.792 7.177-4.792 7.177s2.15 6.624.18 12.71c-1.968 6.085 1.434 11.455 1.434 11.455s6.447 18.617 5.38 19.693c-1.066 1.076.886 4.474.886 4.474z"/>
        <path fill="#000" fill-rule="nonzero" d="M333.579 141.266c-1.548-.222-4.68-2.086-6.292-3.098l-1.006-.633s-1.61-4.475-5.908-1.073a16.083 16.083 0 0 1-4.668 2.64c-.648.228-1.315.396-1.994.5l.395-7.08 5.013-3.044 3.953 3.031 2.313-.882 7.7 5.908c.332 1.216.498 2.47.494 3.73z" opacity=".1"/>
        <path fill="#F68080" fill-rule="nonzero" d="M343.269 106.924c-.633 3.842-2.006 11.737-3.56 18.604-2.15 9.494-4.475 7.34-5.551 9.668-1.076 2.33-.18 5.55-.18 5.55-1.792.181-7.7-3.759-7.7-3.759s-1.611-4.474-5.909-1.072c-4.297 3.401-7.7 3.221-7.7 3.221-.895-5.908 5.729-21.661 5.729-21.661s6.446-12.174 7.877-13.785a6.721 6.721 0 0 0 1.383-2.722c.11-.399.186-.806.227-1.218 2.327-.18 8.058-4.114 8.058-4.114l4.475-.715v2.326c.052.023.1.053.145.088.738.564 1.665 2.953 2.307 4.836a9.81 9.81 0 0 1 .399 4.753z"/>
        <path fill="#000" fill-rule="nonzero" d="M339.7 99.573s-4.656-3.76-11.637 8.414c-6.982 12.174-8.592 10.203-8.592 10.203s1.433 5.38.715 6.446c0 0 4.832-.358 6.623 0 1.792.358 12.89-13.598 12.89-13.598s5.74-7.886 0-11.465z" opacity=".1"/>
        <path fill="#000" fill-rule="nonzero" d="M339.531 98.854s-4.655-3.76-11.636 8.415c-6.981 12.174-8.592 10.203-8.592 10.203s5.55 6.085 7.339 6.446c1.788.36 12.89-13.608 12.89-13.608s5.728-7.873 0-11.456z" opacity=".1"/>
        <path fill="#000" fill-rule="nonzero" d="M320.03 123.472c.074-1.326-.426-3.659-.714-4.868 1.088-.142 1.775-.237 1.775-.237l1.266 5.38-2.326-.275zM338.455 87.58l-8.592 5.012c.362.528.696 1.076 1 1.639.496.101 1 .152 1.507.152 2.294 0 3.364-2.408 4.747-4.029-.098-1.3.956-1.335 1.338-2.775z" opacity=".1"/>
        <ellipse cx="332.193" cy="86.503" fill="#FDC2CC" fill-rule="nonzero" rx="7.519" ry="7.519"/>
        <path fill="url(#i)" fill-rule="nonzero" d="M260.016 95.073h60.556v45.633h-60.556z"/>
        <path fill="#FFF" fill-rule="nonzero" d="M261.374 96.095h57.841v43.589h-57.841z"/>
        <path fill="#DF5050" fill-rule="nonzero" d="M267.032 99.867h19.279v10.896h-19.279z" opacity=".2"/>
        <path fill="#E6E8EC" fill-rule="nonzero" d="M290.922 99.867h22.634v2.516h-22.634zM290.922 104.06h15.928v2.516h-15.928zM290.922 108.25h22.634v2.516h-22.634zM267.032 112.44h46.524v2.516h-46.524zM267.032 116.633h46.524v2.516h-46.524zM267.032 120.823h46.524v2.516h-46.524zM267.032 125.016h42.752v2.516h-42.752zM267.032 129.206h46.524v2.516h-46.524zM267.032 133.396h46.524v2.516h-46.524z"/>
        <path fill="#000" fill-rule="nonzero" d="M322.68 80.42a5.14 5.14 0 0 1 2.816-1.477c1.044-.225 2.19-.294 3.026-.95.949-.756 1.367-2.192 2.531-2.512a2.776 2.776 0 0 1 1.516.12 9.81 9.81 0 0 1 4.747 3.165c.291.43.662.8 1.092 1.092.257.109.509.231.753.367.268.211.48.486.614.8a7.781 7.781 0 0 1 .544 5.466c-.29 1.079-.816 2.079-1.126 3.164-.31 1.086-.39 2.291.18 3.25-.55.282-1.247-.073-1.582-.585-.336-.513-.45-1.146-.633-1.738a6.646 6.646 0 0 0-1.94-3.016c-.563-.5-1.582-.835-1.965-.19-.152.25-.143.567-.272.827-.257.506-.997.607-1.488.316a2.282 2.282 0 0 1-.93-1.38c-.738-2.493-1.994-4.063-4.662-2.997-.993.4-2.164.668-3.12-.015-1.247-.902-1.003-2.687-.101-3.706z" opacity=".1"/>
        <path fill="#B96B6B" fill-rule="nonzero" d="M322.68 80.24a5.14 5.14 0 0 1 2.816-1.477c1.044-.225 2.19-.295 3.026-.95.949-.756 1.367-2.193 2.531-2.512a2.776 2.776 0 0 1 1.516.12 9.81 9.81 0 0 1 4.747 3.164c.291.43.662.801 1.092 1.092.257.11.509.232.753.367.268.212.48.487.614.8a7.781 7.781 0 0 1 .544 5.466c-.29 1.08-.816 2.08-1.126 3.165-.31 1.085-.39 2.29.18 3.25-.55.281-1.247-.073-1.582-.586-.336-.512-.45-1.145-.633-1.737a6.646 6.646 0 0 0-1.94-3.016c-.563-.5-1.582-.835-1.965-.19-.152.25-.143.567-.272.826-.257.506-.997.608-1.488.317a2.282 2.282 0 0 1-.93-1.38c-.738-2.494-1.994-4.063-4.662-2.997-.993.399-2.164.668-3.12-.016-1.247-.902-1.003-2.683-.101-3.705z"/>
        <path fill="#000" fill-rule="nonzero" d="M340.573 97.335h-3.64s-7.161 3.58-7.339 3.402c-.12-.12-1.227.086-1.93.235.11-.4.186-.807.228-1.219 2.326-.18 8.057-4.114 8.057-4.114l4.475-.715v2.326c.053.022.103.05.149.085z" opacity=".05"/>
        <path fill="#FFF" fill-rule="nonzero" d="M338.323 202.358a9.873 9.873 0 0 1-.225 1.94s-14.874 1.072-19.513.715c-2.238-.171-3.19-1.007-3.361-1.807-.203.917.607 2.133 3.36 2.345 4.656.357 19.514-.716 19.514-.716.174-.813.25-1.645.225-2.477z" opacity=".3"/>
        <g fill="#000" fill-rule="nonzero" opacity=".05">
            <path d="M318.673 135.722c-2.415 1.898-4.55 2.693-5.953 3.009 0 .133.026.266.045.392 0 0 3.402.18 7.7-3.221a5.77 5.77 0 0 1 2.3-1.203c-.937-.433-2.275-.405-4.092 1.023zM342.971 102.177c-.632-1.899-1.582-4.272-2.307-4.835a.687.687 0 0 0-.145-.089s-1.481.05-1.434.089c.738.563 1.453 2.772 2.095 4.655a9.81 9.81 0 0 1 .39 4.747c-.633 3.841-2.007 11.737-3.56 18.604-2.15 9.494-4.476 7.339-5.552 9.668-.88 1.899-.44 4.411-.25 5.256.766.317 1.43.516 1.861.472 0 0-.895-3.222.18-5.551 1.077-2.33 3.403-.18 5.551-9.668 1.554-6.864 2.921-14.762 3.56-18.604a9.81 9.81 0 0 0-.389-4.744z"/>
        </g>
        <path fill="#FDC2CC" fill-rule="nonzero" d="M322.344 123.74l-2.313-.268-17.722-2.06c-10.741-3.403-3.94-8.592-3.94-8.592l7.161 6.803c2.067.415 10.168-.55 13.798-1.015 1.089-.143 1.776-.238 1.776-.238l1.24 5.37z"/>
        <path fill="#F68080" fill-rule="nonzero" d="M339.7 99.215s-4.656-3.76-11.637 8.415c-6.982 12.174-8.592 10.202-8.592 10.202s1.433 5.38.715 6.446c0 0 4.832-.357 6.623 0 1.792.358 12.89-13.607 12.89-13.607s5.74-7.877 0-11.456z"/>
    </g>
</svg>
